<svg width="155" height="140" viewBox="0 0 155 140" fill="none" xmlns="http://www.w3.org/2000/svg">
<path d="M112.87 94.2148C110.127 99.4518 106.361 104.183 101.845 108.111C97.3296 112.026 92.0762 115.124 86.4217 117.185L85.3607 117.548L84.8302 117.73L84.2868 117.898L83.2128 118.222L82.1259 118.52C81.9447 118.572 81.7636 118.624 81.5824 118.663L81.039 118.793L79.9391 119.052L78.8264 119.272C78.6452 119.311 78.4511 119.35 78.27 119.376L77.7136 119.467L76.6008 119.648L75.4751 119.791L74.9187 119.856L74.3623 119.907L73.2366 120.011L72.1109 120.076L71.5415 120.102C71.3475 120.115 71.1663 120.115 70.9722 120.115L69.8465 120.141C69.4712 120.141 69.096 120.128 68.7208 120.128C65.7059 120.089 62.691 119.804 59.7279 119.181C58.2529 118.87 56.7778 118.52 55.3415 118.067L54.7981 117.911C54.6169 117.859 54.4358 117.807 54.2546 117.743L53.1936 117.367L52.1326 116.991L51.0845 116.563C48.3025 115.422 45.6241 114.022 43.1009 112.389L41.2377 111.118L39.4391 109.77C39.2838 109.667 39.1415 109.537 38.9992 109.42L38.5722 109.057L37.7052 108.344C37.4076 108.111 37.1359 107.852 36.8642 107.606L36.0361 106.854C31.6755 102.757 28.0525 97.9352 25.2835 92.6852C22.5145 87.4222 20.6642 81.6926 19.7843 75.8203L19.629 74.7185C19.5773 74.3555 19.5255 73.9796 19.4996 73.6166C19.4349 72.8778 19.3702 72.1389 19.3055 71.387L19.215 69.1574L19.202 68.8722C19.202 68.7815 19.202 68.6907 19.202 68.587V68.0296L19.215 66.9148C19.2797 63.9333 19.5773 60.9518 20.1466 58.0092L20.3795 56.9074C20.4571 56.5444 20.5218 56.1685 20.6254 55.8055C20.8194 55.0796 21.0006 54.3537 21.1947 53.6278L21.8675 51.4759C21.9193 51.2944 21.984 51.1259 22.0487 50.9444L22.2428 50.4129L22.6309 49.35C23.1873 47.95 23.7696 46.5629 24.4554 45.2278L24.7012 44.7222L24.8306 44.4629C24.8694 44.3852 24.9212 44.2944 24.96 44.2166L25.5035 43.2315L26.0469 42.2463L26.6421 41.287L27.2373 40.3278C27.4314 40.0037 27.6643 39.7055 27.8714 39.3944C28.2984 38.7722 28.7124 38.15 29.1782 37.5537L29.864 36.6592L30.2134 36.2055L30.5757 35.7778L31.3132 34.9092C31.5591 34.6241 31.792 34.3259 32.0637 34.0537L32.8401 33.2241C33.0988 32.9518 33.3447 32.6666 33.6164 32.4074L35.2338 30.8259L36.9289 29.3222C37.0712 29.1926 37.2135 29.0759 37.3688 28.9592L37.8088 28.6092L38.6886 27.8963C43.4632 24.1889 48.9107 21.3241 54.6946 19.5092C60.4784 17.6815 66.6117 16.9944 72.6543 17.3315C78.7099 17.6815 84.6879 19.1592 90.2 21.6481C95.7251 24.1241 100.771 27.6241 105.028 31.8629C109.298 36.1148 112.779 41.1185 115.251 46.5629C117.735 52.0074 119.184 57.8796 119.521 63.7778L119.223 63.8037C118.369 57.9833 116.57 52.3574 113.879 47.2241C111.188 42.0907 107.629 37.45 103.398 33.5611C99.1799 29.6592 94.3018 26.5222 89.0355 24.2926C86.4088 23.1907 83.6915 22.2963 80.9096 21.6611C78.1276 21.0259 75.3069 20.6241 72.4602 20.4944C69.6136 20.3518 66.7669 20.4426 63.9332 20.7666L62.8722 20.8963L62.3417 20.9611L61.8112 21.0518L60.7631 21.2333L60.2326 21.3241L59.9738 21.3759C59.8832 21.3889 59.8056 21.4148 59.715 21.4407L57.6318 21.9074L55.5744 22.4778C50.127 24.1111 44.9513 26.7037 40.3578 30.1129L39.5038 30.7741L39.0768 31.0981C38.9345 31.2018 38.7921 31.3185 38.6627 31.4352L37.0324 32.8222L35.4667 34.287C34.9621 34.7926 34.4704 35.3111 33.9658 35.8166C32.9953 36.8666 32.0508 37.9426 31.158 39.0703C30.6921 39.6148 30.291 40.2111 29.864 40.7815C29.657 41.0666 29.437 41.3518 29.23 41.65L28.6348 42.5444C25.4647 47.3278 23.0579 52.6685 21.7252 58.3074C21.0523 61.1203 20.6254 64.0111 20.4571 66.9018L20.4054 67.9907L20.3795 68.5352C20.3795 68.6259 20.3666 68.7166 20.3666 68.8074V69.0796L20.3924 71.2574C20.4313 71.9833 20.483 72.7092 20.5218 73.4352C20.5348 73.7981 20.5865 74.1611 20.6254 74.5241L20.7547 75.6129C20.8194 76.3389 20.9618 77.0518 21.0782 77.7778C21.1429 78.1407 21.1947 78.5037 21.2723 78.8537L21.5182 79.9166L21.7511 80.9796C21.7899 81.1611 21.8416 81.3296 21.8934 81.5111L22.0357 82.0426L22.3333 83.0926C22.3851 83.2611 22.4239 83.4426 22.4886 83.6111L22.6568 84.1296L23.0062 85.1666L23.1744 85.6852C23.2262 85.8537 23.3038 86.0222 23.3685 86.1907L23.7696 87.2018L23.9766 87.7074C24.0413 87.8759 24.106 88.0444 24.1837 88.2129L25.0894 90.1963L26.0987 92.1407C28.9065 97.2481 32.6719 101.811 37.0971 105.531L37.9382 106.218C38.2228 106.452 38.4945 106.685 38.7921 106.893L39.6591 107.541L40.099 107.865C40.2413 107.968 40.3837 108.085 40.5389 108.176L42.3375 109.381L44.1878 110.496C46.6851 111.935 49.2859 113.154 51.9773 114.152C57.3471 116.148 63.0275 117.276 68.7596 117.393C69.1219 117.406 69.4712 117.418 69.8335 117.418L70.9075 117.406C71.0887 117.406 71.2698 117.406 71.438 117.393L71.9685 117.367L73.0425 117.315L74.1165 117.237L74.647 117.198L75.1775 117.133L76.2385 117.017L77.2995 116.861C80.1332 116.459 82.9281 115.759 85.6583 114.878C91.1058 113.063 96.2556 110.315 100.823 106.763C105.391 103.211 109.376 98.8555 112.598 93.9426L112.87 94.2148Z" fill="#B0D136"/>
<path d="M43.256 38.0333L44.1488 40.4185H42.3891L43.256 38.0333Z" fill="white"/>
<path d="M43.3078 35.2333C40.5129 35.2333 38.2485 37.5019 38.2485 40.3019C38.2485 43.1019 40.5129 45.3704 43.3078 45.3704C46.1027 45.3704 48.3671 43.1019 48.3671 40.3019C48.3671 37.5019 46.1027 35.2333 43.3078 35.2333ZM45.5592 42.9593C45.2875 42.9593 45.0546 42.7908 44.9511 42.5445L44.55 41.5074H41.988L41.6128 42.5445C41.5222 42.7908 41.2893 42.9593 41.0175 42.9593C40.6552 42.9593 40.3835 42.6611 40.3835 42.3241C40.3835 42.2463 40.3965 42.1685 40.4223 42.0908L42.3244 37.1778C42.4797 36.7889 42.842 36.5426 43.256 36.5426C43.4631 36.5426 43.6572 36.6074 43.8254 36.7111C43.9936 36.8148 44.123 36.9833 44.2006 37.1648L46.1545 42.0519C46.3356 42.4926 46.0251 42.9593 45.5592 42.9593Z" fill="white"/>
<path d="M43.269 47.2241C40.4741 47.2241 38.2097 49.4926 38.2097 52.2926C38.2097 55.0926 40.4741 57.3611 43.269 57.3611C46.0639 57.3611 48.3283 55.0926 48.3283 52.2926C48.3412 49.5055 46.0768 47.2241 43.269 47.2241ZM45.8957 54.25C45.7145 54.6 45.4816 54.8852 45.2099 55.1055C44.757 55.4426 44.2006 55.6111 43.5148 55.6111C42.6608 55.6111 41.9621 55.3259 41.4187 54.7426C40.8752 54.1592 40.5906 53.3685 40.5906 52.3574C40.5906 51.2944 40.8623 50.4648 41.4187 49.8685C41.9621 49.2722 42.6867 48.987 43.5925 48.987C44.3818 48.987 45.0158 49.2204 45.4945 49.687C45.611 49.8037 45.7275 49.9333 45.818 50.0889C46.0509 50.4648 45.831 50.9444 45.4169 51.0481C45.3652 51.0611 45.3134 51.0611 45.2616 51.0611C45.0417 51.0611 44.8217 50.9444 44.7053 50.75C44.6276 50.6074 44.5241 50.4907 44.3947 50.387C44.1489 50.1926 43.8642 50.1018 43.5148 50.1018C43.0361 50.1018 42.6608 50.2704 42.3632 50.6074C42.0656 50.9444 41.9233 51.5018 41.9233 52.2667C41.9233 53.0833 42.0656 53.6537 42.3632 54.0037C42.6479 54.3537 43.0361 54.5222 43.5019 54.5222C43.8513 54.5222 44.1359 54.4185 44.3947 54.1981C44.537 54.0685 44.6535 53.9 44.757 53.6926C44.8864 53.3944 45.2228 53.2518 45.5334 53.3555C45.8957 53.4592 46.0768 53.9 45.8957 54.25Z" fill="white"/>
<path d="M43.269 59.2278C40.4741 59.2278 38.2097 61.4963 38.2097 64.2963C38.2097 67.0963 40.4741 69.3648 43.269 69.3648C46.0639 69.3648 48.3283 67.0963 48.3283 64.2963C48.3412 61.4963 46.0768 59.2278 43.269 59.2278ZM45.8957 66.2537C45.7145 66.6037 45.4816 66.8889 45.2099 67.1092C44.757 67.4463 44.2006 67.6148 43.5148 67.6148C42.6608 67.6148 41.9621 67.3296 41.4187 66.7463C40.8752 66.163 40.5906 65.3722 40.5906 64.3611C40.5906 63.2981 40.8623 62.4685 41.4187 61.8722C41.9621 61.2759 42.6867 60.9907 43.5925 60.9907C44.3818 60.9907 45.0158 61.2241 45.4945 61.6907C45.611 61.8074 45.7275 61.937 45.818 62.0926C46.0509 62.4685 45.831 62.9481 45.4169 63.0518C45.3652 63.0648 45.3134 63.0648 45.2616 63.0648C45.0417 63.0648 44.8217 62.9481 44.7053 62.7537C44.6276 62.6111 44.5241 62.4944 44.3947 62.3907C44.1489 62.1963 43.8642 62.1055 43.5148 62.1055C43.0361 62.1055 42.6608 62.2741 42.3632 62.6111C42.0656 62.9481 41.9233 63.5055 41.9233 64.2704C41.9233 65.087 42.0656 65.6574 42.3632 66.0074C42.6479 66.3574 43.0361 66.5259 43.5019 66.5259C43.8513 66.5259 44.1359 66.4222 44.3947 66.2018C44.537 66.0722 44.6535 65.9037 44.757 65.6963C44.8864 65.3981 45.2228 65.2555 45.5334 65.3592C45.8957 65.4629 46.0768 65.8907 45.8957 66.2537Z" fill="white"/>
<path d="M60.2712 43.3222L60.0642 45.4741H58.3691L58.5762 43.3222H60.2712Z" fill="white"/>
<path d="M59.0161 36.6722C54.8755 36.6722 51.5113 40.0426 51.5113 44.1907C51.5113 48.3518 54.8755 51.7093 59.0161 51.7093C63.1696 51.7093 66.5209 48.3389 66.5209 44.1907C66.5338 40.0426 63.1696 36.6722 59.0161 36.6722ZM63.7001 43.3222H61.8886L61.6687 45.4741H63.4284L63.2731 47.587H61.4746L61.2028 50.4H59.5984L59.8572 47.587H58.188L57.9033 50.4H56.2859L56.5576 47.587H54.7979L54.9532 45.4741H56.7647L56.9587 43.3222H55.2119L55.3672 41.2092H57.1658L57.4375 38.3055H59.0549L58.7703 41.2092H60.4653L60.737 38.3055H62.3674L62.0957 41.2092H63.8295L63.7001 43.3222Z" fill="white"/>
<path d="M75.1127 99.6852C78.0783 99.6852 80.4825 97.2766 80.4825 94.3056C80.4825 91.3345 78.0783 88.9259 75.1127 88.9259C72.147 88.9259 69.7429 91.3345 69.7429 94.3056C69.7429 97.2766 72.147 99.6852 75.1127 99.6852Z" fill="white"/>
<path d="M84.5066 90.5982C87.4723 90.5982 89.8764 88.1896 89.8764 85.2185C89.8764 82.2474 87.4723 79.8389 84.5066 79.8389C81.5409 79.8389 79.1368 82.2474 79.1368 85.2185C79.1368 88.1896 81.5409 90.5982 84.5066 90.5982Z" fill="white"/>
<path d="M63.6096 67.4852C66.6038 67.4852 69.0311 65.0534 69.0311 62.0537C69.0311 59.054 66.6038 56.6222 63.6096 56.6222C60.6153 56.6222 58.188 59.054 58.188 62.0537C58.188 65.0534 60.6153 67.4852 63.6096 67.4852Z" fill="white"/>
<path d="M81.8023 74.7055C84.7894 74.7055 87.2109 72.2796 87.2109 69.287C87.2109 66.2944 84.7894 63.8685 81.8023 63.8685C78.8152 63.8685 76.3937 66.2944 76.3937 69.287C76.3937 72.2796 78.8152 74.7055 81.8023 74.7055Z" fill="white"/>
<path d="M62.9626 100.904C65.9355 100.904 68.3454 98.4893 68.3454 95.5111C68.3454 92.5328 65.9355 90.1185 62.9626 90.1185C59.9898 90.1185 57.5799 92.5328 57.5799 95.5111C57.5799 98.4893 59.9898 100.904 62.9626 100.904Z" fill="white"/>
<path d="M84.3643 47.1722C87.1799 47.1722 89.4624 44.8855 89.4624 42.0648C89.4624 39.2441 87.1799 36.9574 84.3643 36.9574C81.5487 36.9574 79.2662 39.2441 79.2662 42.0648C79.2662 44.8855 81.5487 47.1722 84.3643 47.1722Z" fill="white"/>
<path d="M72.7835 47.2759C75.742 47.2759 78.1404 44.8732 78.1404 41.9093C78.1404 38.9453 75.742 36.5426 72.7835 36.5426C69.825 36.5426 67.4267 38.9453 67.4267 41.9093C67.4267 44.8732 69.825 47.2759 72.7835 47.2759Z" fill="white"/>
<path d="M75.7984 65.2037C77.635 65.2037 79.1238 63.7121 79.1238 61.8722C79.1238 60.0323 77.635 58.5407 75.7984 58.5407C73.9619 58.5407 72.473 60.0323 72.473 61.8722C72.473 63.7121 73.9619 65.2037 75.7984 65.2037Z" fill="white"/>
<path d="M87.3402 77.6352C88.6766 77.6352 89.7599 76.5499 89.7599 75.2111C89.7599 73.8723 88.6766 72.787 87.3402 72.787C86.0039 72.787 84.9206 73.8723 84.9206 75.2111C84.9206 76.5499 86.0039 77.6352 87.3402 77.6352Z" fill="white"/>
<path d="M54.1509 68.0296C55.4873 68.0296 56.5706 66.9443 56.5706 65.6055C56.5706 64.2668 55.4873 63.1815 54.1509 63.1815C52.8146 63.1815 51.7313 64.2668 51.7313 65.6055C51.7313 66.9443 52.8146 68.0296 54.1509 68.0296Z" fill="white"/>
<path d="M79.3179 80.2796C80.6829 80.2796 81.7893 79.1711 81.7893 77.8037C81.7893 76.4363 80.6829 75.3278 79.3179 75.3278C77.953 75.3278 76.8466 76.4363 76.8466 77.8037C76.8466 79.1711 77.953 80.2796 79.3179 80.2796Z" fill="white"/>
<path d="M55.1991 61.4055C56.5283 61.4055 57.6058 60.326 57.6058 58.9944C57.6058 57.6628 56.5283 56.5833 55.1991 56.5833C53.8699 56.5833 52.7924 57.6628 52.7924 58.9944C52.7924 60.326 53.8699 61.4055 55.1991 61.4055Z" fill="white"/>
<path d="M55.0696 94.6815C56.406 94.6815 57.4893 93.5962 57.4893 92.2574C57.4893 90.9186 56.406 89.8333 55.0696 89.8333C53.7333 89.8333 52.65 90.9186 52.65 92.2574C52.65 93.5962 53.7333 94.6815 55.0696 94.6815Z" fill="white"/>
<path d="M71.1921 70.3759C72.5213 70.3759 73.5988 69.2964 73.5988 67.9648C73.5988 66.6332 72.5213 65.5537 71.1921 65.5537C69.8629 65.5537 68.7853 66.6332 68.7853 67.9648C68.7853 69.2964 69.8629 70.3759 71.1921 70.3759Z" fill="white"/>
<path d="M54.979 99.8278C56.3225 99.8278 57.4116 98.7367 57.4116 97.3907C57.4116 96.0448 56.3225 94.9537 54.979 94.9537C53.6356 94.9537 52.5464 96.0448 52.5464 97.3907C52.5464 98.7367 53.6356 99.8278 54.979 99.8278Z" fill="white"/>
<path d="M70.8298 61.5222C71.7516 61.5222 72.4989 60.7735 72.4989 59.85C72.4989 58.9264 71.7516 58.1778 70.8298 58.1778C69.9079 58.1778 69.1606 58.9264 69.1606 59.85C69.1606 60.7735 69.9079 61.5222 70.8298 61.5222Z" fill="white"/>
<path d="M59.1843 69.8963C60.0919 69.8963 60.8276 69.1592 60.8276 68.25C60.8276 67.3408 60.0919 66.6037 59.1843 66.6037C58.2767 66.6037 57.541 67.3408 57.541 68.25C57.541 69.1592 58.2767 69.8963 59.1843 69.8963Z" fill="white"/>
<path d="M66.6374 39.4204C67.5235 39.4204 68.2418 38.7007 68.2418 37.813C68.2418 36.9252 67.5235 36.2056 66.6374 36.2056C65.7512 36.2056 65.0329 36.9252 65.0329 37.813C65.0329 38.7007 65.7512 39.4204 66.6374 39.4204Z" fill="white"/>
<path d="M76.5748 87.2796C77.5253 87.2796 78.2958 86.5077 78.2958 85.5556C78.2958 84.6034 77.5253 83.8315 76.5748 83.8315C75.6244 83.8315 74.8539 84.6034 74.8539 85.5556C74.8539 86.5077 75.6244 87.2796 76.5748 87.2796Z" fill="white"/>
<path d="M68.0607 102.278C68.9897 102.278 69.7428 101.523 69.7428 100.593C69.7428 99.6619 68.9897 98.9074 68.0607 98.9074C67.1317 98.9074 66.3786 99.6619 66.3786 100.593C66.3786 101.523 67.1317 102.278 68.0607 102.278Z" fill="white"/>
<path d="M89.32 81.5889C90.2204 81.5889 90.9504 80.8576 90.9504 79.9556C90.9504 79.0535 90.2204 78.3223 89.32 78.3223C88.4196 78.3223 87.6896 79.0535 87.6896 79.9556C87.6896 80.8576 88.4196 81.5889 89.32 81.5889Z" fill="white"/>
<path d="M80.8059 37.5016C81.6848 37.5016 82.3974 36.7877 82.3974 35.9072C82.3974 35.0266 81.6848 34.3127 80.8059 34.3127C79.9269 34.3127 79.2144 35.0266 79.2144 35.9072C79.2144 36.7877 79.9269 37.5016 80.8059 37.5016Z" fill="white"/>
<path d="M82.5139 94.4482C83.4072 94.4482 84.1313 93.7227 84.1313 92.8278C84.1313 91.9329 83.4072 91.2074 82.5139 91.2074C81.6206 91.2074 80.8965 91.9329 80.8965 92.8278C80.8965 93.7227 81.6206 94.4482 82.5139 94.4482Z" fill="white"/>
<path d="M70.4933 64.6204C71.0865 64.6204 71.5673 64.1387 71.5673 63.5444C71.5673 62.9502 71.0865 62.4685 70.4933 62.4685C69.9002 62.4685 69.4194 62.9502 69.4194 63.5444C69.4194 64.1387 69.9002 64.6204 70.4933 64.6204Z" fill="white"/>
<path d="M68.9924 58.6315C69.6212 58.6315 70.131 58.1208 70.131 57.4907C70.131 56.8607 69.6212 56.35 68.9924 56.35C68.3635 56.35 67.8537 56.8607 67.8537 57.4907C67.8537 58.1208 68.3635 58.6315 68.9924 58.6315Z" fill="white"/>
<path d="M77.4547 75.7037C78.0621 75.7037 78.5545 75.2104 78.5545 74.6019C78.5545 73.9933 78.0621 73.5 77.4547 73.5C76.8472 73.5 76.3548 73.9933 76.3548 74.6019C76.3548 75.2104 76.8472 75.7037 77.4547 75.7037Z" fill="white"/>
<path d="M71.3215 90.0018C71.9074 90.0018 72.3825 89.5259 72.3825 88.9389C72.3825 88.3518 71.9074 87.8759 71.3215 87.8759C70.7355 87.8759 70.2604 88.3518 70.2604 88.9389C70.2604 89.5259 70.7355 90.0018 71.3215 90.0018Z" fill="white"/>
<path d="M60.5041 102.861C61.1402 102.861 61.6557 102.345 61.6557 101.707C61.6557 101.07 61.1402 100.554 60.5041 100.554C59.8681 100.554 59.3525 101.07 59.3525 101.707C59.3525 102.345 59.8681 102.861 60.5041 102.861Z" fill="white"/>
<path d="M79.5379 48.8703C80.3383 48.8703 80.9871 48.2203 80.9871 47.4185C80.9871 46.6167 80.3383 45.9666 79.5379 45.9666C78.7375 45.9666 78.0887 46.6167 78.0887 47.4185C78.0887 48.2203 78.7375 48.8703 79.5379 48.8703Z" fill="white"/>
<path d="M83.0057 63.8296C83.6131 63.8296 84.1055 63.3363 84.1055 62.7278C84.1055 62.1192 83.6131 61.6259 83.0057 61.6259C82.3982 61.6259 81.9058 62.1192 81.9058 62.7278C81.9058 63.3363 82.3982 63.8296 83.0057 63.8296Z" fill="white"/>
<path d="M51.7054 62.9222C52.3629 62.9222 52.8958 62.3883 52.8958 61.7296C52.8958 61.071 52.3629 60.537 51.7054 60.537C51.048 60.537 50.515 61.071 50.515 61.7296C50.515 62.3883 51.048 62.9222 51.7054 62.9222Z" fill="white"/>
<path d="M64.3082 70.2593C64.9085 70.2593 65.3951 69.7717 65.3951 69.1704C65.3951 68.569 64.9085 68.0815 64.3082 68.0815C63.7079 68.0815 63.2213 68.569 63.2213 69.1704C63.2213 69.7717 63.7079 70.2593 64.3082 70.2593Z" fill="white"/>
<path d="M74.5821 36.6204C75.2539 36.6204 75.7984 36.0748 75.7984 35.4019C75.7984 34.7289 75.2539 34.1833 74.5821 34.1833C73.9104 34.1833 73.3658 34.7289 73.3658 35.4019C73.3658 36.0748 73.9104 36.6204 74.5821 36.6204Z" fill="white"/>
<path d="M78.5287 89.4963C79.1361 89.4963 79.6285 89.003 79.6285 88.3944C79.6285 87.7859 79.1361 87.2926 78.5287 87.2926C77.9213 87.2926 77.4288 87.7859 77.4288 88.3944C77.4288 89.003 77.9213 89.4963 78.5287 89.4963Z" fill="white"/>
<path d="M77.9463 38.7463C78.6324 38.7463 79.1885 38.1891 79.1885 37.5019C79.1885 36.8146 78.6324 36.2574 77.9463 36.2574C77.2603 36.2574 76.7042 36.8146 76.7042 37.5019C76.7042 38.1891 77.2603 38.7463 77.9463 38.7463Z" fill="white"/>
<path d="M75.9019 73.9407C76.5379 73.9407 77.0535 73.4242 77.0535 72.787C77.0535 72.1499 76.5379 71.6333 75.9019 71.6333C75.2659 71.6333 74.7503 72.1499 74.7503 72.787C74.7503 73.4242 75.2659 73.9407 75.9019 73.9407Z" fill="white"/>
<path d="M72.693 102.148C73.3719 102.148 73.9222 101.597 73.9222 100.917C73.9222 100.237 73.3719 99.6852 72.693 99.6852C72.0141 99.6852 71.4637 100.237 71.4637 100.917C71.4637 101.597 72.0141 102.148 72.693 102.148Z" fill="white"/>
<path d="M58.0586 101.033C58.666 101.033 59.1584 100.54 59.1584 99.9315C59.1584 99.3229 58.666 98.8296 58.0586 98.8296C57.4512 98.8296 56.9587 99.3229 56.9587 99.9315C56.9587 100.54 57.4512 101.033 58.0586 101.033Z" fill="white"/>
<path d="M72.9388 58.9555C73.5463 58.9555 74.0387 58.4622 74.0387 57.8537C74.0387 57.2451 73.5463 56.7518 72.9388 56.7518C72.3314 56.7518 71.839 57.2451 71.839 57.8537C71.839 58.4622 72.3314 58.9555 72.9388 58.9555Z" fill="white"/>
<path d="M77.7782 83.2352C78.4928 83.2352 79.0721 82.6548 79.0721 81.9389C79.0721 81.2229 78.4928 80.6426 77.7782 80.6426C77.0636 80.6426 76.4843 81.2229 76.4843 81.9389C76.4843 82.6548 77.0636 83.2352 77.7782 83.2352Z" fill="white"/>
<path d="M68.837 37.009C69.5731 37.009 70.1698 36.4112 70.1698 35.6738C70.1698 34.9364 69.5731 34.3386 68.837 34.3386C68.101 34.3386 67.5043 34.9364 67.5043 35.6738C67.5043 36.4112 68.101 37.009 68.837 37.009Z" fill="white"/>
<path d="M81.8929 96.7296C82.486 96.7296 82.9668 96.2479 82.9668 95.6537C82.9668 95.0595 82.486 94.5778 81.8929 94.5778C81.2997 94.5778 80.8189 95.0595 80.8189 95.6537C80.8189 96.2479 81.2997 96.7296 81.8929 96.7296Z" fill="white"/>
<path d="M66.7279 69.3519C67.3425 69.3519 67.8407 68.8527 67.8407 68.237C67.8407 67.6213 67.3425 67.1222 66.7279 67.1222C66.1133 67.1222 65.6151 67.6213 65.6151 68.237C65.6151 68.8527 66.1133 69.3519 66.7279 69.3519Z" fill="white"/>
<path d="M51.7313 96.3018C52.3387 96.3018 52.8311 95.8085 52.8311 95.2C52.8311 94.5915 52.3387 94.0981 51.7313 94.0981C51.1239 94.0981 50.6315 94.5915 50.6315 95.2C50.6315 95.8085 51.1239 96.3018 51.7313 96.3018Z" fill="white"/>
<path d="M69.0958 90.4166C69.689 90.4166 70.1698 89.9349 70.1698 89.3407C70.1698 88.7465 69.689 88.2648 69.0958 88.2648C68.5027 88.2648 68.0219 88.7465 68.0219 89.3407C68.0219 89.9349 68.5027 90.4166 69.0958 90.4166Z" fill="white"/>
<path d="M58.7961 91.1945C59.5608 91.1945 60.1806 90.5735 60.1806 89.8074C60.1806 89.0414 59.5608 88.4204 58.7961 88.4204C58.0315 88.4204 57.4116 89.0414 57.4116 89.8074C57.4116 90.5735 58.0315 91.1945 58.7961 91.1945Z" fill="white"/>
<path d="M85.0241 79.7222C85.7245 79.7222 86.2922 79.1534 86.2922 78.4518C86.2922 77.7502 85.7245 77.1815 85.0241 77.1815C84.3238 77.1815 83.756 77.7502 83.756 78.4518C83.756 79.1534 84.3238 79.7222 85.0241 79.7222Z" fill="white"/>
<path d="M69.1088 48.6759C69.7162 48.6759 70.2087 48.1826 70.2087 47.5741C70.2087 46.9655 69.7162 46.4722 69.1088 46.4722C68.5014 46.4722 68.009 46.9655 68.009 47.5741C68.009 48.1826 68.5014 48.6759 69.1088 48.6759Z" fill="white"/>
<path d="M56.5188 63.9074C57.1405 63.9074 57.6445 63.4025 57.6445 62.7796C57.6445 62.1568 57.1405 61.6519 56.5188 61.6519C55.8971 61.6519 55.3931 62.1568 55.3931 62.7796C55.3931 63.4025 55.8971 63.9074 56.5188 63.9074Z" fill="white"/>
<path d="M52.0806 57.6852C52.7881 57.6852 53.3616 57.1106 53.3616 56.4019C53.3616 55.6931 52.7881 55.1185 52.0806 55.1185C51.3731 55.1185 50.7996 55.6931 50.7996 56.4019C50.7996 57.1106 51.3731 57.6852 52.0806 57.6852Z" fill="white"/>
<path d="M62.4192 69.5852C62.8122 69.5852 63.1308 69.266 63.1308 68.8722C63.1308 68.4784 62.8122 68.1592 62.4192 68.1592C62.0261 68.1592 61.7075 68.4784 61.7075 68.8722C61.7075 69.266 62.0261 69.5852 62.4192 69.5852Z" fill="white"/>
<path d="M55.5484 102.122C56.1272 102.122 56.5965 101.652 56.5965 101.072C56.5965 100.492 56.1272 100.022 55.5484 100.022C54.9695 100.022 54.5003 100.492 54.5003 101.072C54.5003 101.652 54.9695 102.122 55.5484 102.122Z" fill="white"/>
<path d="M74.621 67.7704C75.1998 67.7704 75.6691 67.3003 75.6691 66.7204C75.6691 66.1405 75.1998 65.6704 74.621 65.6704C74.0421 65.6704 73.5729 66.1405 73.5729 66.7204C73.5729 67.3003 74.0421 67.7704 74.621 67.7704Z" fill="white"/>
<path d="M86.9392 92.7889C87.3894 92.7889 87.7544 92.4232 87.7544 91.9722C87.7544 91.5212 87.3894 91.1555 86.9392 91.1555C86.489 91.1555 86.124 91.5212 86.124 91.9722C86.124 92.4232 86.489 92.7889 86.9392 92.7889Z" fill="white"/>
<path d="M51.3561 49.8426C51.8206 49.8426 52.1971 49.4654 52.1971 49C52.1971 48.5347 51.8206 48.1574 51.3561 48.1574C50.8916 48.1574 50.515 48.5347 50.515 49C50.515 49.4654 50.8916 49.8426 51.3561 49.8426Z" fill="white"/>
<path d="M52.8182 100.58C53.2112 100.58 53.5298 100.26 53.5298 99.8667C53.5298 99.4729 53.2112 99.1537 52.8182 99.1537C52.4251 99.1537 52.1065 99.4729 52.1065 99.8667C52.1065 100.26 52.4251 100.58 52.8182 100.58Z" fill="white"/>
<path d="M57.9551 66.5C58.5268 66.5 58.9902 66.0357 58.9902 65.463C58.9902 64.8902 58.5268 64.4259 57.9551 64.4259C57.3834 64.4259 56.9199 64.8902 56.9199 65.463C56.9199 66.0357 57.3834 66.5 57.9551 66.5Z" fill="white"/>
<path d="M70.3639 102.641C70.807 102.641 71.1662 102.281 71.1662 101.837C71.1662 101.393 70.807 101.033 70.3639 101.033C69.9209 101.033 69.5617 101.393 69.5617 101.837C69.5617 102.281 69.9209 102.641 70.3639 102.641Z" fill="white"/>
<path d="M59.4043 36.0234C59.8116 36.0234 60.1418 35.6926 60.1418 35.2845C60.1418 34.8764 59.8116 34.5456 59.4043 34.5456C58.997 34.5456 58.6667 34.8764 58.6667 35.2845C58.6667 35.6926 58.997 36.0234 59.4043 36.0234Z" fill="white"/>
<path d="M74.4139 70.7259C74.8141 70.7259 75.1385 70.4009 75.1385 70C75.1385 69.5991 74.8141 69.2741 74.4139 69.2741C74.0137 69.2741 73.6893 69.5991 73.6893 70C73.6893 70.4009 74.0137 70.7259 74.4139 70.7259Z" fill="white"/>
<path d="M55.5354 70.0389C56.1286 70.0389 56.6094 69.5572 56.6094 68.9629C56.6094 68.3687 56.1286 67.887 55.5354 67.887C54.9423 67.887 54.4615 68.3687 54.4615 68.9629C54.4615 69.5572 54.9423 70.0389 55.5354 70.0389Z" fill="white"/>
<path d="M81.2718 62.5592C81.6648 62.5592 81.9835 62.24 81.9835 61.8463C81.9835 61.4525 81.6648 61.1333 81.2718 61.1333C80.8787 61.1333 80.5601 61.4525 80.5601 61.8463C80.5601 62.24 80.8787 62.5592 81.2718 62.5592Z" fill="white"/>
<path d="M90.4458 83.5982C90.9889 83.5982 91.4292 83.1571 91.4292 82.613C91.4292 82.0689 90.9889 81.6278 90.4458 81.6278C89.9027 81.6278 89.4624 82.0689 89.4624 82.613C89.4624 83.1571 89.9027 83.5982 90.4458 83.5982Z" fill="white"/>
<path d="M68.2418 92.0889C68.7135 92.0889 69.0958 91.7058 69.0958 91.2333C69.0958 90.7608 68.7135 90.3778 68.2418 90.3778C67.7702 90.3778 67.3878 90.7608 67.3878 91.2333C67.3878 91.7058 67.7702 92.0889 68.2418 92.0889Z" fill="white"/>
<path d="M76.6525 48.5852C77.217 48.5852 77.6747 48.1267 77.6747 47.5611C77.6747 46.9955 77.217 46.537 76.6525 46.537C76.0879 46.537 75.6302 46.9955 75.6302 47.5611C75.6302 48.1267 76.0879 48.5852 76.6525 48.5852Z" fill="white"/>
<path d="M57.0752 36.2311C57.5754 36.2311 57.981 35.8248 57.981 35.3236C57.981 34.8225 57.5754 34.4162 57.0752 34.4162C56.575 34.4162 56.1694 34.8225 56.1694 35.3236C56.1694 35.8248 56.575 36.2311 57.0752 36.2311Z" fill="white"/>
<path d="M90.5621 76.5074C90.9623 76.5074 91.2867 76.1824 91.2867 75.7815C91.2867 75.3805 90.9623 75.0555 90.5621 75.0555C90.1619 75.0555 89.8375 75.3805 89.8375 75.7815C89.8375 76.1824 90.1619 76.5074 90.5621 76.5074Z" fill="white"/>
<path d="M66.0939 35.8426C66.5513 35.8426 66.922 35.4711 66.922 35.013C66.922 34.5548 66.5513 34.1833 66.0939 34.1833C65.6366 34.1833 65.2658 34.5548 65.2658 35.013C65.2658 35.4711 65.6366 35.8426 66.0939 35.8426Z" fill="white"/>
<path d="M77.8429 100.956C78.3145 100.956 78.6969 100.573 78.6969 100.1C78.6969 99.6275 78.3145 99.2444 77.8429 99.2444C77.3712 99.2444 76.9889 99.6275 76.9889 100.1C76.9889 100.573 77.3712 100.956 77.8429 100.956Z" fill="white"/>
<path d="M66.0681 70.9463C66.4683 70.9463 66.7927 70.6213 66.7927 70.2203C66.7927 69.8194 66.4683 69.4944 66.0681 69.4944C65.6679 69.4944 65.3435 69.8194 65.3435 70.2203C65.3435 70.6213 65.6679 70.9463 66.0681 70.9463Z" fill="white"/>
<path d="M68.9794 93.8C69.401 93.8 69.7428 93.4576 69.7428 93.0352C69.7428 92.6128 69.401 92.2704 68.9794 92.2704C68.5577 92.2704 68.2159 92.6128 68.2159 93.0352C68.2159 93.4576 68.5577 93.8 68.9794 93.8Z" fill="white"/>
<path d="M66.6503 90.987C67.2435 90.987 67.7243 90.5053 67.7243 89.9111C67.7243 89.3169 67.2435 88.8352 66.6503 88.8352C66.0572 88.8352 65.5764 89.3169 65.5764 89.9111C65.5764 90.5053 66.0572 90.987 66.6503 90.987Z" fill="white"/>
<path d="M56.8423 68.1592C57.2353 68.1592 57.5539 67.84 57.5539 67.4463C57.5539 67.0525 57.2353 66.7333 56.8423 66.7333C56.4492 66.7333 56.1306 67.0525 56.1306 67.4463C56.1306 67.84 56.4492 68.1592 56.8423 68.1592Z" fill="white"/>
<path d="M67.8149 46.3296C68.2079 46.3296 68.5265 46.0104 68.5265 45.6167C68.5265 45.2229 68.2079 44.9037 67.8149 44.9037C67.4218 44.9037 67.1032 45.2229 67.1032 45.6167C67.1032 46.0104 67.4218 46.3296 67.8149 46.3296Z" fill="white"/>
<path d="M82.6951 76.5852C83.1095 76.5852 83.4455 76.2486 83.4455 75.8333C83.4455 75.4181 83.1095 75.0815 82.6951 75.0815C82.2806 75.0815 81.9446 75.4181 81.9446 75.8333C81.9446 76.2486 82.2806 76.5852 82.6951 76.5852Z" fill="white"/>
<path d="M63.1697 36.7241C63.6913 36.7241 64.1142 36.3004 64.1142 35.7778C64.1142 35.2551 63.6913 34.8315 63.1697 34.8315C62.648 34.8315 62.2251 35.2551 62.2251 35.7778C62.2251 36.3004 62.648 36.7241 63.1697 36.7241Z" fill="white"/>
<path d="M56.5188 90.0278C56.9976 90.0278 57.3857 89.6389 57.3857 89.1593C57.3857 88.6796 56.9976 88.2907 56.5188 88.2907C56.04 88.2907 55.6519 88.6796 55.6519 89.1593C55.6519 89.6389 56.04 90.0278 56.5188 90.0278Z" fill="white"/>
<path d="M75.889 88.8352C76.3107 88.8352 76.6525 88.4928 76.6525 88.0704C76.6525 87.648 76.3107 87.3055 75.889 87.3055C75.4674 87.3055 75.1256 87.648 75.1256 88.0704C75.1256 88.4928 75.4674 88.8352 75.889 88.8352Z" fill="white"/>
<path d="M52.8311 38.1241C53.2313 38.1241 53.5557 37.7991 53.5557 37.3981C53.5557 36.9972 53.2313 36.6722 52.8311 36.6722C52.4309 36.6722 52.1065 36.9972 52.1065 37.3981C52.1065 37.7991 52.4309 38.1241 52.8311 38.1241Z" fill="white"/>
<path d="M61.2288 90.2352C61.6218 90.2352 61.9404 89.916 61.9404 89.5222C61.9404 89.1285 61.6218 88.8093 61.2288 88.8093C60.8357 88.8093 60.5171 89.1285 60.5171 89.5222C60.5171 89.916 60.8357 90.2352 61.2288 90.2352Z" fill="white"/>
<path d="M63.0661 102.641C63.4592 102.641 63.7778 102.322 63.7778 101.928C63.7778 101.534 63.4592 101.215 63.0661 101.215C62.6731 101.215 62.3545 101.534 62.3545 101.928C62.3545 102.322 62.6731 102.641 63.0661 102.641Z" fill="white"/>
<path d="M74.1551 87.824C74.6625 87.824 75.0738 87.412 75.0738 86.9037C75.0738 86.3954 74.6625 85.9833 74.1551 85.9833C73.6478 85.9833 73.2365 86.3954 73.2365 86.9037C73.2365 87.412 73.6478 87.824 74.1551 87.824Z" fill="white"/>
<path d="M89.3459 72.5148C89.7675 72.5148 90.1093 72.1724 90.1093 71.75C90.1093 71.3275 89.7675 70.9851 89.3459 70.9851C88.9243 70.9851 88.5825 71.3275 88.5825 71.75C88.5825 72.1724 88.9243 72.5148 89.3459 72.5148Z" fill="white"/>
<path d="M60.9311 70.9463C61.3456 70.9463 61.6816 70.6097 61.6816 70.1944C61.6816 69.7792 61.3456 69.4426 60.9311 69.4426C60.5166 69.4426 60.1806 69.7792 60.1806 70.1944C60.1806 70.6097 60.5166 70.9463 60.9311 70.9463Z" fill="white"/>
<path d="M72.7836 71.6333C73.2052 71.6333 73.547 71.2909 73.547 70.8685C73.547 70.4461 73.2052 70.1037 72.7836 70.1037C72.362 70.1037 72.0202 70.4461 72.0202 70.8685C72.0202 71.2909 72.362 71.6333 72.7836 71.6333Z" fill="white"/>
<path d="M82.6175 78.1278C83.0105 78.1278 83.3291 77.8086 83.3291 77.4148C83.3291 77.021 83.0105 76.7018 82.6175 76.7018C82.2244 76.7018 81.9058 77.021 81.9058 77.4148C81.9058 77.8086 82.2244 78.1278 82.6175 78.1278Z" fill="white"/>
<path d="M64.2824 101.902C64.5397 101.902 64.7482 101.693 64.7482 101.435C64.7482 101.177 64.5397 100.969 64.2824 100.969C64.0251 100.969 63.8166 101.177 63.8166 101.435C63.8166 101.693 64.0251 101.902 64.2824 101.902Z" fill="white"/>
<path d="M83.2514 97.1055C83.5087 97.1055 83.7172 96.8966 83.7172 96.6389C83.7172 96.3811 83.5087 96.1722 83.2514 96.1722C82.9941 96.1722 82.7856 96.3811 82.7856 96.6389C82.7856 96.8966 82.9941 97.1055 83.2514 97.1055Z" fill="white"/>
<path d="M87.8449 68.8852C88.1736 68.8852 88.4401 68.6182 88.4401 68.2889C88.4401 67.9596 88.1736 67.6926 87.8449 67.6926C87.5162 67.6926 87.2497 67.9596 87.2497 68.2889C87.2497 68.6182 87.5162 68.8852 87.8449 68.8852Z" fill="white"/>
<path d="M51.7831 60.4074C52.1261 60.4074 52.4042 60.1288 52.4042 59.7852C52.4042 59.4415 52.1261 59.163 51.7831 59.163C51.4401 59.163 51.162 59.4415 51.162 59.7852C51.162 60.1288 51.4401 60.4074 51.7831 60.4074Z" fill="white"/>
<path d="M71.8261 48.2611C72.0834 48.2611 72.2919 48.0522 72.2919 47.7945C72.2919 47.5367 72.0834 47.3278 71.8261 47.3278C71.5688 47.3278 71.3603 47.5367 71.3603 47.7945C71.3603 48.0522 71.5688 48.2611 71.8261 48.2611Z" fill="white"/>
<path d="M76.4454 36.9056C76.7026 36.9056 76.9112 36.6967 76.9112 36.4389C76.9112 36.1812 76.7026 35.9722 76.4454 35.9722C76.1881 35.9722 75.9796 36.1812 75.9796 36.4389C75.9796 36.6967 76.1881 36.9056 76.4454 36.9056Z" fill="white"/>
<path d="M64.8647 90.1185C65.2149 90.1185 65.4988 89.8341 65.4988 89.4833C65.4988 89.1325 65.2149 88.8481 64.8647 88.8481C64.5146 88.8481 64.2307 89.1325 64.2307 89.4833C64.2307 89.8341 64.5146 90.1185 64.8647 90.1185Z" fill="white"/>
<path d="M74.5174 101.319C74.7747 101.319 74.9832 101.11 74.9832 100.852C74.9832 100.594 74.7747 100.385 74.5174 100.385C74.2601 100.385 74.0516 100.594 74.0516 100.852C74.0516 101.11 74.2601 101.319 74.5174 101.319Z" fill="white"/>
<path d="M53.8145 69.4944C54.1004 69.4944 54.3321 69.2623 54.3321 68.9759C54.3321 68.6895 54.1004 68.4574 53.8145 68.4574C53.5287 68.4574 53.2969 68.6895 53.2969 68.9759C53.2969 69.2623 53.5287 69.4944 53.8145 69.4944Z" fill="white"/>
<path d="M78.5545 44.3074C78.8546 44.3074 79.0979 44.0636 79.0979 43.763C79.0979 43.4623 78.8546 43.2185 78.5545 43.2185C78.2544 43.2185 78.011 43.4623 78.011 43.763C78.011 44.0636 78.2544 44.3074 78.5545 44.3074Z" fill="white"/>
<path d="M70.2734 99.6981C70.6378 99.6981 70.9333 99.4021 70.9333 99.037C70.9333 98.6719 70.6378 98.3759 70.2734 98.3759C69.9089 98.3759 69.6135 98.6719 69.6135 99.037C69.6135 99.4021 69.9089 99.6981 70.2734 99.6981Z" fill="white"/>
<path d="M83.9761 76.7926C84.2476 76.7926 84.4678 76.572 84.4678 76.3C84.4678 76.0279 84.2476 75.8074 83.9761 75.8074C83.7045 75.8074 83.4844 76.0279 83.4844 76.3C83.4844 76.572 83.7045 76.7926 83.9761 76.7926Z" fill="white"/>
<path d="M86.0463 93.9815C86.3822 93.9815 86.6545 93.7087 86.6545 93.3722C86.6545 93.0357 86.3822 92.7629 86.0463 92.7629C85.7104 92.7629 85.4382 93.0357 85.4382 93.3722C85.4382 93.7087 85.7104 93.9815 86.0463 93.9815Z" fill="white"/>
<path d="M86.9262 79.8648C87.2836 79.8648 87.5732 79.5746 87.5732 79.2167C87.5732 78.8587 87.2836 78.5685 86.9262 78.5685C86.5689 78.5685 86.2792 78.8587 86.2792 79.2167C86.2792 79.5746 86.5689 79.8648 86.9262 79.8648Z" fill="white"/>
<path d="M66.2104 102.511C66.4891 102.511 66.715 102.285 66.715 102.006C66.715 101.726 66.4891 101.5 66.2104 101.5C65.9317 101.5 65.7057 101.726 65.7057 102.006C65.7057 102.285 65.9317 102.511 66.2104 102.511Z" fill="white"/>
<path d="M70.6356 57.3611C70.8929 57.3611 71.1014 57.1522 71.1014 56.8944C71.1014 56.6367 70.8929 56.4278 70.6356 56.4278C70.3784 56.4278 70.1698 56.6367 70.1698 56.8944C70.1698 57.1522 70.3784 57.3611 70.6356 57.3611Z" fill="white"/>
<path d="M57.1399 69.9481C57.4043 69.9481 57.6187 69.7334 57.6187 69.4685C57.6187 69.2036 57.4043 68.9889 57.1399 68.9889C56.8755 68.9889 56.6612 69.2036 56.6612 69.4685C56.6612 69.7334 56.8755 69.9481 57.1399 69.9481Z" fill="white"/>
<path d="M85.6582 91.8555C85.9155 91.8555 86.124 91.6466 86.124 91.3889C86.124 91.1311 85.9155 90.9222 85.6582 90.9222C85.401 90.9222 85.1924 91.1311 85.1924 91.3889C85.1924 91.6466 85.401 91.8555 85.6582 91.8555Z" fill="white"/>
<path d="M83.3938 35.9592C83.8797 35.9592 84.2737 35.5646 84.2737 35.0777C84.2737 34.5909 83.8797 34.1963 83.3938 34.1963C82.9078 34.1963 82.5139 34.5909 82.5139 35.0777C82.5139 35.5646 82.9078 35.9592 83.3938 35.9592Z" fill="white"/>
<path d="M74.4398 69.1444C74.697 69.1444 74.9056 68.9355 74.9056 68.6778C74.9056 68.42 74.697 68.2111 74.4398 68.2111C74.1825 68.2111 73.9739 68.42 73.9739 68.6778C73.9739 68.9355 74.1825 69.1444 74.4398 69.1444Z" fill="white"/>
<path d="M61.6298 36.0241C61.8871 36.0241 62.0956 35.8151 62.0956 35.5574C62.0956 35.2997 61.8871 35.0907 61.6298 35.0907C61.3726 35.0907 61.164 35.2997 61.164 35.5574C61.164 35.8151 61.3726 36.0241 61.6298 36.0241Z" fill="white"/>
<path d="M69.6522 98.3758C70.0524 98.3758 70.3768 98.0508 70.3768 97.6499C70.3768 97.249 70.0524 96.924 69.6522 96.924C69.252 96.924 68.9276 97.249 68.9276 97.6499C68.9276 98.0508 69.252 98.3758 69.6522 98.3758Z" fill="white"/>
<path d="M70.7392 35.2463C71.0322 35.2463 71.2697 35.0083 71.2697 34.7148C71.2697 34.4213 71.0322 34.1833 70.7392 34.1833C70.4462 34.1833 70.2087 34.4213 70.2087 34.7148C70.2087 35.0083 70.4462 35.2463 70.7392 35.2463Z" fill="white"/>
<path d="M90.6398 85.1537C90.9328 85.1537 91.1703 84.9157 91.1703 84.6222C91.1703 84.3287 90.9328 84.0907 90.6398 84.0907C90.3468 84.0907 90.1093 84.3287 90.1093 84.6222C90.1093 84.9157 90.3468 85.1537 90.6398 85.1537Z" fill="white"/>
<path d="M81.1942 91.4666C81.5443 91.4666 81.8282 91.1823 81.8282 90.8315C81.8282 90.4807 81.5443 90.1963 81.1942 90.1963C80.844 90.1963 80.5601 90.4807 80.5601 90.8315C80.5601 91.1823 80.844 91.4666 81.1942 91.4666Z" fill="white"/>
<path d="M87.6638 37.5148C87.9639 37.5148 88.2072 37.2711 88.2072 36.9704C88.2072 36.6697 87.9639 36.4259 87.6638 36.4259C87.3636 36.4259 87.1203 36.6697 87.1203 36.9704C87.1203 37.2711 87.3636 37.5148 87.6638 37.5148Z" fill="white"/>
<path d="M85.6194 64.9445C85.8909 64.9445 86.1111 64.7239 86.1111 64.4519C86.1111 64.1798 85.8909 63.9593 85.6194 63.9593C85.3478 63.9593 85.1277 64.1798 85.1277 64.4519C85.1277 64.7239 85.3478 64.9445 85.6194 64.9445Z" fill="white"/>
<path d="M67.8278 67.0963C68.1494 67.0963 68.4101 66.8351 68.4101 66.513C68.4101 66.1908 68.1494 65.9296 67.8278 65.9296C67.5062 65.9296 67.2455 66.1908 67.2455 66.513C67.2455 66.8351 67.5062 67.0963 67.8278 67.0963Z" fill="white"/>
<path d="M88.1296 71.5944C88.3869 71.5944 88.5955 71.3855 88.5955 71.1278C88.5955 70.87 88.3869 70.6611 88.1296 70.6611C87.8724 70.6611 87.6638 70.87 87.6638 71.1278C87.6638 71.3855 87.8724 71.5944 88.1296 71.5944Z" fill="white"/>
<path d="M71.5284 99.6592C71.7857 99.6592 71.9943 99.4503 71.9943 99.1926C71.9943 98.9348 71.7857 98.7259 71.5284 98.7259C71.2712 98.7259 71.0626 98.9348 71.0626 99.1926C71.0626 99.4503 71.2712 99.6592 71.5284 99.6592Z" fill="white"/>
<path d="M74.3492 72.2944C74.6922 72.2944 74.9703 72.0159 74.9703 71.6722C74.9703 71.3286 74.6922 71.05 74.3492 71.05C74.0062 71.05 73.7281 71.3286 73.7281 71.6722C73.7281 72.0159 74.0062 72.2944 74.3492 72.2944Z" fill="white"/>
<path d="M52.8312 50.8667C53.1027 50.8667 53.3229 50.6461 53.3229 50.3741C53.3229 50.102 53.1027 49.8815 52.8312 49.8815C52.5596 49.8815 52.3395 50.102 52.3395 50.3741C52.3395 50.6461 52.5596 50.8667 52.8312 50.8667Z" fill="white"/>
<path d="M85.3088 94.837C85.5732 94.837 85.7875 94.6223 85.7875 94.3574C85.7875 94.0925 85.5732 93.8778 85.3088 93.8778C85.0444 93.8778 84.8301 94.0925 84.8301 94.3574C84.8301 94.6223 85.0444 94.837 85.3088 94.837Z" fill="white"/>
<path d="M77.4935 46.3555C77.8222 46.3555 78.0887 46.0886 78.0887 45.7592C78.0887 45.4299 77.8222 45.1629 77.4935 45.1629C77.1647 45.1629 76.8983 45.4299 76.8983 45.7592C76.8983 46.0886 77.1647 46.3555 77.4935 46.3555Z" fill="white"/>
<path d="M58.2139 92.1796C58.4711 92.1796 58.6797 91.9707 58.6797 91.7129C58.6797 91.4552 58.4711 91.2463 58.2139 91.2463C57.9566 91.2463 57.748 91.4552 57.748 91.7129C57.748 91.9707 57.9566 92.1796 58.2139 92.1796Z" fill="white"/>
<path d="M73.1588 66.15C73.4232 66.15 73.6376 65.9353 73.6376 65.6704C73.6376 65.4055 73.4232 65.1907 73.1588 65.1907C72.8944 65.1907 72.6801 65.4055 72.6801 65.6704C72.6801 65.9353 72.8944 66.15 73.1588 66.15Z" fill="white"/>
<path d="M76.4712 35.7381C76.7785 35.7381 77.0276 35.4885 77.0276 35.1807C77.0276 34.8728 76.7785 34.6233 76.4712 34.6233C76.164 34.6233 75.9149 34.8728 75.9149 35.1807C75.9149 35.4885 76.164 35.7381 76.4712 35.7381Z" fill="white"/>
<path d="M71.7743 65.1C72.0316 65.1 72.2401 64.8911 72.2401 64.6333C72.2401 64.3756 72.0316 64.1667 71.7743 64.1667C71.517 64.1667 71.3085 64.3756 71.3085 64.6333C71.3085 64.8911 71.517 65.1 71.7743 65.1Z" fill="white"/>
<path d="M80.3013 99.1796C80.6944 99.1796 81.013 98.8604 81.013 98.4667C81.013 98.0729 80.6944 97.7537 80.3013 97.7537C79.9083 97.7537 79.5897 98.0729 79.5897 98.4667C79.5897 98.8604 79.9083 99.1796 80.3013 99.1796Z" fill="white"/>
<path d="M76.2772 67.1481C76.5345 67.1481 76.743 66.9392 76.743 66.6815C76.743 66.4238 76.5345 66.2148 76.2772 66.2148C76.0199 66.2148 75.8114 66.4238 75.8114 66.6815C75.8114 66.9392 76.0199 67.1481 76.2772 67.1481Z" fill="white"/>
<path d="M69.3158 96.7167C69.6374 96.7167 69.8981 96.4555 69.8981 96.1333C69.8981 95.8112 69.6374 95.55 69.3158 95.55C68.9942 95.55 68.7335 95.8112 68.7335 96.1333C68.7335 96.4555 68.9942 96.7167 69.3158 96.7167Z" fill="white"/>
<path d="M71.7872 35.8037C72.0731 35.8037 72.3048 35.5715 72.3048 35.2852C72.3048 34.9988 72.0731 34.7667 71.7872 34.7667C71.5014 34.7667 71.2697 34.9988 71.2697 35.2852C71.2697 35.5715 71.5014 35.8037 71.7872 35.8037Z" fill="white"/>
<path d="M67.0126 49C67.277 49 67.4914 48.7853 67.4914 48.5204C67.4914 48.2555 67.277 48.0407 67.0126 48.0407C66.7482 48.0407 66.5339 48.2555 66.5339 48.5204C66.5339 48.7853 66.7482 49 67.0126 49Z" fill="white"/>
<path d="M76.3937 101.461C76.7438 101.461 77.0277 101.177 77.0277 100.826C77.0277 100.475 76.7438 100.191 76.3937 100.191C76.0435 100.191 75.7596 100.475 75.7596 100.826C75.7596 101.177 76.0435 101.461 76.3937 101.461Z" fill="white"/>
<path d="M66.9997 40.4574C67.2569 40.4574 67.4655 40.2485 67.4655 39.9907C67.4655 39.733 67.2569 39.524 66.9997 39.524C66.7424 39.524 66.5339 39.733 66.5339 39.9907C66.5339 40.2485 66.7424 40.4574 66.9997 40.4574Z" fill="white"/>
<path d="M73.5858 49.1556C74.0217 49.1556 74.3751 48.8015 74.3751 48.3648C74.3751 47.9281 74.0217 47.5741 73.5858 47.5741C73.1499 47.5741 72.7965 47.9281 72.7965 48.3648C72.7965 48.8015 73.1499 49.1556 73.5858 49.1556Z" fill="white"/>
<path d="M88.5178 70.5963C88.7394 70.5963 88.9189 70.4164 88.9189 70.1945C88.9189 69.9725 88.7394 69.7926 88.5178 69.7926C88.2963 69.7926 88.1167 69.9725 88.1167 70.1945C88.1167 70.4164 88.2963 70.5963 88.5178 70.5963Z" fill="white"/>
<path d="M81.44 98.5704C81.6115 98.5704 81.7505 98.4311 81.7505 98.2593C81.7505 98.0874 81.6115 97.9482 81.44 97.9482C81.2685 97.9482 81.1295 98.0874 81.1295 98.2593C81.1295 98.4311 81.2685 98.5704 81.44 98.5704Z" fill="white"/>
<path d="M81.0258 97.8704C81.2045 97.8704 81.3493 97.7253 81.3493 97.5463C81.3493 97.3673 81.2045 97.2222 81.0258 97.2222C80.8472 97.2222 80.7023 97.3673 80.7023 97.5463C80.7023 97.7253 80.8472 97.8704 81.0258 97.8704Z" fill="white"/>
<path d="M51.4597 39.213C51.6526 39.213 51.809 39.0563 51.809 38.863C51.809 38.6697 51.6526 38.513 51.4597 38.513C51.2667 38.513 51.1103 38.6697 51.1103 38.863C51.1103 39.0563 51.2667 39.213 51.4597 39.213Z" fill="white"/>
<path d="M81.66 49.1555C81.8458 49.1555 81.9964 49.0047 81.9964 48.8185C81.9964 48.6324 81.8458 48.4815 81.66 48.4815C81.4742 48.4815 81.3235 48.6324 81.3235 48.8185C81.3235 49.0047 81.4742 49.1555 81.66 49.1555Z" fill="white"/>
<path d="M51.6796 58.3981C51.8511 58.3981 51.9901 58.2588 51.9901 58.087C51.9901 57.9152 51.8511 57.7759 51.6796 57.7759C51.5081 57.7759 51.369 57.9152 51.369 58.087C51.369 58.2588 51.5081 58.3981 51.6796 58.3981Z" fill="white"/>
<path d="M81.7894 60.8741C81.9752 60.8741 82.1258 60.7232 82.1258 60.537C82.1258 60.3509 81.9752 60.2 81.7894 60.2C81.6035 60.2 81.4529 60.3509 81.4529 60.537C81.4529 60.7232 81.6035 60.8741 81.7894 60.8741Z" fill="white"/>
<path d="M82.8116 48.8055C83.2046 48.8055 83.5232 48.4863 83.5232 48.0926C83.5232 47.6988 83.2046 47.3796 82.8116 47.3796C82.4185 47.3796 82.0999 47.6988 82.0999 48.0926C82.0999 48.4863 82.4185 48.8055 82.8116 48.8055Z" fill="white"/>
<path d="M64.58 35.713C64.8158 35.713 65.007 35.5215 65.007 35.2852C65.007 35.0489 64.8158 34.8574 64.58 34.8574C64.3442 34.8574 64.153 35.0489 64.153 35.2852C64.153 35.5215 64.3442 35.713 64.58 35.713Z" fill="white"/>
<path d="M82.0351 80.2278C82.3782 80.2278 82.6562 79.9492 82.6562 79.6055C82.6562 79.2619 82.3782 78.9833 82.0351 78.9833C81.6921 78.9833 81.4141 79.2619 81.4141 79.6055C81.4141 79.9492 81.6921 80.2278 82.0351 80.2278Z" fill="white"/>
<path d="M51.7313 97.0537C51.9028 97.0537 52.0419 96.9144 52.0419 96.7426C52.0419 96.5708 51.9028 96.4315 51.7313 96.4315C51.5598 96.4315 51.4208 96.5708 51.4208 96.7426C51.4208 96.9144 51.5598 97.0537 51.7313 97.0537Z" fill="white"/>
<path d="M54.358 55.8704C54.5295 55.8704 54.6685 55.7311 54.6685 55.5592C54.6685 55.3874 54.5295 55.2481 54.358 55.2481C54.1865 55.2481 54.0474 55.3874 54.0474 55.5592C54.0474 55.7311 54.1865 55.8704 54.358 55.8704Z" fill="white"/>
<path d="M68.1124 70.9463C68.2982 70.9463 68.4488 70.7954 68.4488 70.6092C68.4488 70.4231 68.2982 70.2722 68.1124 70.2722C67.9266 70.2722 67.776 70.4231 67.776 70.6092C67.776 70.7954 67.9266 70.9463 68.1124 70.9463Z" fill="white"/>
<path d="M88.2978 91.2463C88.6837 91.2463 88.9966 90.9329 88.9966 90.5463C88.9966 90.1597 88.6837 89.8463 88.2978 89.8463C87.912 89.8463 87.5991 90.1597 87.5991 90.5463C87.5991 90.9329 87.912 91.2463 88.2978 91.2463Z" fill="white"/>
<path d="M87.0297 72.6704C87.2012 72.6704 87.3403 72.5311 87.3403 72.3593C87.3403 72.1874 87.2012 72.0481 87.0297 72.0481C86.8582 72.0481 86.7192 72.1874 86.7192 72.3593C86.7192 72.5311 86.8582 72.6704 87.0297 72.6704Z" fill="white"/>
<path d="M89.2553 39.0315C89.5483 39.0315 89.7858 38.7935 89.7858 38.5C89.7858 38.2065 89.5483 37.9685 89.2553 37.9685C88.9623 37.9685 88.7248 38.2065 88.7248 38.5C88.7248 38.7935 88.9623 39.0315 89.2553 39.0315Z" fill="white"/>
<path d="M63.9719 56.4926C64.1434 56.4926 64.2825 56.3533 64.2825 56.1815C64.2825 56.0096 64.1434 55.8704 63.9719 55.8704C63.8004 55.8704 63.6614 56.0096 63.6614 56.1815C63.6614 56.3533 63.8004 56.4926 63.9719 56.4926Z" fill="white"/>
<path d="M58.395 59.1759C58.7881 59.1759 59.1067 58.8567 59.1067 58.463C59.1067 58.0692 58.7881 57.75 58.395 57.75C58.002 57.75 57.6833 58.0692 57.6833 58.463C57.6833 58.8567 58.002 59.1759 58.395 59.1759Z" fill="white"/>
<path d="M82.6045 91.0389C82.776 91.0389 82.915 90.8996 82.915 90.7278C82.915 90.5559 82.776 90.4167 82.6045 90.4167C82.433 90.4167 82.294 90.5559 82.294 90.7278C82.294 90.8996 82.433 91.0389 82.6045 91.0389Z" fill="white"/>
<path d="M84.9853 95.9C85.2068 95.9 85.3864 95.7201 85.3864 95.4981C85.3864 95.2762 85.2068 95.0963 84.9853 95.0963C84.7638 95.0963 84.5842 95.2762 84.5842 95.4981C84.5842 95.7201 84.7638 95.9 84.9853 95.9Z" fill="white"/>
<path d="M67.6984 88.9259C67.92 88.9259 68.0995 88.746 68.0995 88.5241C68.0995 88.3021 67.92 88.1222 67.6984 88.1222C67.4769 88.1222 67.2973 88.3021 67.2973 88.5241C67.2973 88.746 67.4769 88.9259 67.6984 88.9259Z" fill="white"/>
<path d="M52.4171 93.8778C52.6243 93.8778 52.7923 93.7095 52.7923 93.5018C52.7923 93.2942 52.6243 93.1259 52.4171 93.1259C52.2098 93.1259 52.0418 93.2942 52.0418 93.5018C52.0418 93.7095 52.2098 93.8778 52.4171 93.8778Z" fill="white"/>
<path d="M89.8376 78.2444C90.1377 78.2444 90.381 78.0007 90.381 77.7C90.381 77.3993 90.1377 77.1555 89.8376 77.1555C89.5374 77.1555 89.2941 77.3993 89.2941 77.7C89.2941 78.0007 89.5374 78.2444 89.8376 78.2444Z" fill="white"/>
<path d="M83.5879 95.6926C83.9024 95.6926 84.1573 95.4372 84.1573 95.1222C84.1573 94.8072 83.9024 94.5518 83.5879 94.5518C83.2735 94.5518 83.0186 94.8072 83.0186 95.1222C83.0186 95.4372 83.2735 95.6926 83.5879 95.6926Z" fill="white"/>
<path d="M88.0132 47.1204C88.2348 47.1204 88.4144 46.9404 88.4144 46.7185C88.4144 46.4966 88.2348 46.3167 88.0132 46.3167C87.7917 46.3167 87.6121 46.4966 87.6121 46.7185C87.6121 46.9404 87.7917 47.1204 88.0132 47.1204Z" fill="white"/>
<path d="M77.8817 48.663C78.0532 48.663 78.1922 48.5237 78.1922 48.3519C78.1922 48.18 78.0532 48.0407 77.8817 48.0407C77.7102 48.0407 77.5712 48.18 77.5712 48.3519C77.5712 48.5237 77.7102 48.663 77.8817 48.663Z" fill="white"/>
<path d="M80.2107 60.2C80.4751 60.2 80.6895 59.9852 80.6895 59.7203C80.6895 59.4555 80.4751 59.2407 80.2107 59.2407C79.9463 59.2407 79.7319 59.4555 79.7319 59.7203C79.7319 59.9852 79.9463 60.2 80.2107 60.2Z" fill="white"/>
<path d="M84.7136 64.5037C84.8851 64.5037 85.0242 64.3644 85.0242 64.1926C85.0242 64.0208 84.8851 63.8815 84.7136 63.8815C84.5421 63.8815 84.403 64.0208 84.403 64.1926C84.403 64.3644 84.5421 64.5037 84.7136 64.5037Z" fill="white"/>
<path d="M56.8035 102.939C57.1322 102.939 57.3987 102.672 57.3987 102.343C57.3987 102.013 57.1322 101.746 56.8035 101.746C56.4748 101.746 56.2083 102.013 56.2083 102.343C56.2083 102.672 56.4748 102.939 56.8035 102.939Z" fill="white"/>
<path d="M69.277 95.4204C69.4699 95.4204 69.6263 95.2637 69.6263 95.0704C69.6263 94.8771 69.4699 94.7204 69.277 94.7204C69.084 94.7204 68.9276 94.8771 68.9276 95.0704C68.9276 95.2637 69.084 95.4204 69.277 95.4204Z" fill="white"/>
<path d="M84.623 35.9463C84.8017 35.9463 84.9465 35.8012 84.9465 35.6222C84.9465 35.4432 84.8017 35.2981 84.623 35.2981C84.4444 35.2981 84.2996 35.4432 84.2996 35.6222C84.2996 35.8012 84.4444 35.9463 84.623 35.9463Z" fill="white"/>
<path d="M69.0441 66.3704C69.2156 66.3704 69.3546 66.2311 69.3546 66.0592C69.3546 65.8874 69.2156 65.7481 69.0441 65.7481C68.8725 65.7481 68.7335 65.8874 68.7335 66.0592C68.7335 66.2311 68.8725 66.3704 69.0441 66.3704Z" fill="white"/>
<path d="M57.7481 57.8148C57.9553 57.8148 58.1233 57.6465 58.1233 57.4389C58.1233 57.2313 57.9553 57.063 57.7481 57.063C57.5409 57.063 57.3729 57.2313 57.3729 57.4389C57.3729 57.6465 57.5409 57.8148 57.7481 57.8148Z" fill="white"/>
<path d="M51.6537 92.6204C51.8466 92.6204 52.0031 92.4637 52.0031 92.2704C52.0031 92.0771 51.8466 91.9203 51.6537 91.9203C51.4607 91.9203 51.3043 92.0771 51.3043 92.2704C51.3043 92.4637 51.4607 92.6204 51.6537 92.6204Z" fill="white"/>
<path d="M54.785 37.1518C54.9779 37.1518 55.1343 36.9951 55.1343 36.8018C55.1343 36.6085 54.9779 36.4518 54.785 36.4518C54.592 36.4518 54.4356 36.6085 54.4356 36.8018C54.4356 36.9951 54.592 37.1518 54.785 37.1518Z" fill="white"/>
<path d="M63.3119 88.8222C63.5263 88.8222 63.7001 88.6481 63.7001 88.4333C63.7001 88.2185 63.5263 88.0444 63.3119 88.0444C63.0976 88.0444 62.9238 88.2185 62.9238 88.4333C62.9238 88.6481 63.0976 88.8222 63.3119 88.8222Z" fill="white"/>
<path d="M54.7979 89.6518C55.0551 89.6518 55.2637 89.4429 55.2637 89.1852C55.2637 88.9274 55.0551 88.7185 54.7979 88.7185C54.5406 88.7185 54.3321 88.9274 54.3321 89.1852C54.3321 89.4429 54.5406 89.6518 54.7979 89.6518Z" fill="white"/>
<path d="M80.1848 63.1556C80.4207 63.1556 80.6119 62.964 80.6119 62.7278C80.6119 62.4915 80.4207 62.3 80.1848 62.3C79.949 62.3 79.7578 62.4915 79.7578 62.7278C79.7578 62.964 79.949 63.1556 80.1848 63.1556Z" fill="white"/>
<path d="M57.6964 61.3667C57.9465 61.3667 58.1492 61.1635 58.1492 60.913C58.1492 60.6624 57.9465 60.4593 57.6964 60.4593C57.4462 60.4593 57.2435 60.6624 57.2435 60.913C57.2435 61.1635 57.4462 61.3667 57.6964 61.3667Z" fill="white"/>
<path d="M78.7874 84.337C78.9732 84.337 79.1238 84.1861 79.1238 84C79.1238 83.8139 78.9732 83.663 78.7874 83.663C78.6016 83.663 78.4509 83.8139 78.4509 84C78.4509 84.1861 78.6016 84.337 78.7874 84.337Z" fill="white"/>
<path d="M87.0686 90.8963C87.2758 90.8963 87.4438 90.728 87.4438 90.5204C87.4438 90.3127 87.2758 90.1444 87.0686 90.1444C86.8614 90.1444 86.6934 90.3127 86.6934 90.5204C86.6934 90.728 86.8614 90.8963 87.0686 90.8963Z" fill="white"/>
<path d="M51.809 99.4648C52.0948 99.4648 52.3266 99.2327 52.3266 98.9463C52.3266 98.6599 52.0948 98.4278 51.809 98.4278C51.5231 98.4278 51.2914 98.6599 51.2914 98.9463C51.2914 99.2327 51.5231 99.4648 51.809 99.4648Z" fill="white"/>
<path d="M58.8091 70.8685C59.052 70.8685 59.249 70.6712 59.249 70.4278C59.249 70.1844 59.052 69.987 58.8091 69.987C58.5661 69.987 58.3691 70.1844 58.3691 70.4278C58.3691 70.6712 58.5661 70.8685 58.8091 70.8685Z" fill="white"/>
<path d="M69.1218 65.6185C69.3147 65.6185 69.4711 65.4618 69.4711 65.2685C69.4711 65.0752 69.3147 64.9185 69.1218 64.9185C68.9288 64.9185 68.7724 65.0752 68.7724 65.2685C68.7724 65.4618 68.9288 65.6185 69.1218 65.6185Z" fill="white"/>
<path d="M84.3643 48.3C84.5643 48.3 84.7265 48.1375 84.7265 47.937C84.7265 47.7366 84.5643 47.5741 84.3643 47.5741C84.1642 47.5741 84.002 47.7366 84.002 47.937C84.002 48.1375 84.1642 48.3 84.3643 48.3Z" fill="white"/>
<path d="M80.4825 90.0537C80.7254 90.0537 80.9224 89.8564 80.9224 89.6129C80.9224 89.3695 80.7254 89.1722 80.4825 89.1722C80.2395 89.1722 80.0425 89.3695 80.0425 89.6129C80.0425 89.8564 80.2395 90.0537 80.4825 90.0537Z" fill="white"/>
<path d="M85.6064 92.724C85.7779 92.724 85.9169 92.5847 85.9169 92.4129C85.9169 92.2411 85.7779 92.1018 85.6064 92.1018C85.4349 92.1018 85.2958 92.2411 85.2958 92.4129C85.2958 92.5847 85.4349 92.724 85.6064 92.724Z" fill="white"/>
<path d="M70.3639 71.2185C70.5425 71.2185 70.6874 71.0734 70.6874 70.8945C70.6874 70.7155 70.5425 70.5704 70.3639 70.5704C70.1852 70.5704 70.0404 70.7155 70.0404 70.8945C70.0404 71.0734 70.1852 71.2185 70.3639 71.2185Z" fill="white"/>
<path d="M76.2254 58.2167C76.4684 58.2167 76.6653 58.0194 76.6653 57.7759C76.6653 57.5325 76.4684 57.3352 76.2254 57.3352C75.9824 57.3352 75.7855 57.5325 75.7855 57.7759C75.7855 58.0194 75.9824 58.2167 76.2254 58.2167Z" fill="white"/>
<path d="M83.6137 91.3889C83.7852 91.3889 83.9243 91.2496 83.9243 91.0778C83.9243 90.9059 83.7852 90.7667 83.6137 90.7667C83.4423 90.7667 83.3032 90.9059 83.3032 91.0778C83.3032 91.2496 83.4423 91.3889 83.6137 91.3889Z" fill="white"/>
<path d="M77.144 88.0055C77.3156 88.0055 77.4546 87.8662 77.4546 87.6944C77.4546 87.5226 77.3156 87.3833 77.144 87.3833C76.9725 87.3833 76.8335 87.5226 76.8335 87.6944C76.8335 87.8662 76.9725 88.0055 77.144 88.0055Z" fill="white"/>
<path d="M57.7092 102.019C57.9522 102.019 58.1491 101.821 58.1491 101.578C58.1491 101.334 57.9522 101.137 57.7092 101.137C57.4662 101.137 57.2693 101.334 57.2693 101.578C57.2693 101.821 57.4662 102.019 57.7092 102.019Z" fill="white"/>
<path d="M68.2289 68.1204C68.4004 68.1204 68.5395 67.9811 68.5395 67.8092C68.5395 67.6374 68.4004 67.4981 68.2289 67.4981C68.0574 67.4981 67.9184 67.6374 67.9184 67.8092C67.9184 67.9811 68.0574 68.1204 68.2289 68.1204Z" fill="white"/>
<path d="M75.5784 70.4926C75.7499 70.4926 75.889 70.3533 75.889 70.1815C75.889 70.0097 75.7499 69.8704 75.5784 69.8704C75.4069 69.8704 75.2679 70.0097 75.2679 70.1815C75.2679 70.3533 75.4069 70.4926 75.5784 70.4926Z" fill="white"/>
<path d="M71.3602 49.1426C71.596 49.1426 71.7872 48.951 71.7872 48.7148C71.7872 48.4785 71.596 48.287 71.3602 48.287C71.1244 48.287 70.9332 48.4785 70.9332 48.7148C70.9332 48.951 71.1244 49.1426 71.3602 49.1426Z" fill="white"/>
<path d="M84.3124 75.1592C84.5554 75.1592 84.7524 74.9619 84.7524 74.7185C84.7524 74.4751 84.5554 74.2778 84.3124 74.2778C84.0695 74.2778 83.8725 74.4751 83.8725 74.7185C83.8725 74.9619 84.0695 75.1592 84.3124 75.1592Z" fill="white"/>
<path d="M54.3321 100.502C54.5036 100.502 54.6427 100.363 54.6427 100.191C54.6427 100.019 54.5036 99.8796 54.3321 99.8796C54.1606 99.8796 54.0216 100.019 54.0216 100.191C54.0216 100.363 54.1606 100.502 54.3321 100.502Z" fill="white"/>
<path d="M62.5874 34.8185C62.7589 34.8185 62.8979 34.6792 62.8979 34.5074C62.8979 34.3355 62.7589 34.1963 62.5874 34.1963C62.4158 34.1963 62.2768 34.3355 62.2768 34.5074C62.2768 34.6792 62.4158 34.8185 62.5874 34.8185Z" fill="white"/>
<path d="M58.5632 102.304C58.7633 102.304 58.9255 102.141 58.9255 101.941C58.9255 101.74 58.7633 101.578 58.5632 101.578C58.3631 101.578 58.2009 101.74 58.2009 101.941C58.2009 102.141 58.3631 102.304 58.5632 102.304Z" fill="white"/>
<path d="M64.7612 36.4648C64.9399 36.4648 65.0847 36.3197 65.0847 36.1407C65.0847 35.9617 64.9399 35.8167 64.7612 35.8167C64.5826 35.8167 64.4377 35.9617 64.4377 36.1407C64.4377 36.3197 64.5826 36.4648 64.7612 36.4648Z" fill="white"/>
<path d="M69.5617 91.363C69.7546 91.363 69.9111 91.2063 69.9111 91.013C69.9111 90.8197 69.7546 90.663 69.5617 90.663C69.3688 90.663 69.2123 90.8197 69.2123 91.013C69.2123 91.2063 69.3688 91.363 69.5617 91.363Z" fill="white"/>
<path d="M54.7591 62.1315C54.9306 62.1315 55.0696 61.9922 55.0696 61.8204C55.0696 61.6486 54.9306 61.5093 54.7591 61.5093C54.5876 61.5093 54.4485 61.6486 54.4485 61.8204C54.4485 61.9922 54.5876 62.1315 54.7591 62.1315Z" fill="white"/>
<path d="M52.2488 92.063C52.4204 92.063 52.5594 91.9237 52.5594 91.7518C52.5594 91.58 52.4204 91.4407 52.2488 91.4407C52.0773 91.4407 51.9383 91.58 51.9383 91.7518C51.9383 91.9237 52.0773 92.063 52.2488 92.063Z" fill="white"/>
<path d="M64.8 70.9333C64.9716 70.9333 65.1106 70.7941 65.1106 70.6222C65.1106 70.4504 64.9716 70.3111 64.8 70.3111C64.6285 70.3111 64.4895 70.4504 64.4895 70.6222C64.4895 70.7941 64.6285 70.9333 64.8 70.9333Z" fill="white"/>
<path d="M67.9442 48.9092C68.1157 48.9092 68.2548 48.77 68.2548 48.5981C68.2548 48.4263 68.1157 48.287 67.9442 48.287C67.7727 48.287 67.6337 48.4263 67.6337 48.5981C67.6337 48.77 67.7727 48.9092 67.9442 48.9092Z" fill="white"/>
<path d="M71.3991 62.1963C71.5706 62.1963 71.7096 62.057 71.7096 61.8852C71.7096 61.7134 71.5706 61.5741 71.3991 61.5741C71.2276 61.5741 71.0886 61.7134 71.0886 61.8852C71.0886 62.057 71.2276 62.1963 71.3991 62.1963Z" fill="white"/>
<path d="M58.5374 55.6241C59.4021 55.6241 60.1031 54.9218 60.1031 54.0555C60.1031 53.1893 59.4021 52.487 58.5374 52.487C57.6727 52.487 56.9717 53.1893 56.9717 54.0555C56.9717 54.9218 57.6727 55.6241 58.5374 55.6241Z" fill="white"/>
<path d="M56.273 56.5963C56.7018 56.5963 57.0494 56.2481 57.0494 55.8185C57.0494 55.389 56.7018 55.0407 56.273 55.0407C55.8442 55.0407 55.4966 55.389 55.4966 55.8185C55.4966 56.2481 55.8442 56.5963 56.273 56.5963Z" fill="white"/>
<path d="M59.9607 57.2055C60.3609 57.2055 60.6853 56.8805 60.6853 56.4796C60.6853 56.0787 60.3609 55.7537 59.9607 55.7537C59.5605 55.7537 59.2361 56.0787 59.2361 56.4796C59.2361 56.8805 59.5605 57.2055 59.9607 57.2055Z" fill="white"/>
<path d="M56.5188 53.2C56.9762 53.2 57.3469 52.8286 57.3469 52.3704C57.3469 51.9122 56.9762 51.5407 56.5188 51.5407C56.0615 51.5407 55.6907 51.9122 55.6907 52.3704C55.6907 52.8286 56.0615 53.2 56.5188 53.2Z" fill="white"/>
<path d="M56.3248 54.9629C56.5463 54.9629 56.7259 54.783 56.7259 54.5611C56.7259 54.3392 56.5463 54.1592 56.3248 54.1592C56.1032 54.1592 55.9236 54.3392 55.9236 54.5611C55.9236 54.783 56.1032 54.9629 56.3248 54.9629Z" fill="white"/>
<path d="M56.2601 53.6659C56.3744 53.6659 56.4671 53.5732 56.4671 53.4589C56.4671 53.3445 56.3744 53.2518 56.2601 53.2518C56.1457 53.2518 56.053 53.3445 56.053 53.4589C56.053 53.5732 56.1457 53.6659 56.2601 53.6659Z" fill="white"/>
<path d="M57.9939 52.0326C58.1082 52.0326 58.2009 51.9399 58.2009 51.8256C58.2009 51.7112 58.1082 51.6185 57.9939 51.6185C57.8796 51.6185 57.7869 51.7112 57.7869 51.8256C57.7869 51.9399 57.8796 52.0326 57.9939 52.0326Z" fill="white"/>
<path d="M60.6077 54.1592C60.8578 54.1592 61.0605 53.9561 61.0605 53.7055C61.0605 53.455 60.8578 53.2518 60.6077 53.2518C60.3575 53.2518 60.1548 53.455 60.1548 53.7055C60.1548 53.9561 60.3575 54.1592 60.6077 54.1592Z" fill="white"/>
<path d="M60.2583 52.4731C60.3941 52.4731 60.5042 52.3631 60.5042 52.2273C60.5042 52.0915 60.3941 51.9814 60.2583 51.9814C60.1225 51.9814 60.0125 52.0915 60.0125 52.2273C60.0125 52.3631 60.1225 52.4731 60.2583 52.4731Z" fill="white"/>
<path d="M61.4746 56.5833C61.639 56.5833 61.7722 56.4498 61.7722 56.2852C61.7722 56.1205 61.639 55.987 61.4746 55.987C61.3102 55.987 61.177 56.1205 61.177 56.2852C61.177 56.4498 61.3102 56.5833 61.4746 56.5833Z" fill="white"/>
<path d="M58.2527 56.09C58.367 56.09 58.4597 55.9973 58.4597 55.8829C58.4597 55.7686 58.367 55.6759 58.2527 55.6759C58.1383 55.6759 58.0457 55.7686 58.0457 55.8829C58.0457 55.9973 58.1383 56.09 58.2527 56.09Z" fill="white"/>
<path d="M53.8403 52.0592C54.0119 52.0592 54.1509 51.92 54.1509 51.7481C54.1509 51.5763 54.0119 51.437 53.8403 51.437C53.6688 51.437 53.5298 51.5763 53.5298 51.7481C53.5298 51.92 53.6688 52.0592 53.8403 52.0592Z" fill="white"/>
<path d="M51.4984 53.3426C51.9272 53.3426 52.2748 52.9943 52.2748 52.5648C52.2748 52.1352 51.9272 51.787 51.4984 51.787C51.0696 51.787 50.722 52.1352 50.722 52.5648C50.722 52.9943 51.0696 53.3426 51.4984 53.3426Z" fill="white"/>
<path d="M54.6814 54.7296C55.1388 54.7296 55.5096 54.3582 55.5096 53.9C55.5096 53.4418 55.1388 53.0704 54.6814 53.0704C54.2241 53.0704 53.8533 53.4418 53.8533 53.9C53.8533 54.3582 54.2241 54.7296 54.6814 54.7296Z" fill="white"/>
<path d="M52.5335 53.4074C52.3265 53.3426 52.21 53.1092 52.2877 52.9018C52.3524 52.6944 52.5853 52.5778 52.7923 52.6556C52.9994 52.7333 53.1158 52.9537 53.0382 53.1611C52.9735 53.3555 52.7535 53.4722 52.5335 53.4074Z" fill="white"/>
<path d="M53.7368 53.5103C53.8512 53.5103 53.9439 53.4177 53.9439 53.3033C53.9439 53.189 53.8512 53.0963 53.7368 53.0963C53.6225 53.0963 53.5298 53.189 53.5298 53.3033C53.5298 53.4177 53.6225 53.5103 53.7368 53.5103Z" fill="white"/>
<path d="M100.021 71.9052V76.0663H97.42V64.8404H101.069C101.884 64.8404 102.57 64.9182 103.139 65.0867C103.709 65.2552 104.174 65.4886 104.537 65.7867C104.899 66.0849 105.158 66.4349 105.326 66.8367C105.494 67.2386 105.572 67.6793 105.572 68.1589C105.572 68.5219 105.52 68.8719 105.429 69.196C105.326 69.52 105.184 69.8182 104.99 70.0904C104.795 70.3626 104.563 70.6089 104.278 70.8293C103.993 71.0497 103.683 71.2182 103.307 71.3608C103.476 71.4515 103.644 71.5552 103.799 71.6848C103.954 71.8145 104.084 71.97 104.2 72.1515L106.581 76.0663H104.226C103.786 76.0663 103.476 75.8978 103.282 75.5737L101.444 72.3071C101.367 72.1645 101.263 72.0608 101.16 71.996C101.043 71.9311 100.888 71.9052 100.694 71.9052H100.021ZM100.021 70.1163H101.069C101.418 70.1163 101.729 70.0774 101.975 69.9867C102.221 69.896 102.428 69.7663 102.583 69.6108C102.738 69.4552 102.855 69.2608 102.932 69.0534C103.01 68.846 103.036 68.6126 103.036 68.3663C103.036 67.8737 102.88 67.4849 102.557 67.2126C102.233 66.9404 101.742 66.7978 101.069 66.7978H100.021V70.1163Z" fill="#124983"/>
<path d="M114.875 64.8404V66.8497H110.269V69.4682H113.788V71.3997H110.269V74.07H114.875V76.0793H107.655V64.8534H114.875V64.8404Z" fill="#124983"/>
<path d="M122.6 67.1222C122.522 67.2518 122.445 67.3426 122.354 67.3944C122.264 67.4593 122.16 67.4852 122.031 67.4852C121.914 67.4852 121.785 67.4463 121.655 67.3685C121.513 67.2907 121.371 67.213 121.19 67.1222C121.021 67.0315 120.827 66.9407 120.607 66.8759C120.387 66.7981 120.141 66.7593 119.857 66.7593C119.365 66.7593 119.003 66.863 118.77 67.0704C118.537 67.2778 118.408 67.563 118.408 67.913C118.408 68.1333 118.485 68.3278 118.628 68.4704C118.77 68.6259 118.964 68.7426 119.197 68.8593C119.43 68.963 119.702 69.0667 119.999 69.1574C120.297 69.2481 120.607 69.3518 120.918 69.4555C121.228 69.5722 121.539 69.7018 121.837 69.8444C122.134 70 122.406 70.1815 122.639 70.4148C122.872 70.6481 123.066 70.9333 123.208 71.2574C123.35 71.5944 123.428 71.9833 123.428 72.45C123.428 72.9685 123.338 73.4611 123.156 73.9018C122.975 74.3556 122.716 74.7444 122.38 75.0815C122.044 75.4185 121.617 75.6778 121.112 75.8722C120.607 76.0667 120.038 76.1574 119.404 76.1574C119.055 76.1574 118.705 76.1185 118.343 76.0537C117.981 75.9889 117.631 75.8852 117.295 75.7556C116.958 75.6259 116.635 75.4704 116.337 75.2889C116.04 75.1074 115.781 74.913 115.561 74.6926L116.324 73.4741C116.376 73.3833 116.454 73.3056 116.557 73.2537C116.661 73.2018 116.764 73.163 116.894 73.163C117.049 73.163 117.204 73.2148 117.36 73.3056C117.515 73.4093 117.696 73.513 117.89 73.6296C118.084 73.7463 118.317 73.85 118.576 73.9537C118.835 74.0574 119.132 74.0963 119.482 74.0963C119.947 74.0963 120.323 73.9926 120.581 73.7852C120.84 73.5778 120.97 73.2407 120.97 72.8C120.97 72.5407 120.892 72.3204 120.75 72.1648C120.607 71.9963 120.413 71.8667 120.18 71.75C119.947 71.6463 119.676 71.5426 119.378 71.4648C119.08 71.387 118.77 71.2963 118.459 71.1926C118.149 71.0889 117.838 70.9722 117.541 70.8167C117.243 70.6741 116.971 70.4796 116.738 70.2333C116.506 69.987 116.311 69.7018 116.169 69.3389C116.027 68.9759 115.949 68.5352 115.949 68.0167C115.949 67.5889 116.04 67.187 116.208 66.7852C116.376 66.3833 116.622 66.0333 116.958 65.7092C117.282 65.3981 117.683 65.1389 118.162 64.9574C118.641 64.7759 119.184 64.6722 119.805 64.6722C120.154 64.6722 120.478 64.6981 120.814 64.75C121.138 64.8018 121.448 64.8796 121.746 64.9833C122.044 65.087 122.315 65.2167 122.561 65.3593C122.82 65.5018 123.04 65.6704 123.247 65.8518L122.6 67.1222Z" fill="#124983"/>
<path d="M129.354 74.0052C129.704 74.0052 130.014 73.9534 130.286 73.8367C130.558 73.72 130.791 73.5515 130.985 73.3441C131.179 73.1367 131.321 72.8645 131.425 72.5534C131.528 72.2423 131.58 71.8923 131.58 71.4904V64.8404H134.181V71.4904C134.181 72.1775 134.064 72.8126 133.844 73.383C133.624 73.9534 133.301 74.4589 132.887 74.8738C132.473 75.2886 131.968 75.6126 131.373 75.846C130.778 76.0793 130.105 76.196 129.367 76.196C128.617 76.196 127.944 76.0793 127.349 75.846C126.753 75.6126 126.249 75.2886 125.835 74.8738C125.421 74.4589 125.097 73.9663 124.877 73.383C124.657 72.8126 124.541 72.1775 124.541 71.4904V64.8404H127.142V71.4904C127.142 71.8923 127.193 72.2423 127.297 72.5534C127.4 72.8645 127.543 73.1238 127.737 73.3441C127.931 73.5645 128.164 73.733 128.436 73.8497C128.694 73.9534 129.005 74.0052 129.354 74.0052Z" fill="#124983"/>
<path d="M138.464 73.9793H142.617V76.0663H135.863V64.8404H138.464V73.9793Z" fill="#124983"/>
<path d="M150.601 64.8404V66.9015H147.443V76.0663H144.843V66.9015H141.685V64.8404H150.601Z" fill="#124983"/>
<path d="M107.215 94.5648H104.601V89.8203H100.047V94.5648H97.433V83.3389H100.047V88.0315H104.601V83.3389H107.215V94.5648Z" fill="#124983"/>
<path d="M113.724 92.5037C114.073 92.5037 114.384 92.4519 114.655 92.3352C114.927 92.2185 115.16 92.05 115.354 91.8426C115.548 91.6352 115.69 91.363 115.794 91.0519C115.897 90.7407 115.949 90.3907 115.949 89.9889V83.3389H118.55V89.9889C118.55 90.6759 118.434 91.3111 118.214 91.8815C117.994 92.4519 117.67 92.9574 117.256 93.3722C116.842 93.7871 116.337 94.1111 115.742 94.3445C115.147 94.5778 114.474 94.6945 113.737 94.6945C112.986 94.6945 112.313 94.5778 111.718 94.3445C111.123 94.1111 110.618 93.7871 110.204 93.3722C109.79 92.9574 109.467 92.4648 109.247 91.8815C109.027 91.3111 108.91 90.6759 108.91 89.9889V83.3389H111.511V89.9889C111.511 90.3907 111.563 90.7407 111.666 91.0519C111.77 91.363 111.912 91.6222 112.106 91.8426C112.3 92.063 112.533 92.2315 112.805 92.3482C113.064 92.4519 113.374 92.5037 113.724 92.5037Z" fill="#124983"/>
<path d="M120.232 94.5648V83.3389H124.347C125.123 83.3389 125.783 83.4166 126.327 83.5592C126.87 83.7018 127.31 83.9092 127.659 84.1685C128.009 84.4277 128.254 84.7518 128.41 85.1278C128.565 85.5037 128.643 85.9185 128.643 86.3852C128.643 86.6315 128.604 86.8777 128.539 87.1111C128.462 87.3444 128.358 87.5648 128.203 87.7722C128.047 87.9796 127.853 88.1611 127.608 88.3296C127.362 88.4981 127.077 88.6407 126.741 88.7703C127.478 88.9518 128.022 89.237 128.384 89.6389C128.733 90.0407 128.914 90.5592 128.914 91.1944C128.914 91.674 128.824 92.1148 128.643 92.5296C128.462 92.9444 128.19 93.2944 127.827 93.6055C127.465 93.9166 127.025 94.15 126.508 94.3185C125.99 94.487 125.382 94.5777 124.709 94.5777H120.232V94.5648ZM122.833 88.0574H124.192C124.476 88.0574 124.735 88.0314 124.968 87.9926C125.201 87.9537 125.395 87.8759 125.55 87.7722C125.705 87.6685 125.835 87.5259 125.925 87.3444C126.016 87.1629 126.055 86.9426 126.055 86.6703C126.055 86.3981 126.016 86.1777 125.951 86.0092C125.887 85.8277 125.783 85.6852 125.641 85.5815C125.498 85.4778 125.33 85.4 125.11 85.3481C124.903 85.2963 124.644 85.2833 124.347 85.2833H122.82V88.0574H122.833ZM122.833 89.8074V92.6074H124.67C125.02 92.6074 125.291 92.5685 125.511 92.4777C125.731 92.387 125.9 92.2833 126.029 92.1407C126.158 91.9981 126.236 91.8426 126.288 91.674C126.339 91.5055 126.352 91.324 126.352 91.1426C126.352 90.9351 126.327 90.7537 126.275 90.5851C126.223 90.4166 126.132 90.287 126.003 90.1703C125.874 90.0537 125.705 89.9759 125.485 89.9111C125.266 89.8463 124.994 89.8203 124.67 89.8203H122.833V89.8074Z" fill="#124983"/>
</svg>
