<svg width="218" height="95" viewBox="0 0 218 95" fill="none" xmlns="http://www.w3.org/2000/svg">
<path d="M18.5597 0C18.7729 0.234062 18.9861 0.117074 19.1993 0.117074C20.7982 0.585199 22.2906 1.52146 23.5698 2.69178C25.8083 4.91537 27.5138 7.60707 28.7929 10.6499C30.3919 14.1608 31.4579 17.7887 32.3106 21.6508C32.737 23.4062 33.0568 25.1617 33.27 26.9172C33.4832 28.0875 33.5898 29.2578 33.6964 30.5452C33.9096 31.7155 33.9096 33.0028 34.0162 34.1731C34.1227 35.2264 34.1227 36.2797 34.1227 37.333C34.1227 38.8544 34.1227 40.2588 34.1227 41.7802C32.204 41.8972 30.3919 41.5461 28.4731 41.6632C28.3666 41.4291 28.3666 41.3121 28.3666 41.078C28.3666 39.0885 28.26 37.216 28.0468 35.2264C27.6204 31.1303 26.9808 27.2683 25.595 23.4062C24.8489 21.2997 23.9962 19.3102 22.717 17.5547C21.8642 16.3844 21.0115 15.4482 19.8389 14.746C17.8136 13.5757 15.7883 13.8097 13.9761 15.3311C12.2706 16.7355 11.098 18.491 10.1386 20.5975C8.85947 23.4063 8.00673 26.3321 7.36715 29.3749C7.04737 30.8963 6.83416 32.4176 6.62097 33.9391C6.51437 35.3434 6.30119 36.8648 6.30119 38.2692C6.30119 39.3225 6.19462 40.4928 6.19462 41.5461C5.76824 41.6631 1.39775 41.8972 0.544985 41.7802C0.438389 41.6631 0.438415 41.4291 0.438415 41.195C0.438415 39.7906 0.438415 38.3863 0.438415 37.0989C0.545011 35.4605 0.651594 33.9391 0.75819 32.3007C0.864786 31.2474 0.971368 30.0771 1.07796 29.0238C1.29116 27.6194 1.50439 26.098 1.71758 24.6936C2.25056 21.6508 2.99673 18.725 3.8495 15.7992C4.91546 12.5223 6.19461 9.24547 8.11334 6.43672C9.2859 4.56422 10.7782 2.92581 12.4837 1.63847C13.4431 0.936278 14.5091 0.351108 15.7883 0.234077C15.8949 0.234077 15.8948 0.234105 15.8948 0.117074C17.0674 4.28564e-05 17.8136 0 18.5597 0Z" fill="#C4C4C4"/>
<path d="M217.893 64.9523C217.574 65.3034 217.467 65.7716 217.147 66.0057C215.868 67.176 213.31 66.9419 212.564 65.0694C212.457 64.7183 212.35 64.4843 212.35 64.1332C212.35 63.0799 212.35 62.0266 212.35 60.9733C212.35 60.7393 212.35 60.5052 212.35 60.2711C211.924 60.1541 211.391 60.2711 210.965 60.1541C210.858 59.686 210.965 59.1008 210.858 58.5156C211.498 58.5156 212.031 58.5156 212.564 58.5156C213.097 58.5156 213.63 58.5156 214.163 58.5156C214.269 58.7497 214.269 58.9837 214.269 59.1008C214.269 60.6222 214.269 62.0266 214.269 63.548C214.269 63.7821 214.269 64.0161 214.376 64.2502C214.589 65.0694 215.015 65.1864 215.761 64.8353C216.188 64.0161 215.975 63.1969 216.081 62.2606C216.721 62.2606 217.36 62.2606 218 62.2606C217.893 63.1969 217.893 64.0161 217.893 64.9523Z" fill="#C4C4C4"/>
<path d="M23.7822 29.0235C23.6756 31.7152 22.6096 33.7047 20.4776 35.1091C19.3051 35.9283 17.9193 36.2795 16.5336 36.0454C14.7214 35.8113 13.1225 34.9921 11.95 33.3536C10.7774 31.8322 10.351 29.9597 10.5642 27.9702C10.7774 26.4488 11.3104 25.0444 12.2697 23.9911C13.2291 22.9378 14.4017 22.1186 15.7875 21.8846C17.1732 21.5335 18.5589 21.6505 19.9447 22.3527C21.7568 23.289 23.036 24.9274 23.569 27.034C23.7821 27.7362 23.8888 28.4384 23.7822 29.0235Z" fill="#C4C4C4"/>
<path d="M42.7562 83.3262C39.6649 83.3262 37.2132 80.6345 37.2132 77.2406C37.2132 73.7297 39.7715 71.038 42.8628 71.155C45.8475 71.155 48.2992 73.7297 48.2992 77.2406C48.2992 80.9856 45.5277 83.4433 42.7562 83.3262Z" fill="#C4C4C4"/>
<path d="M60.238 22.938C60.3446 26.2149 57.6797 29.1407 54.5884 29.0236C51.4971 28.9066 49.0454 26.2148 49.152 22.8209C49.152 19.427 51.7103 16.7354 54.695 16.7354C57.8929 16.7354 60.3446 19.6611 60.238 22.938Z" fill="#C4C4C4"/>
<path d="M43.2892 16.8523C46.3805 16.8523 48.9388 19.661 48.8322 23.0549C48.7256 26.5659 46.4871 29.0235 43.2892 29.1406C39.9848 29.1406 37.7462 26.5659 37.7462 23.0549C37.6396 19.661 40.0914 16.8523 43.2892 16.8523Z" fill="#C4C4C4"/>
<path d="M59.8116 64.2502C59.8116 67.6441 57.3599 70.4528 54.2686 70.4528C51.3905 70.4528 48.7256 67.8782 48.7256 64.2502C48.7256 60.8563 51.2839 58.1646 54.2686 58.1646C57.3599 58.1646 59.8116 60.9733 59.8116 64.2502Z" fill="#C4C4C4"/>
<path d="M48.086 64.4841C47.9794 67.995 45.6343 70.5697 42.4364 70.5697C39.3452 70.5697 36.8934 67.878 36.8934 64.4841C36.8934 60.8561 39.5583 58.3984 42.4364 58.3984C45.4211 58.3984 47.9794 60.9731 48.086 64.4841Z" fill="#C4C4C4"/>
<path d="M60.2379 35.5774C60.3445 38.8543 57.7862 41.663 54.5883 41.663C51.4971 41.663 49.152 38.8543 49.152 35.4604C49.152 32.0665 51.8169 29.3748 54.695 29.3748C57.9995 29.4918 60.3445 32.4176 60.2379 35.5774Z" fill="#C4C4C4"/>
<path d="M71.7504 64.6011C71.9635 67.995 69.192 70.8038 66.1007 70.6868C63.2226 70.5697 60.6643 67.878 60.7709 64.6011C60.8775 60.9732 63.3292 58.5155 66.3139 58.5155C69.2986 58.3985 71.9635 61.2072 71.7504 64.6011Z" fill="#C4C4C4"/>
<path d="M5.7678 57.228C2.67651 57.345 0.224792 54.4192 0.224792 51.1423C0.224792 47.9825 2.56992 45.0567 5.7678 44.9397C8.96568 44.9397 11.3108 47.8655 11.3108 51.0253C11.3108 54.6533 8.53929 57.345 5.7678 57.228Z" fill="#C4C4C4"/>
<path d="M22.7161 51.1423C22.8227 54.6533 19.9446 57.345 17.0665 57.228C14.1884 57.1109 11.5235 54.3022 11.6301 50.9083C11.7367 47.7484 13.9753 44.9397 17.1731 44.9397C20.5842 45.0567 22.8227 48.2166 22.7161 51.1423Z" fill="#C4C4C4"/>
<path d="M71.4305 77.3575C71.4305 80.8684 68.7657 83.4431 65.8876 83.4431C62.7963 83.4431 60.3446 80.7514 60.3446 77.3575C60.3446 73.9636 62.9029 71.1548 65.8876 71.2718C68.9789 71.2718 71.4305 74.0806 71.4305 77.3575Z" fill="#C4C4C4"/>
<path d="M65.9941 16.1501C62.7962 16.1501 60.5577 13.3413 60.4511 10.0645C60.4511 6.55352 62.7962 3.86182 65.9941 3.86182C69.192 3.86182 71.5371 6.31941 71.5371 9.94738C71.6437 13.4583 69.0854 16.2671 65.9941 16.1501Z" fill="#C4C4C4"/>
<path d="M23.3558 51.2597C23.2492 47.9828 25.8075 45.1741 28.8988 45.1741C32.2032 45.1741 34.4418 48.0998 34.4418 51.3767C34.4418 54.7706 31.8835 57.4623 28.8988 57.4623C25.7009 57.4623 23.2492 54.4196 23.3558 51.2597Z" fill="#C4C4C4"/>
<path d="M43.1825 16.1504C40.4111 16.3844 37.533 13.4587 37.7462 9.71366C37.8528 6.90491 40.1979 3.86207 43.609 3.9791C46.2739 4.09613 49.0454 6.78785 48.8322 10.4158C48.619 13.3416 46.2738 16.3844 43.1825 16.1504Z" fill="#C4C4C4"/>
<path d="M71.5371 51.4938C71.6437 54.8877 68.7656 57.5794 65.9941 57.5794C63.0094 57.5794 60.4511 54.6536 60.4511 51.3768C60.5577 47.9829 63.2226 45.4082 66.1007 45.4082C68.9788 45.4082 71.6437 48.3339 71.5371 51.4938Z" fill="#C4C4C4"/>
<path d="M11.8434 76.538C11.7368 72.9101 14.6149 70.4524 17.2798 70.4524C20.3711 70.4524 22.9294 73.1441 22.9294 76.538C22.9294 79.9319 20.4777 82.7407 17.3864 82.7407C14.1886 82.6236 11.7368 79.8149 11.8434 76.538Z" fill="#C4C4C4"/>
<path d="M54.3752 45.2911C57.3598 45.1741 59.9182 48.0999 59.9182 51.4938C59.9182 54.4195 57.7862 57.4624 54.3752 57.5794C50.9641 57.5794 48.8322 54.3025 48.8322 51.3768C48.8322 47.9829 51.4971 45.1741 54.3752 45.2911Z" fill="#C4C4C4"/>
<path d="M5.4476 69.8675C2.6761 70.1016 -0.20203 67.1758 0.0111618 63.4308C0.224354 60.2709 2.78271 57.5793 5.6608 57.6963C8.53889 57.6963 11.2038 60.505 11.0972 64.0159C10.9906 67.2928 8.43228 69.9845 5.4476 69.8675Z" fill="#C4C4C4"/>
<path d="M17.0665 69.8675C14.0818 69.9845 11.5236 66.9417 11.5236 63.7819C11.5236 60.2709 14.295 57.6963 17.0665 57.6963C20.0512 57.6963 22.7161 60.505 22.6095 64.0159C22.5029 67.4098 19.7314 69.9845 17.0665 69.8675Z" fill="#C4C4C4"/>
<path d="M34.7615 76.8894C34.9747 80.2833 32.0966 83.0921 29.2185 82.9751C26.0207 82.858 23.7822 80.2834 23.7822 76.7724C23.7822 73.2615 26.447 70.5697 29.5383 70.6868C32.3098 70.8038 34.8681 73.6125 34.7615 76.8894Z" fill="#C4C4C4"/>
<path d="M0.224772 76.5384C0.118176 73.1445 2.78306 70.3357 5.87435 70.4527C8.75244 70.5698 11.3108 73.1445 11.3108 76.6554C11.3108 80.1663 8.85906 82.741 5.76778 82.741C2.78309 82.624 0.118176 79.8153 0.224772 76.5384Z" fill="#C4C4C4"/>
<path d="M28.8987 70.1016C25.914 70.2186 23.3557 67.2928 23.3557 64.0159C23.3557 60.622 26.0206 57.8133 29.0053 57.9303C31.99 58.0473 34.4417 60.622 34.4417 64.0159C34.5483 67.4098 31.8834 70.3356 28.8987 70.1016Z" fill="#C4C4C4"/>
<path d="M42.6496 45.291C45.6343 45.291 48.1926 48.0998 48.1926 51.3767C48.1926 54.6535 45.8475 57.4623 42.6496 57.4623C39.3451 57.4623 37.1067 54.4195 37.1067 51.2597C37.1067 47.8658 39.8781 45.174 42.6496 45.291Z" fill="#C4C4C4"/>
<path d="M71.6437 35.9285C71.7503 37.5669 71.1108 38.9713 70.1514 40.1416C69.0854 41.429 67.6996 42.1311 66.1007 42.0141C62.9028 41.8971 60.6644 39.3224 60.5578 35.8115C60.5578 32.5346 63.2226 29.4918 66.5271 29.7258C69.0854 29.8428 71.8569 32.5346 71.6437 35.9285Z" fill="#C4C4C4"/>
<path d="M54.4818 16.1501C51.6037 16.2671 48.9387 13.4583 49.0453 9.94738C49.0453 6.31942 51.8169 3.86182 54.695 3.86182C57.5731 3.97885 60.1313 6.43645 60.1313 9.94738C60.1313 13.8094 57.2533 16.3842 54.4818 16.1501Z" fill="#C4C4C4"/>
<path d="M54.3752 83.3261C51.3905 83.4432 48.8322 80.5174 48.8322 77.2405C48.8322 73.7295 51.4971 71.1549 54.3752 71.0378C57.3598 71.0378 59.9182 73.7296 60.0248 77.1235C59.9182 80.6344 57.2532 83.3261 54.3752 83.3261Z" fill="#C4C4C4"/>
<path d="M43.2892 41.8971C40.3045 42.1312 37.7462 38.9713 37.7462 35.8115C37.7462 32.4176 40.4111 29.7258 43.2892 29.7258C46.3805 29.7258 48.8322 32.5346 48.8322 35.8115C48.8322 39.0883 46.4871 42.0141 43.2892 41.8971Z" fill="#C4C4C4"/>
<path d="M71.6437 23.0549C71.8569 26.2148 69.0855 29.2576 66.2074 29.1406C63.1161 29.1406 60.6644 26.2148 60.6644 23.0549C60.6644 19.661 63.2227 16.9693 66.2074 16.8523C68.8723 16.9693 71.8569 19.7781 71.6437 23.0549Z" fill="#C4C4C4"/>
<path d="M84.755 14.2778C84.6484 13.2245 84.755 6.55375 84.755 5.85156C84.9682 5.85156 85.288 5.85156 85.6078 5.85156C86.7804 5.85156 87.8463 5.85161 89.0189 5.96864C90.0848 6.08567 90.831 6.9049 90.9376 7.95818C91.1508 9.12849 90.5112 10.1817 89.6585 10.4158C89.4453 10.5328 89.3386 10.5328 89.0189 10.5328C90.298 11.4691 90.7244 12.8735 91.5772 14.1608C91.5772 11.3521 91.5772 8.66031 91.5772 5.85156C92.43 5.85156 93.1761 5.85156 93.9223 5.85156C94.3487 7.60703 94.7751 9.36251 95.308 11.352C95.7344 9.47954 96.1608 7.72406 96.5872 5.85156C97.3334 5.85156 98.0796 5.85156 98.9323 5.85156C98.9323 8.66031 98.9323 11.352 98.9323 14.2778C98.6125 14.2778 98.3993 14.2778 98.0795 14.2778C97.8663 14.2778 97.6532 14.2779 97.44 14.1608C97.44 12.4054 97.44 10.5328 97.44 8.77734H97.3334C96.907 10.6498 96.4806 12.4053 96.0542 14.2778C95.5213 14.2778 95.0949 14.2778 94.4553 14.2778C94.0289 12.4053 93.6025 10.5328 93.1761 8.66034C93.1761 8.66034 93.1762 8.66034 93.0696 8.66034C93.0696 10.5328 93.0696 12.4053 93.0696 14.2778C91.897 14.2778 90.831 14.2778 89.5518 14.2778C89.4452 14.2778 89.3387 14.0438 89.2321 13.9267C88.6991 13.2246 88.2727 12.4053 87.8463 11.7031C87.4199 11.0009 86.887 10.8839 86.1408 11.001C86.1408 12.1713 86.1408 13.2246 86.1408 14.3949C85.821 14.2779 85.288 14.2778 84.755 14.2778ZM86.354 9.47957C87.1001 9.47957 87.7397 9.47957 88.3793 9.47957C88.4859 9.47957 88.5925 9.3625 88.6991 9.3625C89.0189 9.24547 89.2321 9.01146 89.2321 8.54334C89.2321 7.95818 88.9123 7.49003 88.3793 7.49003C87.7397 7.49003 86.9935 7.49003 86.354 7.49003C86.354 8.19222 86.354 8.77739 86.354 9.47957Z" fill="#C4C4C4"/>
<path d="M153.083 61.2072C153.083 60.9732 153.19 60.8561 153.083 60.6221C152.443 59.9199 151.804 60.0368 151.591 60.8561C151.058 60.8561 150.418 60.8561 149.885 60.8561C149.779 59.8028 150.312 59.2176 151.058 58.7495C151.91 58.2814 152.976 58.2814 153.829 58.7495C154.362 58.9836 154.789 59.4517 155.002 60.0369C155.322 60.505 155.215 61.0901 155.002 61.6753C154.789 61.9094 154.575 62.1434 154.362 62.4945C154.469 62.6116 154.575 62.6116 154.682 62.7286C155.748 63.3138 155.961 64.7181 155.215 65.7714C154.789 66.3565 154.256 66.7076 153.616 66.9417C152.87 67.1758 152.124 67.1758 151.377 66.9417C150.205 66.5906 149.459 65.8884 149.139 64.6011C149.139 64.484 149.139 64.367 149.139 64.25C149.779 64.25 150.312 64.25 151.058 64.25C151.058 64.7181 151.271 65.0692 151.697 65.1862C152.337 65.3033 152.87 65.4203 153.403 65.0692C153.829 64.8352 153.829 64.367 153.509 63.6648C153.083 63.4308 152.657 63.3138 152.23 63.3138C151.378 63.3138 150.631 63.1967 149.779 63.3138C149.459 63.3138 149.139 63.3138 148.926 63.3138C148.819 63.5478 148.819 63.8989 148.819 64.133C148.926 65.3033 148.18 66.3566 147.007 66.8247C145.408 67.4099 143.916 65.7714 143.809 64.4841C143.809 64.016 143.809 63.5478 144.022 62.9627C144.449 61.9094 145.088 61.4412 146.048 61.4412C146.261 61.4412 146.474 61.4412 146.794 61.4412C146.367 60.0368 145.088 59.8028 143.596 60.6221C143.489 60.7391 143.489 60.8561 143.383 60.9731C143.276 61.0902 143.276 61.2072 143.17 61.3242C143.17 62.9627 143.17 64.7181 143.17 66.5906C142.53 66.5906 141.89 66.5906 141.357 66.5906C141.251 66.4736 141.251 66.3566 141.251 66.2395C141.251 64.7181 141.251 63.1967 141.251 61.5583C141.251 60.388 141.677 59.5687 142.637 59.1006C144.342 58.0473 146.048 58.0474 147.753 59.2177C148.286 59.5688 148.713 60.1539 148.819 60.8561C148.819 60.9731 148.926 61.0902 148.926 61.3242C149.246 61.4412 149.672 61.3242 149.992 61.3242C150.845 61.3242 151.591 61.3242 152.443 61.3242C152.657 61.4412 152.87 61.4413 153.083 61.2072ZM146.261 64.9522C146.9 64.6011 147.007 64.25 146.794 63.1967C146.154 63.1967 145.941 63.3137 145.835 63.6648C145.728 64.25 145.834 64.7181 146.261 64.9522Z" fill="#C4C4C4"/>
<path d="M104.475 67.6439C104.475 67.4099 104.475 67.1758 104.475 66.9417C104.262 66.9417 104.155 67.2928 103.942 67.2928C103.623 67.0587 103.196 66.7077 102.876 66.4736C102.13 66.8247 101.384 66.9417 100.531 66.7076C99.4653 66.3565 98.5059 65.3033 98.5059 63.8989C98.5059 62.1435 98.5059 60.388 98.5059 58.6325C99.1455 58.6325 99.7851 58.6325 100.318 58.6325C100.531 58.8666 100.425 58.9836 100.425 59.2177C100.425 60.622 100.425 62.0264 100.425 63.5478C100.425 63.7819 100.425 64.016 100.425 64.133C100.531 64.7182 100.744 65.0692 101.277 65.1862C101.81 65.1862 102.024 64.8351 102.13 64.367C102.237 64.1329 102.237 63.7819 102.237 63.5478C102.237 62.1435 102.237 60.8561 102.237 59.4517C102.237 59.2177 102.237 58.9836 102.237 58.7495C102.876 58.6325 103.516 58.7495 104.155 58.6325C104.262 59.4517 104.262 64.016 104.155 64.7182C104.155 64.8352 104.262 64.9522 104.475 64.9522C104.688 64.8351 104.475 64.6011 104.688 64.367C105.328 64.367 105.861 64.367 106.501 64.367C106.607 64.6011 106.501 64.8352 106.714 65.0692C107.353 65.1863 107.886 64.7181 108.313 64.25C107.78 64.25 107.247 64.133 106.714 63.8989C105.648 63.4308 105.221 62.3775 105.328 61.0901C105.541 59.3347 106.607 58.3984 108.206 58.3984C109.805 58.3984 110.978 59.4517 111.191 60.505C111.511 61.9094 111.297 63.1967 110.338 64.25C110.125 64.4841 109.912 64.8352 109.698 65.0692C110.338 64.9522 110.978 65.1863 111.404 65.8885C111.724 66.3566 111.83 66.9417 111.724 67.6439C111.084 67.6439 110.445 67.6439 109.805 67.6439C109.698 67.4099 109.805 67.1758 109.698 66.9417C109.592 66.7076 109.272 66.5906 108.952 66.5906C108.206 66.5906 107.353 66.5906 106.607 66.5906C106.501 66.9417 106.607 67.2928 106.501 67.6439C105.754 67.761 105.115 67.6439 104.475 67.6439ZM107.673 62.7286C108.739 62.9627 109.166 62.4945 109.166 61.4412C109.166 60.505 108.739 60.1539 107.673 60.1539C106.927 60.8561 106.927 62.0264 107.673 62.7286Z" fill="#C4C4C4"/>
<path d="M130.804 61.2073C130.591 61.5584 130.378 61.7925 130.058 62.1436C130.271 62.3776 130.485 62.4947 130.698 62.7287C131.444 63.4309 131.444 64.8353 130.698 65.6545C129.845 66.7078 128.673 66.9418 127.393 66.8248C126.647 66.7078 125.901 66.4737 125.368 65.7715C125.155 65.5374 124.942 65.1864 124.835 64.8353C124.622 65.4204 124.409 65.8886 123.982 66.2396C122.703 67.41 120.571 67.0589 119.612 65.6545C119.292 65.1864 119.186 64.7183 119.186 64.1331C119.186 63.0798 119.186 62.1435 119.186 61.0902C119.186 60.8562 119.186 60.6222 119.079 60.3881C118.653 60.3881 118.226 60.3881 117.8 60.3881C117.693 59.8029 117.8 59.3348 117.8 58.7496C118.333 58.6326 118.972 58.7496 119.505 58.7496C120.038 58.7496 120.571 58.7496 121.104 58.7496C121.211 58.9837 121.211 59.2177 121.211 59.3348C121.211 60.7392 121.211 62.2606 121.211 63.6649C121.211 64.1331 121.317 64.6012 121.531 64.9523C121.957 65.3034 122.277 65.3034 122.703 64.9523C123.13 64.2501 122.916 63.3139 123.023 62.3776C123.663 62.3776 124.302 62.3776 124.835 62.3776C125.048 62.0265 124.835 61.7925 125.048 61.5584C125.368 61.5584 125.581 61.5584 126.008 61.5584C125.688 61.0903 125.475 60.6222 125.688 60.037C125.901 59.4519 126.327 58.9837 126.86 58.7496C127.607 58.3985 128.353 58.3986 129.099 58.6326C129.739 58.8667 130.165 59.3348 130.591 59.8029C130.911 60.2711 130.804 60.7392 130.804 61.2073ZM124.942 64.016C125.581 64.016 126.114 64.016 126.647 64.016C126.754 64.2501 126.647 64.4842 126.967 64.8353C127.5 65.1864 128.246 65.3034 128.992 64.8353C129.312 64.7182 129.419 64.3671 129.419 64.016C129.312 63.782 129.312 63.5479 129.206 63.3139C127.82 62.8457 126.327 63.0798 124.942 63.0798C124.835 63.4309 124.942 63.6649 124.942 64.016ZM127.287 60.7392C127.5 61.4414 127.607 61.4414 128.566 61.3243C128.992 60.8562 128.992 60.6222 128.459 60.037C128.14 60.037 127.82 59.92 127.5 60.154C127.393 60.3881 127.287 60.6221 127.287 60.7392Z" fill="#C4C4C4"/>
<path d="M102.557 19.3103C102.557 19.8954 102.557 20.4806 102.557 21.0657C103.836 21.0657 105.008 21.0657 106.287 21.0657C106.287 21.6509 106.287 22.1191 106.287 22.5872C105.008 22.5872 103.836 22.5872 102.557 22.5872C102.557 23.2894 102.557 23.9916 102.557 24.6938C103.942 24.6938 105.328 24.6938 106.607 24.6938C106.714 25.0449 106.607 25.3959 106.714 25.747C107.567 24.3426 108.313 23.0553 109.059 21.768C108.313 20.4806 107.567 19.1933 106.714 17.7889C107.353 17.6719 107.886 17.7889 108.526 17.6719C109.059 18.4911 109.485 19.4274 110.018 20.2466C110.551 19.4274 110.978 18.6081 111.404 17.6719C112.044 17.5549 112.577 17.6719 113.216 17.6719C112.47 19.0763 111.617 20.3636 110.871 21.768C111.724 23.1724 112.577 24.5767 113.429 25.9811C112.79 25.9811 112.15 25.9811 111.511 25.9811C110.978 25.0448 110.445 24.2256 109.912 23.1724C109.379 24.1086 108.846 25.0448 108.206 25.9811C105.648 25.9811 103.196 25.9811 100.638 25.9811C100.638 23.1723 100.638 20.4806 100.638 17.7889C100.638 17.7889 100.638 17.6719 100.744 17.6719C100.744 17.6719 100.744 17.6719 100.851 17.6719C102.663 17.6719 104.475 17.6719 106.287 17.6719C106.501 18.14 106.287 18.6082 106.394 19.0763C105.222 19.3103 103.942 19.3103 102.557 19.3103Z" fill="#C4C4C4"/>
<path d="M186.554 60.271C186.128 60.271 185.701 60.271 185.275 60.271C185.275 60.7391 185.275 61.0902 185.275 61.5584C183.996 61.5584 182.717 61.5584 181.438 61.5584C181.224 62.4946 181.331 64.016 181.544 64.7182C181.971 65.0693 182.397 65.0693 182.823 64.7182C183.25 64.1331 182.93 63.4309 183.143 62.7287C183.783 62.7287 184.422 62.7287 185.168 62.7287C185.168 63.899 185.168 65.0693 184.316 65.8885C183.037 67.1759 180.478 66.8247 179.732 64.9522C179.625 64.7182 179.519 64.3671 179.519 64.1331C179.519 62.2606 179.519 60.5051 179.519 58.6326C179.519 58.6326 179.519 58.5155 179.625 58.5155C180.265 58.5155 180.798 58.5155 181.544 58.5155C181.544 58.9836 181.544 59.3348 181.544 59.8029C182.823 59.8029 184.102 59.8029 185.382 59.8029C185.382 59.3348 185.382 58.9836 185.382 58.5155C185.915 58.3985 187.94 58.2814 188.793 58.5155C188.793 59.5688 188.793 60.6221 188.793 61.6754C188.793 62.7286 188.686 63.6649 189.006 64.7182C189.113 64.8352 189.219 64.9522 189.326 64.9522C189.752 65.1863 190.178 65.0693 190.285 64.6011C190.392 64.2501 190.498 64.016 190.498 63.6649C190.498 63.4308 190.498 63.1968 190.498 63.0798C190.498 62.8457 190.498 62.6117 190.498 62.3776C191.138 62.2606 191.777 62.3776 192.417 62.3776C192.417 63.1968 192.524 63.899 192.417 64.7182C192.204 66.0056 191.244 66.8247 189.965 66.9418C188.899 67.0588 188.047 66.7077 187.3 65.7715C186.874 65.1863 186.767 64.6012 186.767 63.899C186.554 62.6116 186.554 61.5583 186.554 60.271Z" fill="#C4C4C4"/>
<path d="M120.571 53.9512C120.145 53.9512 119.719 53.9512 119.292 53.9512C119.292 54.4193 119.292 54.7704 119.292 55.2385C118.653 55.2385 118.013 55.2385 117.373 55.2385C117.267 55.1215 117.267 54.8875 117.267 54.7704C117.267 53.3661 117.267 51.9617 117.267 50.6743C117.267 50.3233 117.267 49.9722 117.16 49.504C117.054 49.0359 116.84 48.8018 116.521 48.8018C116.094 48.8018 115.774 49.0359 115.668 49.387C115.561 49.621 115.561 49.9721 115.561 50.2062C115.561 50.9084 115.561 51.4936 115.561 52.1957C114.922 52.1957 114.282 52.1957 113.643 52.1957C113.536 52.5468 113.536 52.8979 113.536 53.249C113.216 54.7704 112.257 55.2386 111.297 55.3556C110.551 55.4726 109.805 55.3556 109.059 54.8874C108.313 54.3023 107.886 53.6001 107.886 52.6638C107.886 51.6105 107.886 50.4402 107.886 49.387C107.886 49.2699 107.886 49.1529 107.886 48.9189C107.46 48.9189 106.927 48.9189 106.501 48.9189C106.501 48.3337 106.501 47.7486 106.501 47.1634C107.567 47.1634 108.633 47.1634 109.805 47.1634C109.912 47.2804 109.912 47.5145 109.912 47.7486C109.912 49.1529 109.912 50.5573 109.912 51.9617C109.912 52.1957 109.912 52.4298 110.018 52.7809C110.231 53.6001 110.338 53.7171 111.191 53.7171C112.044 53.0149 111.617 51.9616 111.83 50.9084C112.47 50.9084 113.11 50.9084 113.749 50.9084C113.749 50.5573 113.749 50.2062 113.749 49.8551C113.749 48.5678 114.602 47.6315 115.561 47.1634C116.094 46.9294 116.734 46.9293 117.373 47.0463C118.439 47.2804 119.505 48.3337 119.505 49.8551C119.505 50.5573 119.505 51.2594 119.505 52.0787C119.932 52.0787 120.358 52.0787 120.784 52.0787C120.571 52.8979 120.571 53.3661 120.571 53.9512Z" fill="#C4C4C4"/>
<path d="M158.946 14.2777C158.306 14.3947 157.667 14.2777 157.027 14.2777C156.814 13.6925 156.601 12.9904 156.388 12.4052C155.428 12.4052 154.469 12.4052 153.509 12.4052C153.19 12.9904 153.083 13.6925 152.763 14.2777C151.697 14.2777 150.631 14.2777 149.565 14.2777C149.352 13.8096 149.459 7.02179 149.565 5.96851C150.098 5.96851 150.525 5.96851 151.164 5.96851C151.164 6.78772 151.164 7.72396 151.164 8.66021C151.164 9.59646 151.164 10.4157 151.164 11.3519C151.164 12.2882 151.164 13.1074 151.164 14.0436C151.164 14.0436 151.164 14.0436 151.271 14.0436C152.23 11.3519 153.19 8.6602 154.149 6.08551C154.682 6.08551 155.215 5.96848 155.855 6.08551C156.814 8.77723 157.88 11.586 158.839 14.3948C158.946 14.1607 158.946 13.9266 158.946 13.8096C158.946 11.469 158.946 9.24537 158.946 6.90474C158.946 6.67068 158.839 6.43665 159.052 6.20258C158.946 8.77727 158.946 11.586 158.946 14.2777ZM155.002 8.19206C154.682 9.12831 154.256 9.94758 154.042 10.8838C154.682 10.8838 155.322 11.0009 155.855 10.8838C155.535 9.94758 155.215 9.12831 155.002 8.19206Z" fill="#C4C4C4"/>
<path d="M121.957 14.2776C121.424 14.3947 120.891 14.2777 120.358 14.3947C120.145 13.8096 119.932 13.1073 119.719 12.5222C118.759 12.5222 117.8 12.5222 116.84 12.5222C116.521 13.1073 116.414 13.8096 116.094 14.3947C115.028 14.3947 113.962 14.3947 112.896 14.3947C112.896 11.586 112.896 8.89421 112.896 6.08546C113.429 6.08546 113.856 6.08546 114.495 6.08546C114.495 8.77718 114.495 11.4689 114.495 14.0436H114.602C115.561 11.3519 116.521 8.77718 117.48 6.08546C118.013 5.96843 118.546 6.08546 119.186 6.08546C119.612 7.13874 119.932 8.19204 120.358 9.24532C120.891 10.8838 121.531 12.4051 122.064 14.0436C121.85 13.9265 121.957 14.0436 121.957 14.2776C121.957 14.1606 121.957 14.2776 121.957 14.2776ZM119.079 11.0008C118.759 10.0645 118.439 9.12826 118.12 8.19201C117.8 9.24529 117.48 10.0645 117.267 11.0008C117.906 11.0008 118.439 11.0008 119.079 11.0008Z" fill="#C4C4C4"/>
<path d="M117.48 58.6326C117.587 59.3348 117.587 63.7819 117.373 64.8352C117.693 65.0693 118.013 65.3034 118.439 65.6545C118.12 66.2396 117.8 66.8247 117.373 67.2928C116.947 67.0588 116.627 66.7077 116.094 66.4737C115.348 66.8248 114.602 66.9418 113.749 66.7077C112.79 66.4736 111.937 65.5374 111.83 64.2501C111.724 62.4946 111.83 60.6221 111.83 58.8667C111.83 58.8667 111.83 58.7496 111.937 58.6326C112.577 58.5155 113.216 58.6326 113.856 58.6326C113.962 58.8666 113.962 59.1007 113.962 59.3347C113.962 60.8561 113.962 62.3776 113.962 63.899C113.962 64.6012 114.176 64.8352 114.815 65.0693C115.455 64.8352 115.668 64.6012 115.668 63.899C115.668 62.3776 115.668 60.8562 115.668 59.4518C115.668 59.2178 115.668 58.9836 115.668 58.7496C116.201 58.6326 116.84 58.6326 117.48 58.6326Z" fill="#C4C4C4"/>
<path d="M140.505 5.96851C141.038 5.96851 141.571 5.96851 141.997 5.96851C141.997 8.77726 141.997 11.4689 141.997 14.2777C141.464 14.2777 140.931 14.2777 140.398 14.2777C139.439 12.6393 138.479 11.0008 137.627 9.36237C137.52 9.83049 137.52 10.1816 137.52 10.5327C137.52 10.8838 137.52 11.3519 137.52 11.703C137.52 12.1711 137.52 12.5223 137.52 12.9904C137.52 13.3415 137.52 13.8096 137.52 14.2777C136.987 14.2777 136.561 14.2777 136.028 14.2777C136.028 11.586 136.028 8.77726 136.028 5.96851C136.454 5.96851 136.987 5.96851 137.52 5.96851C138.479 7.72397 139.439 9.36238 140.505 11.3519C140.505 9.47941 140.505 7.72397 140.505 5.96851Z" fill="#C4C4C4"/>
<path d="M107.567 5.96824C108.526 7.72371 109.485 9.47917 110.551 11.2346H110.658C110.658 9.47917 110.658 7.84071 110.658 6.08524C111.191 5.96821 111.617 6.08524 112.15 6.08524C112.257 6.55336 112.363 13.1072 112.257 14.3945C111.724 14.3945 111.191 14.3945 110.658 14.3945C109.699 12.7561 108.739 11.1176 107.886 9.3621H107.78C107.78 11.0005 107.78 12.639 107.78 14.2774C107.46 14.3945 107.247 14.3945 107.034 14.3945C106.82 14.3945 106.607 14.3945 106.287 14.3945C106.287 11.5857 106.287 8.89399 106.287 6.08524C106.607 5.85118 107.034 5.96824 107.567 5.96824Z" fill="#C4C4C4"/>
<path d="M183.996 9.12849C183.996 11.001 183.996 12.6394 183.996 14.2778C183.463 14.2778 183.037 14.2778 182.504 14.2778C182.397 13.8097 182.29 7.60707 182.397 5.96864C182.93 5.85161 183.356 5.96864 183.889 5.96864C184.849 7.7241 185.808 9.47953 186.767 11.118H186.874C186.874 9.3625 186.874 7.7241 186.874 5.96864C187.407 5.73457 187.833 5.96859 188.366 5.85156C188.473 6.43672 188.58 12.7564 188.473 14.1608C187.94 14.1608 187.407 14.1608 186.874 14.1608C186.021 12.6394 185.062 11.001 183.996 9.12849Z" fill="#C4C4C4"/>
<path d="M149.459 22.938C149.459 21.2996 149.459 19.5441 149.459 17.7886C149.992 17.6716 150.418 17.7886 150.844 17.7886C150.951 18.2567 151.058 25.0446 150.844 26.0978C150.311 26.0978 149.779 26.0978 149.246 26.0978C148.819 25.2786 148.286 24.4594 147.86 23.6401C147.433 22.8209 146.9 22.0017 146.367 21.1825C146.367 22.821 146.367 24.4594 146.367 26.0978C146.048 26.2149 145.834 26.2148 145.621 26.2148C145.408 26.2148 145.195 26.2148 144.875 26.2148C144.875 23.4061 144.875 20.7144 144.875 17.9057C145.408 17.9057 145.941 17.9057 146.474 17.9057C147.433 19.5441 148.393 21.2995 149.352 23.055C149.459 22.938 149.459 22.938 149.459 22.938Z" fill="#C4C4C4"/>
<path d="M172.057 21.1825C172.057 22.8209 172.057 24.4594 172.057 26.0978C171.524 26.0978 171.098 26.0978 170.565 26.0978C170.458 25.6297 170.458 18.6078 170.565 17.7886C171.098 17.7886 171.524 17.7886 172.057 17.7886C173.016 19.544 173.976 21.1825 174.935 22.938H175.042C175.042 21.2995 175.042 19.544 175.042 17.7886C175.575 17.7886 176.001 17.7886 176.534 17.7886C176.641 18.3737 176.641 25.3956 176.534 26.0978C176.001 26.0978 175.468 26.0978 174.935 26.0978C174.509 25.2786 173.976 24.4594 173.549 23.6401C173.123 22.8209 172.59 22.0017 172.164 21.1825C172.164 21.1825 172.164 21.1825 172.057 21.1825Z" fill="#C4C4C4"/>
<path d="M139.972 47.3975C140.611 47.3975 141.251 47.3975 141.89 47.3975C141.997 47.6316 141.997 47.8657 141.997 48.0998C141.997 49.6212 141.997 51.1425 141.997 52.5469C141.997 52.898 141.997 53.1321 142.21 53.3662C142.637 53.9513 143.276 53.8342 143.489 53.2491C143.596 53.015 143.703 52.6639 143.703 52.3128C143.703 50.9085 143.703 49.5041 143.703 47.9827C143.703 47.7486 143.703 47.5146 143.703 47.2805C144.342 47.2805 144.982 47.2805 145.621 47.2805C145.728 47.7486 145.728 52.5469 145.621 53.3662C145.941 53.6002 146.261 53.8343 146.581 54.1854C146.261 54.7705 145.941 55.2386 145.515 55.8238C144.982 55.5897 144.662 55.2386 144.236 55.0045C143.596 55.3556 142.85 55.4727 142.104 55.3557C140.718 55.0046 139.972 54.0683 139.865 52.5469C139.759 50.9085 139.865 49.153 139.865 47.5146C139.865 47.5146 139.972 47.5146 139.972 47.3975Z" fill="#C4C4C4"/>
<path d="M133.576 54.3022C133.256 54.8873 132.936 55.4725 132.617 55.9406C132.19 55.7066 131.871 55.3555 131.444 55.1214C130.911 55.3555 130.378 55.4725 129.739 55.4725C128.353 55.3554 127.18 54.3021 127.18 52.6637C127.18 50.9082 127.18 49.1528 127.18 47.5144C127.18 47.5144 127.18 47.3973 127.287 47.3973C127.926 47.3973 128.459 47.3973 129.099 47.3973C129.206 47.6314 129.206 47.8655 129.206 48.0995C129.206 49.5039 129.206 51.0253 129.206 52.4297C129.206 53.0148 129.312 53.4829 129.845 53.717C130.165 53.834 130.485 53.717 130.698 53.4829C130.911 53.1318 131.018 52.7807 131.018 52.3126C131.018 50.9082 131.018 49.5038 131.018 47.9824C131.018 47.7484 131.018 47.5143 131.018 47.2803C131.657 47.1633 132.297 47.2803 133.043 47.2803C133.043 49.3868 133.15 51.3764 132.936 53.4829C132.936 53.834 133.256 54.0681 133.576 54.3022Z" fill="#C4C4C4"/>
<path d="M155.961 58.6328C156.707 58.6328 157.24 58.6328 157.88 58.6328C157.986 58.8669 157.986 58.9839 157.986 59.218C157.986 60.3883 157.986 61.6756 157.986 62.8459C157.986 63.4311 157.987 64.0162 158.093 64.4844C158.306 64.7184 158.413 64.9525 158.839 65.0695C159.266 65.0695 159.585 64.7184 159.692 64.2503C159.692 64.0162 159.799 63.7822 159.799 63.4311C159.799 62.0267 159.799 60.6223 159.799 59.335C159.799 59.1009 159.799 58.8669 159.799 58.6328C160.438 58.6328 161.078 58.6328 161.717 58.6328C161.824 59.5691 161.824 64.1333 161.611 64.7185C161.931 65.0695 162.25 65.3035 162.677 65.5376C162.357 66.1228 162.037 66.7079 161.611 67.2931C161.184 66.942 160.758 66.708 160.438 66.4739C159.692 66.825 158.946 66.942 158.2 66.7079C157.134 66.4739 156.174 65.5377 156.174 64.1333C155.961 62.2608 155.961 60.5053 155.961 58.6328Z" fill="#C4C4C4"/>
<path d="M121.957 14.2777C121.957 14.2777 121.957 14.1607 121.957 14.2777C122.277 14.0436 122.064 13.8096 122.064 13.5755C122.064 11.3519 122.064 9.01133 122.064 6.78774C122.064 6.55368 122.064 6.31957 122.17 6.08551C122.703 5.96848 123.13 6.08554 123.663 5.96851C124.622 7.72397 125.688 9.47946 126.754 11.469C126.754 9.59649 126.754 7.84098 126.754 6.08551C127.287 5.96848 127.713 5.96851 128.246 5.96851C128.246 8.77726 128.246 11.4689 128.246 14.2777C127.82 14.3947 127.287 14.2777 126.754 14.3948C125.794 12.7563 124.835 11.0009 123.769 9.12836C123.769 11.0009 123.769 12.6393 123.769 14.3948C123.023 14.2777 122.49 14.3947 121.957 14.2777Z" fill="#C4C4C4"/>
<path d="M206.061 10.6498C207.234 11.8201 207.127 11.8201 208.513 14.2777C207.873 14.2777 207.34 14.2777 206.701 14.2777C206.594 14.1607 206.488 14.0437 206.381 13.8096C205.848 13.1074 205.422 12.2882 204.995 11.586C204.569 10.8838 204.036 10.7668 203.29 10.8838C203.29 11.9371 203.29 13.1074 203.29 14.2777C202.757 14.2777 202.224 14.2777 201.691 14.2777C201.691 11.469 201.691 8.77727 201.691 5.96852C201.904 5.85149 202.224 5.96852 202.437 5.96852C203.61 5.96852 204.676 5.96849 205.848 6.08552C207.021 6.20255 207.767 7.13882 207.873 8.07507C207.98 9.24538 207.447 10.1816 206.381 10.6498C206.381 10.6498 206.274 10.6498 206.061 10.6498ZM203.29 9.47945C204.036 9.47945 204.676 9.47945 205.315 9.47945C205.422 9.47945 205.528 9.36238 205.635 9.36238C205.955 9.24535 206.168 9.01134 206.168 8.54322C206.168 7.95806 205.848 7.48991 205.315 7.48991C204.676 7.48991 203.929 7.48991 203.29 7.48991C203.29 8.1921 203.29 8.77727 203.29 9.47945Z" fill="#C4C4C4"/>
<path d="M89.3387 53.6002C89.6585 53.8343 89.9782 54.0683 90.298 54.3024C90.0848 54.8875 89.6585 55.4727 89.3387 56.0579C88.9123 55.8238 88.5925 55.5897 88.1661 55.2386C87.8463 55.2386 87.5265 55.4727 87.2067 55.4727C86.0342 55.7068 84.755 55.3557 84.0089 54.0683C83.7957 53.7172 83.689 53.4832 83.689 53.1321C83.689 51.2596 83.689 49.3871 83.689 47.3975C84.3286 47.3975 84.9682 47.3975 85.6078 47.3975C85.7144 47.6316 85.7144 47.8657 85.7144 48.0998C85.7144 49.5041 85.7144 50.9085 85.7144 52.1958C85.7144 52.4299 85.7143 52.664 85.8209 53.0151C86.0341 53.8343 86.4605 53.9513 87.1001 53.6002C87.3133 53.2491 87.4199 52.898 87.4199 52.5469C87.5265 51.1425 87.4199 49.8552 87.4199 48.4508C87.4199 48.0997 87.4199 47.7486 87.4199 47.2805C88.0595 47.2805 88.6991 47.2805 89.3387 47.2805C89.4453 48.2168 89.4453 51.9618 89.3387 53.6002Z" fill="#C4C4C4"/>
<path d="M89.8717 52.7809C90.5113 52.7809 91.0442 52.7809 91.6838 52.7809C91.6838 53.3661 91.897 53.7171 92.43 53.8342C92.9629 53.9512 93.6026 53.9513 94.1355 53.6002C94.4553 53.3661 94.5619 52.8979 94.2421 52.3128C94.0289 52.0787 93.7091 51.9617 93.3894 51.9617C92.43 51.9617 91.5772 51.9617 90.6178 51.9617C90.4046 51.9617 90.1915 51.9617 89.9783 51.9617C89.9783 51.3765 89.9783 50.9084 89.9783 50.2062C91.1508 49.9722 92.3234 50.2063 93.6026 50.0892C93.9224 49.7381 93.9223 49.7381 93.8157 49.1529C93.2827 48.6848 93.2827 48.6849 92.43 48.9189C92.3234 49.0359 92.3234 49.27 92.2168 49.387C91.6838 49.387 91.0442 49.387 90.5113 49.387C90.5113 48.4507 90.9376 47.8656 91.5772 47.3975C92.5366 46.8123 94.0289 46.6953 95.0949 47.6315C95.841 48.2167 96.1608 49.0359 95.8411 50.0892C95.6279 50.4403 95.4147 50.6743 94.9883 50.9084C95.2015 51.0254 95.4147 51.1425 95.6278 51.2595C96.2674 51.7277 96.4807 52.4298 96.2675 53.132C96.0543 53.9512 95.6278 54.6534 94.8817 54.8875C93.3893 55.5897 91.897 55.4726 90.6178 54.3023C90.0848 54.1853 89.8717 53.4831 89.8717 52.7809Z" fill="#C4C4C4"/>
<path d="M92.4299 26.2149C91.897 26.2149 91.364 26.2149 90.831 26.2149C90.831 23.4062 90.831 20.7145 90.831 18.0228C91.0442 17.9057 91.1508 17.9058 91.364 17.9058C92.5365 17.9058 93.8157 17.9058 94.9883 17.9058C95.841 17.9058 96.4806 18.3738 96.907 19.3101C97.2268 20.1293 97.2268 21.0656 96.5872 21.7678C96.4806 21.8848 96.4806 21.8848 96.4806 22.0019C96.1608 22.2359 95.7344 22.47 95.308 22.587C96.4806 23.5233 97.0136 24.9276 97.7597 26.2149C97.1202 26.332 96.5872 26.2149 95.9476 26.2149C95.7344 25.9809 95.5212 25.7469 95.4146 25.5128C94.9882 24.9276 94.5619 24.3424 94.2421 23.6402C93.8157 22.9381 93.2827 22.587 92.4299 22.821C92.4299 23.8743 92.4299 25.0446 92.4299 26.2149ZM92.4299 21.2996C93.1761 21.2996 93.8157 21.2996 94.4553 21.2996C94.9883 21.2996 95.308 20.8315 95.4146 20.3634C95.4146 19.7782 95.2015 19.4271 94.6685 19.3101C93.9223 19.193 93.1761 19.3101 92.4299 19.3101C92.4299 20.0123 92.4299 20.5974 92.4299 21.2996Z" fill="#C4C4C4"/>
<path d="M158.946 14.2777C158.946 11.586 158.946 8.77723 158.946 6.08551C159.372 5.85145 159.905 6.08554 160.332 5.96851C161.291 7.72397 162.357 9.59649 163.423 11.469C163.423 9.59649 163.423 7.84098 163.423 6.08551C163.956 5.96848 164.382 5.96848 164.915 6.08551C164.915 8.89426 164.915 11.586 164.915 14.3948C164.489 14.5118 163.956 14.3947 163.423 14.5118C162.357 12.8733 161.504 11.1179 160.438 9.24537C160.438 11.0008 160.438 12.7563 160.438 14.5118C159.905 14.2777 159.479 14.3947 158.946 14.2777Z" fill="#C4C4C4"/>
<path d="M84.4352 65.1864C84.4352 65.6545 84.4352 66.1227 84.4352 66.4738C83.7956 66.4738 83.1561 66.4738 82.4099 66.4738C82.4099 66.0057 82.4099 65.6545 82.4099 65.1864C81.8769 65.0694 81.3439 65.0694 80.9176 65.0694C79.745 64.9524 78.9989 64.1331 78.6791 63.0799C78.2527 61.6755 78.3593 60.3881 79.3186 59.3348C80.1714 58.3986 81.4505 58.1645 82.6231 58.7497C83.7956 59.3348 84.4352 60.2711 84.4352 61.6755C84.4352 62.2606 84.4352 62.8458 84.4352 63.548C84.8616 63.548 85.288 63.548 85.7144 63.548C85.7144 64.1332 85.7144 64.7183 85.7144 65.3035C85.3946 65.1864 84.9682 65.1864 84.4352 65.1864ZM80.811 63.1969C81.344 63.665 81.8769 63.548 82.4099 63.4309C82.4099 62.6117 82.4099 61.7925 82.4099 60.9733C82.4099 60.2711 82.0901 60.0371 81.4505 60.0371C81.2373 60.0371 81.1307 60.154 80.9176 60.2711C80.278 61.2073 80.3846 62.2606 80.811 63.1969Z" fill="#C4C4C4"/>
<path d="M142.637 5.96824C144.022 5.96824 145.408 5.85118 146.687 6.08524C147.647 6.3193 148.286 7.13854 148.606 8.07478C149.139 9.36213 149.139 10.7665 148.713 12.1709C148.286 13.4582 147.433 14.1604 146.261 14.2774C145.088 14.3945 143.809 14.2774 142.637 14.2774C142.637 11.4687 142.637 8.77699 142.637 5.96824ZM144.236 12.873C144.875 12.873 145.515 12.8731 146.154 12.756C146.581 12.639 146.901 12.4049 147.114 11.9368C147.433 10.8835 147.434 9.83022 147.22 8.77694C147.114 8.07476 146.687 7.60666 146.048 7.48963C145.408 7.3726 144.875 7.48963 144.236 7.48963C144.236 9.2451 144.236 11.0005 144.236 12.873Z" fill="#C4C4C4"/>
<path d="M82.9429 22.0022C82.9429 20.5979 83.2626 19.4275 84.222 18.4913C84.5418 18.1402 84.9682 17.9061 85.5012 17.7891C86.5671 17.555 87.7397 17.555 88.699 18.1401C89.765 18.8423 90.298 20.0127 90.4046 21.3C90.5112 22.1192 90.4046 23.0555 90.1914 23.8747C89.765 25.162 88.5925 26.2153 87.3133 26.3323C86.6737 26.3323 86.1407 26.4494 85.5012 26.2153C84.4352 25.8642 83.689 25.045 83.3692 23.9917C82.9429 23.2895 82.8363 22.5874 82.9429 22.0022ZM84.6484 22.0022C84.6484 22.2363 84.6484 22.5873 84.6484 22.8214C84.6484 23.0554 84.755 23.2895 84.8616 23.4065C85.1814 24.2258 85.9276 24.8109 86.6738 24.8109C87.5265 24.8109 88.1661 24.3428 88.4858 23.4065C88.8056 22.4703 88.8056 21.5341 88.4858 20.5978C88.1661 19.6616 87.5265 19.1934 86.6738 19.1934C85.7144 19.1934 85.0748 19.7786 84.8616 20.4808C84.6484 20.9489 84.5418 21.4171 84.6484 22.0022Z" fill="#C4C4C4"/>
<path d="M201.051 12.8733C201.051 13.3414 201.051 13.8096 201.051 14.2777C199.133 14.2777 197.214 14.2777 195.295 14.2777C195.295 11.4689 195.295 8.77726 195.295 5.96851C197.214 5.96851 199.026 5.96851 200.945 5.96851C200.945 6.43663 200.945 6.90474 200.945 7.4899C199.665 7.4899 198.28 7.4899 197.001 7.4899C197.001 8.07505 197.001 8.66021 197.001 9.24537C198.28 9.24537 199.452 9.24537 200.731 9.24537C200.731 9.83052 200.731 10.2986 200.731 10.7668C199.452 10.7668 198.28 10.7668 197.001 10.7668C197.001 11.4689 197.001 12.1711 197.001 12.8733C198.28 12.8733 199.666 12.8733 201.051 12.8733Z" fill="#C4C4C4"/>
<path d="M137.413 66.5906C136.774 66.5906 136.134 66.5906 135.495 66.5906C135.388 66.4736 135.388 66.2395 135.388 66.0055C135.388 64.6011 135.388 63.0797 135.388 61.6753C135.388 61.0901 135.281 60.505 134.855 60.1539C134.322 60.1539 134.322 60.1539 133.896 60.2709C133.683 60.622 133.576 61.0902 133.576 61.5583C133.576 62.9627 133.576 64.367 133.576 65.7714C133.576 66.0055 133.576 66.2396 133.576 66.4736C132.936 66.4736 132.297 66.4736 131.764 66.4736C131.657 66.3566 131.657 66.1225 131.657 66.0055C131.657 64.367 131.657 62.8457 131.657 61.2072C131.657 59.6858 132.723 58.3984 134.216 58.3984C134.642 58.3984 135.175 58.3984 135.601 58.5154C136.454 58.8665 137.094 59.4517 137.307 60.505C137.413 60.8561 137.413 61.3242 137.413 61.6753C137.413 63.3137 137.413 64.9522 137.413 66.5906Z" fill="#C4C4C4"/>
<path d="M210.752 66.5906C210.112 66.5906 209.472 66.5906 208.939 66.5906C208.833 66.3566 208.833 66.2395 208.833 66.0055C208.833 64.4841 208.833 63.0797 208.833 61.5583C208.833 60.8561 208.726 60.622 208.3 60.1539C208.087 60.1539 207.873 60.1539 207.767 60.1539C207.447 60.2709 207.234 60.388 207.234 60.7391C207.234 61.0902 207.127 61.4412 207.127 61.6753C207.127 63.0797 207.127 64.367 207.127 65.7714C207.127 66.0055 207.127 66.2396 207.127 66.4736C206.488 66.4736 205.848 66.4736 205.208 66.4736C205.208 66.3566 205.208 66.3566 205.208 66.2395C205.208 64.4841 205.208 62.7286 205.208 61.0901C205.208 59.4517 206.275 58.5155 207.66 58.3984C208.087 58.3984 208.513 58.3984 209.046 58.5154C210.005 58.8665 210.858 59.8028 210.858 61.2072C210.645 62.9627 210.752 64.7181 210.752 66.5906Z" fill="#C4C4C4"/>
<path d="M161.504 49.7383C160.865 49.8553 160.332 49.8553 159.692 49.7383C159.585 49.3872 159.479 48.9191 159.052 48.802C158.733 48.685 158.519 48.802 158.306 49.1531C158.306 49.3872 158.2 49.7383 158.306 49.9723C158.413 50.2064 158.626 50.3234 158.839 50.3234C159.266 50.4404 159.585 50.5575 160.012 50.5575C160.865 50.7916 161.398 51.3767 161.611 52.313C161.824 53.2492 161.717 53.9514 161.078 54.6536C160.651 55.1217 160.118 55.2388 159.585 55.3558C158.946 55.4728 158.2 55.4728 157.56 55.2387C156.707 54.8876 155.961 54.0684 155.961 52.664C156.601 52.547 157.24 52.664 157.88 52.664C158.093 53.0151 157.88 53.3663 158.2 53.6003C158.519 53.8344 158.839 53.7173 159.159 53.7173C159.266 53.6003 159.479 53.4833 159.585 53.3663C159.692 53.1322 159.692 52.8981 159.585 52.547C159.372 52.1959 158.946 52.0789 158.626 51.9619C158.306 51.8448 157.986 51.8448 157.667 51.7278C156.707 51.3767 156.174 50.5575 156.068 49.5043C156.068 48.3339 156.814 47.3977 157.667 47.1636C158.413 46.9296 159.266 46.9295 160.012 47.2806C161.078 47.7488 161.611 48.685 161.504 49.7383Z" fill="#C4C4C4"/>
<path d="M167.26 52.7811C167.9 52.664 168.539 52.7811 169.179 52.7811C169.392 53.0151 169.179 53.2492 169.392 53.4832C169.392 53.6003 169.605 53.7173 169.819 53.8343C170.245 53.9513 170.565 53.9514 170.991 53.4832C171.204 53.1321 171.204 52.8981 170.885 52.43C170.458 52.0789 169.925 52.0789 169.286 51.9618C168.433 51.7278 167.793 51.1426 167.58 50.2064C167.367 49.1531 167.793 47.8657 168.753 47.3976C169.712 46.9295 170.778 47.0465 171.737 47.5147C172.484 47.8658 172.91 48.6849 172.803 49.7382C172.164 49.7382 171.524 49.7382 170.991 49.7382C170.778 49.5042 170.991 49.2701 170.778 49.1531C170.245 48.6849 170.032 48.802 169.605 49.2701C169.499 49.5042 169.605 49.8553 169.605 50.0894C169.712 50.4405 169.925 50.4404 170.138 50.5575C170.671 50.6745 171.098 50.7915 171.631 50.9085C172.484 51.1426 173.017 51.9618 173.123 52.8981C173.23 53.8343 172.91 54.6536 171.951 55.1217C170.991 55.7069 169.925 55.7069 168.859 55.3558C168.007 55.0047 167.474 54.4195 167.367 53.3662C167.26 53.1322 167.154 53.0151 167.26 52.7811Z" fill="#C4C4C4"/>
<path d="M181.971 12.8733C181.971 13.3414 181.971 13.8096 181.971 14.2777C180.052 14.2777 178.133 14.2777 176.214 14.2777C176.214 11.4689 176.214 8.77726 176.214 5.96851C178.027 5.96851 179.945 5.96851 181.864 5.96851C181.971 6.43663 181.864 6.90474 181.864 7.4899C180.478 7.4899 179.199 7.4899 177.813 7.4899C177.813 8.07505 177.813 8.66021 177.813 9.24537C179.093 9.24537 180.265 9.24537 181.544 9.24537C181.544 9.83052 181.544 10.2986 181.544 10.7668C180.265 10.7668 179.093 10.7668 177.813 10.7668C177.813 11.4689 177.813 12.1711 177.813 12.8733C179.093 12.8733 180.478 12.8733 181.971 12.8733Z" fill="#C4C4C4"/>
<path d="M164.276 21.0654C164.276 21.5336 164.276 21.8847 164.276 22.2357C164.276 22.3528 164.276 22.4699 164.169 22.5869C162.996 22.5869 161.717 22.5869 160.545 22.5869C160.545 23.2891 160.545 23.9913 160.545 24.6934C161.931 24.6934 163.316 24.6934 164.702 24.6934C164.702 25.1616 164.702 25.6297 164.702 26.0978C164.276 26.2149 160.012 26.2149 158.946 26.0978C158.946 23.4061 158.946 20.5973 158.946 17.7886C160.865 17.7886 162.677 17.7886 164.595 17.7886C164.702 18.2567 164.595 18.7248 164.702 19.193C163.316 19.193 162.037 19.193 160.651 19.193C160.651 19.7781 160.651 20.3633 160.651 20.9484C161.824 21.0655 162.997 21.0654 164.276 21.0654Z" fill="#C4C4C4"/>
<path d="M192.524 64.016C193.163 64.016 193.803 64.016 194.442 64.016C194.549 64.2501 194.442 64.7182 194.762 64.9523C195.188 65.1863 195.615 65.1864 196.041 64.8353C196.361 64.1331 196.254 63.6649 195.508 63.4309C195.082 63.3138 194.549 63.1968 194.122 63.0798C193.27 62.8457 192.524 61.6754 192.63 60.5051C192.843 59.2178 193.803 58.2815 194.975 58.3985C195.402 58.3985 195.828 58.3985 196.148 58.5156C197.214 58.6326 197.96 59.92 197.853 60.9732C197.534 61.0903 197.214 60.9732 196.894 60.9732C196.574 60.9732 196.254 60.9732 195.935 60.9732C195.828 60.6222 195.828 60.271 195.402 60.154C195.295 60.154 195.082 60.154 194.869 60.154C194.442 60.6221 194.442 60.8562 194.762 61.5584C195.295 61.7925 195.828 61.9095 196.361 62.0265C197.64 62.2606 198.493 63.899 197.853 65.4204C197.64 65.8885 197.32 66.2397 196.894 66.4737C195.935 66.9419 194.975 67.0588 193.909 66.7077C193.057 66.2396 192.31 65.1863 192.524 64.016Z" fill="#C4C4C4"/>
<path d="M99.6785 14.2777C99.6785 11.4689 99.6785 8.77726 99.6785 5.96851C101.491 5.96851 103.409 5.96851 105.221 5.96851C105.221 6.43663 105.221 6.90477 105.221 7.37289C103.942 7.37289 102.557 7.37289 101.277 7.37289C101.171 7.95805 101.277 8.54321 101.171 9.12836C102.45 9.12836 103.623 9.12836 104.902 9.12836C104.902 9.59649 104.902 10.0646 104.902 10.6498C103.623 10.6498 102.45 10.6498 101.171 10.6498C101.064 11.3519 101.171 12.0541 101.171 12.7563C102.557 12.7563 103.942 12.7563 105.328 12.7563C105.435 13.2244 105.328 13.6926 105.435 14.1607C103.516 14.2777 101.597 14.2777 99.6785 14.2777Z" fill="#C4C4C4"/>
<path d="M126.434 24.6936C126.434 25.1617 126.434 25.6298 126.434 26.0979C125.901 26.215 121.85 26.2149 120.678 26.2149C120.678 23.5232 120.678 20.7145 120.678 17.9058C122.597 17.9058 124.409 17.9058 126.327 17.9058C126.327 18.3739 126.327 18.842 126.327 19.3101C124.942 19.3101 123.663 19.3101 122.277 19.3101C122.17 19.8952 122.277 20.4804 122.17 21.0655C123.449 21.0655 124.729 21.0655 125.901 21.0655C126.008 21.1826 126.008 21.2996 126.008 21.5337C126.008 21.8848 126.008 22.2359 125.901 22.704C125.262 22.704 124.622 22.704 124.089 22.704C123.449 22.704 122.81 22.704 122.17 22.704C122.17 23.4062 122.17 24.1084 122.17 24.8106C122.597 24.9276 123.13 24.8106 123.556 24.9276C123.982 24.9276 124.515 24.9276 124.942 24.9276C125.475 24.6936 125.901 24.6936 126.434 24.6936Z" fill="#C4C4C4"/>
<path d="M91.897 61.6755C90.5112 61.6755 89.2321 61.6755 87.8463 61.6755C87.8463 62.7288 87.7397 63.665 87.9529 64.6013C88.0595 64.8353 88.1661 64.9523 88.3793 64.9523C88.8057 65.1864 89.4453 64.9523 89.4453 64.3672C89.5519 64.1331 89.5518 63.7821 89.5518 63.548C89.5518 63.314 89.5518 63.0799 89.5518 62.7288C90.1914 62.7288 90.831 62.7288 91.4706 62.7288C91.4706 63.3139 91.5772 63.8991 91.4706 64.3672C91.0442 66.0056 89.7651 66.8249 88.2727 66.5908C87.5266 66.4738 86.887 66.1227 86.4606 65.5375C86.0342 65.0694 85.821 64.4843 85.821 63.8991C85.821 62.1436 85.821 60.3882 85.821 58.6327C85.821 58.6327 85.821 58.5156 85.9276 58.5156C86.5672 58.5156 87.1002 58.5156 87.8463 58.5156C87.8463 58.9837 87.8463 59.3349 87.8463 59.92C88.4859 59.92 89.1255 59.92 89.765 59.92C90.4046 59.92 91.0442 59.92 91.7904 59.92C92.0036 60.5052 91.897 61.0903 91.897 61.6755Z" fill="#C4C4C4"/>
<path d="M140.185 22.587C140.185 23.4062 140.185 23.9914 140.185 24.6936C141.571 24.6936 142.956 24.6936 144.342 24.6936C144.449 25.1617 144.342 25.6298 144.342 26.0979C143.809 26.215 139.758 26.332 138.586 26.2149C138.586 23.5232 138.586 20.7145 138.586 17.9058C140.505 17.9058 142.317 17.9058 144.236 17.9058C144.236 18.3739 144.236 18.842 144.236 19.3101C142.85 19.3101 141.571 19.3101 140.185 19.3101C140.078 19.8952 140.185 20.4804 140.078 21.0655C141.357 21.0655 142.53 21.0655 143.809 21.0655C143.809 21.6507 143.809 22.1189 143.809 22.587C142.637 22.587 141.464 22.587 140.185 22.587Z" fill="#C4C4C4"/>
<path d="M79.9582 5.96851C80.4912 5.96851 81.0242 5.96851 81.6638 5.96851C82.6231 8.66022 83.6891 11.4689 84.6484 14.2777C84.1155 14.3947 83.4759 14.2777 82.9429 14.2777C82.6231 13.6925 82.5165 12.9904 82.1967 12.4052C81.2374 12.4052 80.278 12.4052 79.3186 12.4052C78.9989 12.9904 78.8922 13.6925 78.5725 14.2777C78.0395 14.2777 77.5065 14.2777 76.8669 14.2777C77.9329 11.4689 78.8922 8.77726 79.9582 5.96851ZM80.7044 8.07505C80.3846 9.12833 80.0648 10.0646 79.745 11.0008C80.3846 11.0008 80.9176 11.0008 81.6638 11.0008C81.344 10.0646 81.1308 9.12833 80.7044 8.07505Z" fill="#C4C4C4"/>
<path d="M167.047 62.2604C167.687 62.2604 168.326 62.2604 168.966 62.2604C168.966 63.0797 169.072 63.7819 168.966 64.6011C168.859 65.5373 168.326 66.1225 167.58 66.4736C166.621 66.9417 165.661 66.9417 164.702 66.4736C163.956 66.0055 163.529 65.3032 163.316 64.367C163.21 63.6648 163.21 62.8456 163.21 62.1434C163.21 61.5583 163.21 61.0901 163.21 60.505C162.783 60.2709 162.357 60.505 161.93 60.388C161.824 59.8028 161.93 59.3347 161.93 58.7495C162.463 58.7495 163.103 58.7495 163.636 58.7495C164.169 58.7495 164.702 58.7495 165.235 58.7495C165.342 58.9836 165.342 59.3347 165.342 59.4517C165.342 60.8561 165.342 62.2605 165.342 63.6648C165.342 63.8989 165.342 64.0159 165.342 64.25C165.448 65.1862 166.088 65.4203 166.834 64.9522C167.154 64.0159 166.94 63.1967 167.047 62.2604Z" fill="#C4C4C4"/>
<path d="M147.114 49.0359C146.687 49.0359 146.261 49.0359 145.835 49.0359C145.835 48.4508 145.835 47.8656 145.835 47.3975C145.941 47.3975 146.048 47.3975 146.154 47.3975C147.114 47.3975 148.073 47.3975 149.032 47.3975C149.139 47.6315 149.139 47.7486 149.139 47.9826C149.139 49.504 149.139 50.9085 149.139 52.4299C149.139 53.132 149.246 53.3661 149.672 53.8342C150.418 53.9512 150.738 53.7172 150.738 52.8979C150.738 52.3128 150.738 51.7276 150.845 51.1425C151.164 51.0254 151.484 51.1425 151.804 51.1425C152.124 51.1425 152.444 51.1425 152.763 51.1425C152.763 51.9617 152.87 52.6639 152.763 53.3661C152.55 54.8875 151.697 55.4727 150.525 55.7067C149.565 55.8238 148.606 55.7067 147.86 54.8875C147.433 54.4194 147.114 53.7172 147.114 53.015C147.114 51.9617 147.114 50.7914 147.114 49.7381C147.22 49.504 147.327 49.27 147.114 49.0359Z" fill="#C4C4C4"/>
<path d="M118.653 23.0551C119.079 23.2891 119.612 23.4062 120.038 23.6402C119.932 25.0446 118.546 26.3319 117.16 26.3319C115.028 26.449 113.429 24.5765 113.429 22.3529C113.429 21.6507 113.429 20.8315 113.643 20.1293C114.069 18.8419 115.348 17.6717 116.627 17.6717H116.734C118.333 17.5546 119.292 18.0227 120.038 20.1293C119.612 20.4804 119.079 20.3634 118.653 20.5974C118.439 20.4804 118.439 20.3634 118.333 20.2464C118.013 19.5442 117.48 19.193 116.84 19.31C116.201 19.31 115.561 19.6612 115.348 20.3634C114.922 21.5337 114.922 22.704 115.348 23.8743C115.561 24.5765 116.201 24.9276 116.84 24.9276C117.48 24.9276 118.013 24.5765 118.226 23.8743C118.439 23.5232 118.546 23.2891 118.653 23.0551Z" fill="#C4C4C4"/>
<path d="M174.083 11.2348C174.615 11.3518 175.042 11.4688 175.575 11.7029C175.362 13.1072 174.296 14.2776 173.017 14.3946C172.377 14.5117 171.631 14.5117 170.991 14.1606C169.819 13.5754 169.179 12.5221 168.966 11.1177C168.859 10.1815 168.859 9.24526 169.179 8.30901C169.712 6.67057 171.098 5.61725 172.91 5.85131C174.402 5.96834 175.042 6.90464 175.575 8.30901C175.148 8.6601 174.509 8.54303 174.189 8.77709C173.976 8.66006 173.976 8.54304 173.869 8.42601C173.55 7.72383 173.017 7.37275 172.377 7.48978C171.737 7.48978 171.204 7.8409 170.885 8.54309C170.778 8.89418 170.671 9.24523 170.671 9.59633C170.671 10.2985 170.565 11.0007 170.778 11.7029C171.098 12.6391 171.631 13.1073 172.484 13.1073C173.123 13.1073 173.549 12.7562 173.763 12.171C173.869 11.7029 173.976 11.4689 174.083 11.2348Z" fill="#C4C4C4"/>
<path d="M189.113 23.6401C188.899 24.3423 188.686 24.9275 188.26 25.3956C187.833 25.8637 187.3 26.2148 186.767 26.3318C184.209 26.8 182.61 24.9275 182.504 22.5869C182.504 21.7677 182.504 21.0655 182.717 20.2463C183.037 18.9589 184.316 17.7886 185.595 17.7886C186.021 17.7886 186.554 17.7886 186.981 17.7886C187.727 17.9056 188.26 18.4908 188.686 19.193C188.899 19.427 189.006 19.7781 189.113 20.1292C188.686 20.4803 188.153 20.3633 187.727 20.5974C187.514 20.4803 187.514 20.3633 187.407 20.1292C187.087 19.427 186.661 19.193 186.021 19.193C185.382 19.193 184.742 19.427 184.529 20.1292C184.103 21.2995 184.103 22.4699 184.529 23.7572C184.849 24.8105 186.234 25.1616 186.981 24.4594C187.087 24.3423 187.194 24.2253 187.3 23.9912C187.407 23.6401 187.62 23.4061 187.727 23.055C188.153 23.289 188.686 23.289 189.113 23.6401Z" fill="#C4C4C4"/>
<path d="M156.814 23.0549C157.347 23.1719 157.773 23.406 158.306 23.523C158.093 24.9274 156.814 26.2147 155.322 26.3317C153.296 26.3317 151.804 24.5763 151.804 22.5868C151.804 21.6505 151.804 20.5972 152.124 19.778C152.657 18.4907 153.616 17.7885 154.895 17.6715C156.494 17.5544 157.453 17.7885 158.306 20.0121C157.88 20.3632 157.24 20.2461 156.814 20.4802C156.601 20.3631 156.601 20.2461 156.601 20.1291C156.281 19.4269 155.748 19.0759 155.108 19.0759C154.469 19.0759 153.936 19.4269 153.616 20.0121C153.509 20.3632 153.403 20.7142 153.403 21.0653C153.403 21.8845 153.296 22.5867 153.509 23.406C153.829 24.3422 154.362 24.6933 155.108 24.6933C155.855 24.6933 156.281 24.2252 156.601 23.523C156.707 23.406 156.707 23.1719 156.814 23.0549Z" fill="#C4C4C4"/>
<path d="M204.569 63.5482C203.929 63.5482 203.29 63.5482 202.544 63.5482C202.544 62.846 202.544 62.1438 202.544 61.5587C202.544 61.3246 202.544 60.9735 202.437 60.7395C202.224 60.2713 202.011 60.1543 201.584 60.1543C201.158 60.2713 200.945 60.5054 200.838 60.9735C200.838 61.6757 200.838 62.3779 200.838 63.0801C200.838 64.2504 200.838 65.3037 200.838 66.591C200.199 66.708 199.559 66.591 198.919 66.591C198.706 66.474 198.813 66.2399 198.813 66.1229C198.813 64.7185 198.813 63.3142 198.813 61.7928C198.813 61.3246 198.813 60.8565 198.919 60.5054C199.239 59.4521 199.879 58.7499 200.838 58.5158C202.011 58.2818 203.077 58.3989 203.929 59.4521C204.249 59.8032 204.356 60.1543 204.462 60.6225C204.569 61.6757 204.569 62.495 204.569 63.5482Z" fill="#C4C4C4"/>
<path d="M97.9729 63.5483C97.3334 63.5483 96.6938 63.5483 96.0542 63.5483C96.0542 62.9631 96.0542 62.2609 96.0542 61.6757C96.0542 61.4417 96.0542 61.3246 96.0542 61.0906C95.9476 60.6224 95.841 60.2714 95.4146 60.1543C95.0948 60.0373 94.775 60.1543 94.3487 60.7395C94.3487 62.612 94.3487 64.6015 94.3487 66.591C93.6025 66.591 92.9629 66.591 92.3234 66.591C92.2168 66.474 92.2167 66.24 92.2167 66.0059C92.2167 64.6015 92.2167 63.1971 92.2167 61.6757C92.2167 61.4417 92.2168 61.0906 92.3234 60.8565C92.5366 59.5691 93.1761 58.7499 94.3487 58.5159C95.4146 58.2818 96.4806 58.3988 97.3334 59.3351C97.7598 59.8032 97.9729 60.3884 97.9729 60.9736C98.0795 61.7928 97.9729 62.612 97.9729 63.5483Z" fill="#C4C4C4"/>
<path d="M178.666 60.739C178.666 62.7285 178.666 64.6011 178.666 66.4736C178.027 66.5906 177.387 66.4736 176.641 66.4736C176.641 65.7714 176.641 65.0692 176.641 64.25C175.681 64.8351 174.829 64.601 173.976 64.0159C173.443 63.6648 173.017 63.0797 173.017 62.3775C172.91 61.0901 173.017 59.8027 172.91 58.5154C173.549 58.3984 174.189 58.5154 174.829 58.5154C174.935 59.9198 174.722 61.3241 175.042 62.6115C175.575 63.0796 176.001 63.0797 176.428 62.7286C176.747 62.1434 176.641 61.4412 176.641 60.739C177.387 60.739 177.92 60.739 178.666 60.739Z" fill="#C4C4C4"/>
<path d="M126.327 49.5041C126.327 51.4936 126.327 53.3661 126.327 55.3556C125.688 55.3556 125.048 55.3556 124.302 55.3556C124.302 54.6535 124.302 53.9512 124.302 53.132C123.236 53.6001 122.383 53.3661 121.531 52.7809C120.998 52.3128 120.678 51.8447 120.678 51.1425C120.571 49.9722 120.678 48.6848 120.678 47.3975C121.317 47.3975 121.957 47.3975 122.597 47.3975C122.81 48.6848 122.49 50.0892 122.81 51.3766C123.13 51.8447 123.556 51.7276 123.876 51.7276C124.622 51.2595 124.302 50.3233 124.409 49.6211C124.942 49.5041 125.581 49.5041 126.327 49.5041Z" fill="#C4C4C4"/>
<path d="M136.774 51.7276C137.413 51.1425 137.2 50.3233 137.307 49.6211C137.946 49.6211 138.586 49.6211 139.226 49.6211C139.226 51.4936 139.226 53.4831 139.226 55.3556C138.586 55.3556 137.946 55.3556 137.307 55.3556C137.307 54.6535 137.307 53.9512 137.307 53.132C136.241 53.7172 135.388 53.4831 134.535 52.7809C134.002 52.4298 133.789 51.8447 133.683 51.2595C133.576 50.6744 133.576 50.2062 133.576 49.6211C133.576 48.9189 133.576 48.2167 133.576 47.3975C134.322 47.3975 134.962 47.3975 135.601 47.3975C135.708 48.8018 135.495 50.2062 135.814 51.3766C136.028 51.7276 136.454 51.7276 136.774 51.7276Z" fill="#C4C4C4"/>
<path d="M79.3186 19.31C79.3186 20.0122 79.3186 20.5974 79.3186 21.1825C79.8516 21.2995 80.3846 21.1825 80.811 21.1825C81.344 21.1825 81.7703 21.1825 82.3033 21.1825C82.3033 21.6506 82.3033 22.1187 82.3033 22.7039C81.3439 22.7039 80.278 22.7039 79.2121 22.7039C79.2121 23.8742 79.2121 24.9275 79.2121 26.0978C78.6791 26.2149 78.1461 26.2149 77.6131 26.0978C77.6131 23.2891 77.6131 20.5973 77.6131 17.7886C79.3187 17.7886 81.1308 17.7886 82.8363 17.7886C82.9429 18.2567 82.8363 18.7248 82.9429 19.193C81.7704 19.31 80.4912 19.31 79.3186 19.31Z" fill="#C4C4C4"/>
<path d="M81.1308 55.3555C81.1308 54.4192 81.1308 53.6 81.1308 52.7808C80.3846 51.7275 79.4252 52.3126 78.5725 52.0785C78.5725 51.4934 78.5725 51.0253 78.5725 50.4401C79.1054 50.4401 79.5318 50.4401 79.9582 50.3231C80.4912 50.206 80.7044 49.972 80.7044 49.6209C80.7044 49.2698 80.4912 49.0358 80.0648 48.9188C79.6384 48.9188 79.3186 48.9188 78.8922 48.9188C78.7856 48.9188 78.6791 48.9188 78.5725 48.9188C78.4659 48.3336 78.5725 47.8654 78.5725 47.2803C79.3186 47.2803 80.1714 47.1633 80.9176 47.2803C81.9835 47.3973 82.8363 48.4506 82.7297 49.7379C82.7297 50.3231 82.4099 50.7912 81.9835 51.0253C81.9835 51.2594 82.1967 51.2593 82.3033 51.3764C82.7297 51.7275 83.1561 52.3127 83.1561 53.0148C83.1561 53.8341 83.1561 54.6532 83.1561 55.5895C82.4099 55.3554 81.877 55.3555 81.1308 55.3555Z" fill="#C4C4C4"/>
<path d="M162.144 51.9617C162.144 51.6106 162.144 51.1425 162.144 50.6744C162.144 50.5574 162.144 50.4403 162.25 50.3232C162.783 50.2062 163.423 50.4403 164.062 50.0892C164.169 50.0892 164.276 49.9722 164.276 49.8552C164.382 49.6211 164.382 49.387 164.276 49.1529C163.743 48.4507 162.89 48.8019 162.144 48.6849C162.144 48.0997 162.144 47.6315 162.144 47.0464C162.997 47.1634 163.956 46.9294 164.809 47.1635C165.661 47.3975 166.194 48.0997 166.408 49.1529C166.514 49.6211 166.301 50.0892 166.088 50.4403C165.981 50.5574 165.875 50.7914 165.661 50.9084C165.661 51.1425 165.875 51.1425 165.981 51.2596C166.621 51.7277 166.834 52.4298 166.834 53.249C166.834 53.9512 166.834 54.5364 166.834 55.2386C166.194 55.2386 165.555 55.2386 164.915 55.2386C164.809 55.0045 164.809 54.7705 164.809 54.5364C164.809 54.0683 164.809 53.7172 164.809 53.249C164.809 52.3128 164.489 52.0787 163.743 51.9617C163.423 51.9617 163.103 51.9617 162.677 51.9617C162.464 52.0787 162.25 52.0787 162.144 51.9617Z" fill="#C4C4C4"/>
<path d="M103.942 49.1528C103.303 48.6847 102.557 48.9188 101.917 48.8017C101.917 48.2166 101.917 47.7485 101.917 47.2803C102.237 47.1633 103.836 47.1633 104.155 47.1633C104.582 47.2804 104.902 47.3973 105.221 47.6314C106.181 48.4506 106.394 49.972 105.328 50.9083C105.328 51.0253 105.541 51.0253 105.648 51.1423C106.181 51.6105 106.501 52.1956 106.501 52.8978C106.501 53.6 106.501 54.4192 106.501 55.2384C105.861 55.2384 105.221 55.2384 104.582 55.2384C104.475 54.8873 104.582 54.4193 104.582 53.9511C104.582 53.483 104.582 53.1319 104.582 52.6637C104.369 52.0786 104.049 51.9616 103.623 51.9616C103.09 51.9616 102.557 51.9616 102.024 51.9616C101.917 51.3764 102.024 50.7912 101.917 50.3231C102.237 50.2061 102.45 50.3231 102.77 50.2061C102.983 50.2061 103.196 50.2061 103.409 50.0891C104.049 50.2061 104.155 49.855 103.942 49.1528Z" fill="#C4C4C4"/>
<path d="M191.138 7.4898C190.392 7.4898 189.752 7.4898 189.006 7.4898C189.006 7.02167 189.006 6.55353 189.006 6.08541C189.432 5.96838 193.483 5.85137 194.975 5.9684C195.082 6.20247 194.975 6.4365 195.082 6.67056C195.082 6.90462 195.082 7.13873 195.082 7.37279C194.336 7.37279 193.59 7.37279 192.843 7.37279C192.843 9.71342 192.843 11.937 192.843 14.1606C192.31 14.2776 191.777 14.1606 191.351 14.1606C191.244 13.5754 191.351 12.9902 191.244 12.5221C191.244 11.937 191.244 11.3518 191.244 10.7667C191.244 10.1815 191.244 9.59634 191.244 9.01119C191.138 8.54306 191.244 8.07495 191.138 7.4898Z" fill="#C4C4C4"/>
<path d="M195.189 17.9056C195.189 18.3738 195.189 18.8418 195.189 19.31C194.442 19.31 193.803 19.31 193.057 19.31C193.057 21.6506 193.057 23.8742 193.057 26.0978C192.524 26.0978 191.991 26.0978 191.458 26.0978C191.458 25.0446 191.458 23.8742 191.458 22.7039C191.458 21.5336 191.458 20.4803 191.458 19.193C190.711 19.193 189.965 19.193 189.219 19.193C189.219 18.7248 189.219 18.2567 189.219 17.7886C191.244 17.9056 193.163 17.9056 195.189 17.9056Z" fill="#C4C4C4"/>
<path d="M132.723 17.9058C133.256 17.9058 133.789 17.9058 134.322 17.9058C134.322 20.1294 134.322 22.3529 134.322 24.6936C135.601 24.6936 136.88 24.6936 138.053 24.6936C138.053 25.1617 138.053 25.6298 138.053 26.0979C136.241 26.0979 134.535 26.0979 132.723 26.0979C132.723 23.4062 132.723 20.7145 132.723 17.9058Z" fill="#C4C4C4"/>
<path d="M50.4312 93.2739C49.5784 93.2739 48.7256 93.2739 47.8729 93.2739C47.5531 93.742 47.5531 94.4442 47.1267 94.9123C46.8069 95.0293 46.4871 95.0294 46.2739 94.5612C46.1673 93.859 46.4871 93.2739 46.7003 92.6887C47.1267 91.2843 47.6597 89.88 48.1926 88.4756C48.5124 87.6564 49.0454 87.4223 49.7916 87.8904C50.5377 89.7629 51.284 91.7525 52.0301 93.742C52.1367 93.9761 52.1367 94.2101 52.0301 94.4442C51.8169 94.7953 51.6037 94.9123 51.1773 94.7952C50.7509 94.4441 50.8576 93.742 50.4312 93.2739ZM49.152 89.1778C48.8322 90.231 48.5124 91.1673 48.1926 92.1035C48.8322 92.1035 49.4718 92.1035 50.1113 92.1035C49.7916 91.1673 49.4718 90.231 49.152 89.1778Z" fill="#C4C4C4"/>
<path d="M66.7403 90.2311C66.5271 90.3481 66.3139 90.3481 66.1007 90.3481C65.8875 90.2311 65.7809 89.997 65.5677 89.7629C65.0347 88.8267 64.3952 88.7096 63.5424 88.9437C62.7963 89.1778 62.5831 89.88 62.4765 90.5822C62.3699 90.9333 62.4765 91.2844 62.4765 91.6355C62.4765 92.5717 62.7963 93.2739 63.5424 93.742C63.7556 93.742 63.9688 93.742 64.182 93.742C64.9282 93.8591 65.4612 93.2739 65.6744 92.5717C65.781 92.3377 65.8875 92.1036 65.9941 91.9866C66.2073 91.9866 66.4205 91.8695 66.6337 92.1036C66.8469 92.4547 66.8469 92.9228 66.6337 93.2739C66.2073 94.2101 65.5677 94.7953 64.5018 94.7953C63.9688 94.7953 63.5424 94.7953 63.0095 94.6783C61.9435 94.3272 61.0907 93.1568 61.0907 91.8695C61.0907 91.1673 60.9841 90.4651 61.1973 89.7629C61.6237 88.5926 62.3698 87.8905 63.4358 87.6564C64.6084 87.4223 65.5677 87.7735 66.3139 88.7097C66.8469 89.2949 66.9535 89.763 66.7403 90.2311Z" fill="#C4C4C4"/>
<path d="M137.52 58.6328C138.16 58.6328 138.693 58.6328 139.332 58.6328C139.439 59.335 139.332 60.0372 139.439 60.7394C139.972 60.7394 140.505 60.7394 141.144 60.7394C141.144 61.3245 141.144 61.9097 141.144 62.3778C140.611 62.4949 140.078 62.3778 139.439 62.4948C139.439 63.8992 139.439 65.1865 139.439 66.5909C138.799 66.708 138.16 66.5909 137.52 66.5909C137.52 64.2503 137.52 61.7927 137.52 59.452C137.52 59.101 137.52 58.8669 137.52 58.6328Z" fill="#C4C4C4"/>
<path d="M126.967 17.9058C127.5 17.9058 127.926 17.9058 128.459 17.9058C128.459 20.1294 128.459 22.3529 128.459 24.6936C129.739 24.6936 131.018 24.6936 132.19 24.6936C132.19 25.1617 132.19 25.6298 132.19 26.0979C131.764 26.215 127.82 26.215 126.967 26.0979C126.967 25.5128 126.967 18.959 126.967 17.9058Z" fill="#C4C4C4"/>
<path d="M60.3446 88.9435C59.8116 88.9435 59.2786 88.9435 58.7456 88.9435C58.639 89.1776 58.639 89.2946 58.639 89.5287C58.639 91.0501 58.639 92.4545 58.639 93.9759C58.639 94.327 58.639 94.6781 58.3192 94.9121C58.106 95.0292 57.8929 95.0292 57.6797 94.9121C57.3599 94.6781 57.3599 94.327 57.3599 93.9759C57.3599 92.5715 57.3599 91.1671 57.3599 89.6457C57.3599 89.4117 57.3599 89.1776 57.3599 88.9435C56.7203 88.9435 56.1873 88.9435 55.6543 88.9435C55.1213 88.3583 55.1213 88.3583 55.6543 87.7732C57.2533 87.7732 58.7456 87.7732 60.3446 87.7732C60.6644 87.8902 60.7709 88.1243 60.6643 88.4754C60.7709 88.7095 60.5578 88.8265 60.3446 88.9435Z" fill="#C4C4C4"/>
<path d="M133.789 5.96851C134.322 5.96851 134.749 5.96851 135.282 5.96851C135.282 8.77726 135.282 11.4689 135.282 14.2777C134.749 14.2777 134.322 14.2777 133.789 14.2777C133.789 11.4689 133.789 8.77726 133.789 5.96851Z" fill="#C4C4C4"/>
<path d="M180.478 17.9058C181.011 17.9058 181.438 17.9058 181.971 17.9058C181.971 20.7145 181.971 23.4062 181.971 26.2149C181.438 26.332 181.011 26.2149 180.478 26.2149C180.478 23.4062 180.478 20.5975 180.478 17.9058Z" fill="#C4C4C4"/>
<path d="M169.819 26.2149C169.286 26.2149 168.859 26.2149 168.326 26.2149C168.326 23.4062 168.326 20.7145 168.326 17.9058C168.859 17.9058 169.286 17.9058 169.819 17.9058C169.925 18.3739 169.925 25.0446 169.819 26.2149Z" fill="#C4C4C4"/>
<path d="M53.629 87.656C53.9488 87.656 54.1619 87.773 54.3751 88.0071C54.3751 90.1136 54.3751 92.3373 54.3751 94.5609C54.1619 94.912 53.9488 95.029 53.5224 94.912C53.2026 94.6779 53.096 94.2097 53.096 93.8586C53.096 92.2202 53.096 90.5818 53.096 88.9433C53.2026 88.4752 53.2026 87.8901 53.629 87.656Z" fill="#C4C4C4"/>
<path d="M132.403 12.1709C131.444 12.1709 130.485 12.1709 129.525 12.1709C129.419 11.5858 129.525 11.1176 129.525 10.5325C130.485 10.5325 131.444 10.5325 132.51 10.5325C132.403 11.0006 132.403 11.5858 132.403 12.1709Z" fill="#C4C4C4"/>
<path d="M97.5465 53.2492C97.5465 52.664 97.5465 52.1959 97.5465 51.7278C98.5059 51.7278 99.3587 51.7278 100.318 51.7278C100.318 52.1959 100.318 52.781 100.318 53.2492C99.3587 53.2492 98.5059 53.2492 97.5465 53.2492Z" fill="#C4C4C4"/>
<path d="M137.52 58.6328C137.52 58.8669 137.52 59.101 137.52 59.452C137.52 61.7927 137.52 64.2503 137.52 66.5909H137.414C137.414 64.9525 137.414 63.4311 137.414 61.7927C137.414 61.4416 137.414 60.9735 137.307 60.6224C137.52 60.5053 137.414 60.2712 137.414 60.1542C137.414 59.6861 137.414 59.335 137.414 58.8669C137.414 58.6328 137.414 58.6328 137.52 58.6328Z" fill="#C4C4C4"/>
</svg>
