<svg width="218" height="95" viewBox="0 0 218 95" fill="none" xmlns="http://www.w3.org/2000/svg">
<path d="M73.3254 13.6951H72.2853V12.686C72.2853 11.821 72.4933 11.1002 73.0134 10.5236C73.5334 9.80282 74.1574 9.37036 74.9895 9.37036C75.5095 9.37036 76.0296 9.5145 76.4456 9.80282C76.8616 10.0911 77.2777 10.6678 77.4857 11.2444C77.6937 11.821 77.7977 12.3977 77.7977 12.9743V13.8392C77.7977 14.56 77.6937 15.4249 77.4857 16.1457C77.2777 16.8665 76.9656 17.4432 76.5496 18.0198C76.2376 18.3082 76.0296 18.5965 75.9256 18.7406L76.0296 18.8847L76.1336 19.0289L76.2376 19.1731L76.4456 19.4614L76.7576 20.038L76.0296 20.4704L75.7175 20.038C75.6135 19.8938 75.4055 19.6055 75.1975 19.3172C75.0935 19.3172 74.8855 19.4613 74.5735 19.7497L74.1574 19.8939H73.9494H73.7414H73.6374C73.3254 19.8939 73.1174 19.7497 72.8053 19.6055C72.4933 19.3172 72.3893 19.0289 72.2853 18.7406L72.1813 18.4523V18.164C72.1813 17.5873 72.2853 17.1549 72.4933 16.7224C72.7013 16.4341 73.0133 16.1457 73.4294 16.1457C73.6374 16.1457 73.8454 16.1458 74.0534 16.2899H74.1574H74.2614C74.4694 16.4341 74.7815 16.5782 74.9895 16.8665L75.0935 17.0107L75.1975 17.1548C75.1975 17.1548 75.3015 17.299 75.3015 17.4432C75.7175 17.1549 76.1336 16.434 76.5496 15.4249C76.7576 14.7041 76.8616 13.9833 76.8616 13.2626V12.686C76.8616 11.6769 76.6536 10.9561 76.1336 10.5236C75.7176 10.2353 75.4055 9.94694 75.0935 9.94694C74.9895 9.94694 74.8855 9.94694 74.8855 9.94694H74.6775C74.2614 10.0911 73.8454 10.3794 73.6374 10.9561C73.5334 11.2444 73.4294 11.6768 73.4294 12.1093L73.3254 13.6951ZM73.0134 18.5964C73.0134 18.8847 73.1173 19.0289 73.4294 19.1731H73.6374C73.9494 19.1731 74.1574 19.0289 74.4694 18.5964C74.3654 18.3081 74.2615 18.164 74.0534 18.0198C73.8454 17.8757 73.6374 17.7315 73.4294 17.7315C73.3254 17.7315 73.1174 17.7315 73.1174 17.8756C73.0133 18.1639 73.0134 18.3081 73.0134 18.5964Z" fill="#C4C4C4"/>
<path d="M85.3902 15.4249C85.3902 16.434 85.2862 17.299 85.1822 17.8756C84.7662 19.3172 83.9341 20.038 82.478 20.038C81.0219 20.038 80.1899 19.3173 79.7739 18.0198C79.5659 17.4432 79.4618 16.434 79.4618 15.4249V9.37036H80.5019V11.6769H85.3902V12.9743H80.5019V15.4249C80.5019 16.1457 80.5019 16.7224 80.6059 17.1548C80.8139 18.3081 81.438 18.8847 82.3741 18.8847C83.2061 18.8847 83.7261 18.5965 84.0382 18.0198C84.2462 17.5874 84.4542 16.7224 84.4542 15.5691V14.4159H85.4943L85.3902 15.4249Z" fill="#C4C4C4"/>
<path d="M92.9828 16.434H93.8149V17.5873H92.9828V20.038H92.0467V13.9833C92.0467 12.8301 91.9427 11.9652 91.6307 11.5327C91.3187 10.9561 90.7987 10.6677 89.9666 10.6677C89.0305 10.6677 88.5105 11.1002 88.1985 11.9652C88.0944 12.3977 87.9904 13.1184 87.9904 13.9833V20.038H86.9503V13.9833C86.9503 12.9742 87.0544 12.2535 87.1584 11.6769C87.5744 10.0911 88.5105 9.37036 89.9666 9.37036C91.5267 9.37036 92.4628 10.2353 92.7748 11.9652C92.8788 12.5418 92.8788 13.2626 92.8788 13.9833L92.9828 16.434Z" fill="#C4C4C4"/>
<path d="M94.2309 9.37036H96.8311V15.4249C96.8311 16.1457 96.8311 16.7224 96.9351 17.1548C97.1431 18.3081 97.7671 18.8847 98.7032 18.8847C99.5353 18.8847 100.055 18.5965 100.367 18.0198C100.575 17.5874 100.783 16.7224 100.783 15.5691V13.5509H101.823V15.5691C101.823 16.5782 101.719 17.4432 101.615 18.0198C101.199 19.4614 100.367 20.1822 98.9112 20.1822C97.4551 20.1822 96.6231 19.4614 96.2071 18.164C95.9991 17.5873 95.8951 16.5782 95.8951 15.5691V10.8119H94.2309V9.37036Z" fill="#C4C4C4"/>
<path d="M108.48 19.1732C108.272 19.4616 107.96 19.7499 107.44 19.894C107.024 20.0382 106.608 20.1824 106.192 20.1824C104.736 20.1824 103.904 19.4615 103.488 18.1641C103.28 17.5875 103.176 16.5784 103.176 15.5693V9.51465H104.216V15.5693C104.216 16.2901 104.216 16.8667 104.32 17.2992C104.528 18.4525 105.152 19.029 106.088 19.029C106.92 19.029 107.44 18.7408 107.752 18.1641C107.96 17.7316 108.168 16.8667 108.168 15.7134V9.65877H109.208V18.4525L110.144 19.7498L109.52 20.7589L108.48 19.1732Z" fill="#C4C4C4"/>
<path d="M116.697 15.8576H115.657V14.1277C115.657 12.9745 115.552 12.1095 115.24 11.677C114.928 11.1004 114.408 10.8121 113.576 10.8121C112.64 10.8121 112.12 11.2445 111.808 12.1095C111.704 12.5419 111.6 13.2628 111.6 14.1277V20.1824H110.56V14.1277C110.56 13.1186 110.664 12.3978 110.768 11.8211C111.184 10.2354 112.12 9.51465 113.576 9.51465C115.136 9.51465 116.072 10.3796 116.385 12.1095C116.489 12.6861 116.489 13.4069 116.489 14.1277L116.697 15.8576Z" fill="#C4C4C4"/>
<path d="M124.185 20.038H123.145V16.8665C123.041 17.299 122.521 17.5873 121.585 17.7315C121.481 17.7315 121.377 17.7315 121.273 17.7315C119.817 17.7315 118.881 17.0107 118.569 15.7133C118.361 15.1366 118.257 14.2717 118.257 13.1184V9.37036H119.297V13.1184C119.297 13.8392 119.297 14.4159 119.401 14.8483C119.609 16.0016 120.233 16.5783 121.169 16.5783C121.897 16.5783 122.521 16.2899 122.833 15.8575C123.041 15.5692 123.145 14.7041 123.145 13.2626V12.1093H124.185V20.038Z" fill="#C4C4C4"/>
<path d="M131.674 20.038H130.634V13.9833C130.634 12.8301 130.53 11.9652 130.218 11.5327C129.906 10.9561 129.385 10.6677 128.553 10.6677C127.617 10.6677 127.097 11.1002 126.785 11.9652C126.681 12.3977 126.577 13.1184 126.577 13.9833V20.038H125.537V13.9833C125.537 12.9742 125.641 12.2535 125.745 11.6769C126.161 10.0911 127.097 9.37036 128.553 9.37036C130.114 9.37036 131.05 10.2353 131.362 11.9652C131.466 12.5418 131.466 13.2626 131.466 13.9833L131.674 20.038Z" fill="#C4C4C4"/>
<path d="M133.442 9.51465H134.482V13.1186H136.354V14.2718H134.482V20.0382H133.442V9.51465Z" fill="#C4C4C4"/>
<path d="M144.779 14.7043V17.155C144.779 17.7316 144.675 18.3083 144.467 18.7408C144.259 19.1733 143.947 19.6057 143.531 19.894C143.115 20.1824 142.699 20.3265 142.178 20.3265H141.866C141.762 20.3265 141.554 20.3265 141.45 20.3265C141.242 20.3265 141.138 20.3265 140.93 20.1824C140.306 19.8941 139.89 19.4616 139.682 18.7408C139.578 18.3083 139.578 17.8758 139.578 17.155C139.578 15.4251 139.89 14.416 140.514 14.1277C140.826 13.9836 141.242 13.8394 141.866 13.8394H143.739V12.8303C143.739 12.1095 143.635 11.5329 143.323 11.2446C143.115 10.9562 142.699 10.8121 142.178 10.8121H140.306C140.202 10.8121 140.202 10.8121 140.202 10.8121H140.098C139.266 10.8121 138.746 11.5328 138.746 12.8303V20.3265H137.706V12.3978C137.706 11.8212 137.81 11.3887 137.914 10.9562C138.33 9.94712 139.058 9.51465 140.202 9.51465H142.178C143.219 9.51465 144.051 10.0912 144.363 11.1004C144.571 11.5328 144.675 12.1095 144.675 12.5419V13.6953H145.195V14.8485L144.779 14.7043ZM141.866 14.7043C141.242 14.7043 140.826 14.9927 140.722 15.5693V15.7134V16.1459C140.722 16.29 140.722 16.5784 140.722 17.0109C140.722 17.7317 140.826 18.3083 140.93 18.5966C141.034 18.7407 141.138 18.8849 141.346 19.029L141.658 19.1732H142.074C143.114 19.1732 143.739 18.5966 143.739 17.155V14.8485H141.866V14.7043Z" fill="#C4C4C4"/>
<path d="M147.171 11.9652H146.131C146.131 10.9561 146.443 10.2353 147.067 9.80282C147.379 9.5145 147.899 9.37036 148.419 9.37036C149.147 9.37036 149.667 9.51447 150.083 9.94694C150.603 10.3794 150.811 11.1002 150.811 12.1093C150.811 13.2626 150.499 14.1276 149.875 14.4159C150.187 14.4159 150.499 14.8483 150.707 15.4249C150.915 15.8574 151.019 16.4341 151.019 17.0107C151.019 18.3081 150.603 19.173 149.771 19.7497C149.355 20.038 148.835 20.1822 148.315 20.1822C147.899 20.1822 147.483 20.038 147.171 19.8939C146.547 19.6056 146.131 19.0289 145.819 18.3081C145.715 18.0198 145.611 17.5873 145.611 17.1548H146.651C146.651 17.7315 146.859 18.1639 147.171 18.5964C147.483 18.8847 147.795 19.0289 148.315 19.1731C148.835 19.1731 149.251 19.0289 149.563 18.5964C149.875 18.1639 150.083 17.7315 150.083 17.0107C150.083 16.2899 149.979 15.8574 149.667 15.4249C149.355 15.1366 149.043 14.8483 148.523 14.8483H146.027V13.8392H148.523C149.459 13.8392 149.979 13.2626 149.979 12.1093C149.979 11.5327 149.875 11.1003 149.563 10.8119C149.251 10.5236 148.939 10.5236 148.523 10.5236C148.419 10.5236 148.419 10.5236 148.315 10.5236H148.211H148.003C147.483 10.8119 147.171 11.2444 147.171 11.9652Z" fill="#C4C4C4"/>
<path d="M158.612 20.038H157.572V13.9833C157.572 12.8301 157.468 11.9652 157.156 11.5327C156.844 10.9561 156.323 10.6677 155.491 10.6677C154.555 10.6677 154.035 11.1002 153.723 11.9652C153.619 12.3977 153.515 13.1184 153.515 13.9833V20.038H152.475V13.9833C152.475 12.9742 152.579 12.2535 152.683 11.6769C153.099 10.0911 154.035 9.37036 155.491 9.37036C157.052 9.37036 157.988 10.2353 158.3 11.9652C158.404 12.5418 158.404 13.2626 158.404 13.9833L158.612 20.038Z" fill="#C4C4C4"/>
<path d="M160.38 9.51465H161.42V13.1186H163.292V14.2718H161.42V20.0382H160.38V9.51465Z" fill="#C4C4C4"/>
<path d="M164.124 9.37036H166.724V15.4249C166.724 16.1457 166.724 16.7224 166.828 17.1548C167.036 18.3081 167.66 18.8847 168.596 18.8847C169.428 18.8847 169.948 18.5965 170.261 18.0198C170.469 17.5874 170.677 16.7224 170.677 15.5691V13.5509H171.717V15.5691C171.717 16.5782 171.613 17.4432 171.509 18.0198C171.093 19.4614 170.26 20.1822 168.804 20.1822C167.348 20.1822 166.516 19.4614 166.1 18.164C165.892 17.5873 165.788 16.5782 165.788 15.5691V10.8119H164.124V9.37036Z" fill="#C4C4C4"/>
<path d="M172.237 9.37036H174.837V15.4249C174.837 16.1457 174.837 16.7224 174.941 17.1548C175.149 18.3081 175.773 18.8847 176.709 18.8847C177.541 18.8847 178.061 18.5965 178.373 18.0198C178.581 17.5874 178.789 16.7224 178.789 15.5691V13.5509H179.829V15.5691C179.829 16.5782 179.725 17.4432 179.621 18.0198C179.205 19.4614 178.373 20.1822 176.917 20.1822C175.461 20.1822 174.629 19.4614 174.213 18.164C174.005 17.5873 173.901 16.5782 173.901 15.5691V10.8119H172.237V9.37036Z" fill="#C4C4C4"/>
<path d="M187.214 15.4249C187.214 16.434 187.11 17.299 187.006 17.8756C186.59 19.3172 185.758 20.038 184.302 20.038C182.845 20.038 182.013 19.3173 181.597 18.0198C181.389 17.4432 181.285 16.434 181.285 15.4249V9.37036H182.325V11.6769H187.214V12.9743H182.325V15.4249C182.325 16.1457 182.325 16.7224 182.429 17.1548C182.637 18.3081 183.261 18.8847 184.198 18.8847C185.03 18.8847 185.55 18.5965 185.862 18.0198C186.07 17.5874 186.278 16.7224 186.278 15.5691V14.4159H187.318L187.214 15.4249Z" fill="#C4C4C4"/>
<path d="M194.806 15.8576H193.766V14.1277C193.766 12.9745 193.662 12.1095 193.35 11.677C193.038 11.1004 192.518 10.8121 191.686 10.8121C190.75 10.8121 190.23 11.2445 189.918 12.1095C189.814 12.5419 189.71 13.2628 189.71 14.1277V20.1824H188.67V14.1277C188.67 13.1186 188.774 12.3978 188.878 11.8211C189.294 10.2354 190.23 9.51465 191.686 9.51465C193.246 9.51465 194.182 10.3796 194.494 12.1095C194.598 12.6861 194.598 13.4069 194.598 14.1277L194.806 15.8576Z" fill="#C4C4C4"/>
<path d="M202.087 17.4432H201.047V16.434C201.047 15.5691 200.943 14.8484 200.839 14.4159C200.631 13.5509 200.007 13.1184 199.071 13.1184C198.343 13.1184 197.718 13.4067 197.406 13.8392C197.198 14.1275 197.094 14.4159 197.094 14.8483C197.094 15.1367 197.094 15.425 197.094 16.0016V20.1822H196.054V9.37036H197.094V12.5418C197.198 12.2534 197.406 12.1093 197.927 11.9652C198.343 11.821 198.655 11.821 198.967 11.821C200.423 11.821 201.255 12.5418 201.671 13.8392C201.775 14.1275 201.879 14.56 201.879 14.9925C201.879 15.4249 201.983 16.0016 201.983 16.434L202.087 17.4432Z" fill="#C4C4C4"/>
<path d="M81.126 35.0304H80.0859V34.0213C80.0859 33.1563 79.9819 32.4355 79.8779 32.003C79.6698 31.1381 79.0458 30.7057 78.1097 30.7057C77.3817 30.7057 76.7576 30.994 76.4456 31.4265C76.2376 31.7148 76.1336 32.0031 76.1336 32.4356C76.1336 32.7239 76.1336 33.0122 76.1336 33.5888V37.7694H75.0935V26.9575H76.1336V30.129C76.2376 29.8407 76.4456 29.6966 76.9657 29.5524C77.3817 29.4083 77.6937 29.4082 78.0057 29.4082C79.4618 29.4082 80.2939 30.129 80.7099 31.4265C80.8139 31.7148 80.9179 32.1472 80.9179 32.5797C80.9179 33.0122 81.0219 33.5888 81.0219 34.0213L81.126 35.0304Z" fill="#C4C4C4"/>
<path d="M81.958 26.9575H84.5582V33.0122C84.5582 33.733 84.5582 34.3096 84.6622 34.7421C84.8702 35.8953 85.4943 36.472 86.4303 36.472C87.2624 36.472 87.7825 36.1836 88.0945 35.607C88.3025 35.1745 88.5105 34.3096 88.5105 33.1564V31.1381H89.5506V33.1564C89.5506 34.1655 89.4465 35.0304 89.3425 35.607C88.9265 37.0486 88.0945 37.7694 86.6384 37.7694C85.1822 37.7694 84.3502 37.0486 83.9342 35.7512C83.7262 35.1746 83.6221 34.1655 83.6221 33.1564V28.3991H81.958V26.9575Z" fill="#C4C4C4"/>
<path d="M96.8311 37.7692H95.791V34.5978C95.687 35.0303 95.167 35.3185 94.2309 35.4627C94.1269 35.4627 94.0229 35.4627 93.9189 35.4627C92.4628 35.4627 91.5267 34.7419 91.2147 33.4445C91.0067 32.8678 90.9026 32.0029 90.9026 30.8496V27.1016H91.9427V30.8496C91.9427 31.5704 91.9428 32.1471 92.0468 32.5795C92.2548 33.7328 92.8788 34.3095 93.8149 34.3095C94.543 34.3095 95.167 34.0211 95.479 33.5887C95.687 33.3004 95.791 32.4354 95.791 30.9938V29.8405H96.8311V37.7692Z" fill="#C4C4C4"/>
<path d="M104.32 37.7692H103.28V31.7146C103.28 30.5614 103.176 29.6964 102.864 29.2639C102.552 28.6873 102.031 28.3989 101.199 28.3989C100.263 28.3989 99.7433 28.8314 99.4313 29.6964C99.3273 30.1289 99.2233 30.8497 99.2233 31.7146V37.7692H98.1832V31.7146C98.1832 30.7055 98.2872 29.9847 98.3912 29.4081C98.8072 27.8223 99.7433 27.1016 101.199 27.1016C102.76 27.1016 103.696 27.9665 104.008 29.6964C104.112 30.273 104.112 30.9938 104.112 31.7146L104.32 37.7692Z" fill="#C4C4C4"/>
<path d="M106.088 27.1016H107.128V30.7055H109V31.8588H107.128V37.6251H106.088V27.1016Z" fill="#C4C4C4"/>
<path d="M116.489 32.8679H115.448V31.7146C115.448 30.5614 115.344 29.6964 115.032 29.2639C114.72 28.6873 114.2 28.3989 113.368 28.3989C112.432 28.3989 111.912 28.8314 111.6 29.6964C111.496 30.1289 111.392 30.8497 111.392 31.7146V34.1652H116.281V35.4627H111.392V37.7692H110.352V31.7146C110.352 30.7055 110.456 29.9847 110.56 29.4081C110.976 27.8223 111.912 27.1016 113.368 27.1016C114.928 27.1016 115.865 27.9665 116.177 29.6964C116.281 30.273 116.281 30.9938 116.281 31.7146V32.8679H116.489Z" fill="#C4C4C4"/>
<path d="M123.249 36.9042C123.041 37.1925 122.729 37.4808 122.209 37.625C121.793 37.7691 121.377 37.9133 120.961 37.9133C119.505 37.9133 118.673 37.1925 118.257 35.8951C118.049 35.3184 117.945 34.3094 117.945 33.3003V27.2456H118.985V33.3003C118.985 34.021 118.985 34.5977 119.089 35.0302C119.297 36.1834 119.921 36.7601 120.857 36.7601C121.689 36.7601 122.209 36.4717 122.521 35.8951C122.729 35.4626 122.937 34.5976 122.937 33.4444V27.3898H123.977V36.1834L124.913 37.4809L124.289 38.4899L123.249 36.9042Z" fill="#C4C4C4"/>
<path d="M125.329 34.3097L126.265 34.1655C126.369 35.1746 126.681 35.8954 127.305 36.3279L127.513 36.4721L127.825 36.6162H128.137H128.449C128.761 36.6162 129.073 36.6162 129.489 36.3279C130.114 36.0395 130.426 35.463 130.426 34.7422C130.426 34.0214 130.114 33.5889 129.489 33.3006C129.385 33.3006 128.969 33.0123 128.137 32.8681C127.409 32.5798 126.889 32.4357 126.681 32.1473C125.953 31.5707 125.641 30.8499 125.641 29.8408C125.641 28.6875 126.057 27.8226 126.889 27.2459C127.305 26.9576 127.721 26.8135 128.241 26.8135C129.802 26.8135 130.634 27.6784 131.05 29.2642C131.05 29.4083 131.154 29.5524 131.154 29.8408V29.985L130.218 30.1291C130.114 28.8317 129.489 28.1109 128.345 28.1109C127.929 28.1109 127.513 28.255 127.201 28.3992C126.785 28.6875 126.577 29.12 126.577 29.6966C126.577 30.2733 126.785 30.7058 127.201 30.9941C127.409 31.1382 127.721 31.2824 128.345 31.4265C129.177 31.7149 129.698 31.859 130.01 32.1473C130.634 32.5798 131.05 33.1565 131.258 33.8772C131.362 34.1656 131.362 34.4539 131.362 34.598C131.362 35.8955 130.946 36.7604 130.01 37.337C129.594 37.6253 129.073 37.7694 128.553 37.7694C127.201 37.7694 126.265 37.1929 125.745 36.0396C125.433 35.6071 125.329 35.0305 125.329 34.3097Z" fill="#C4C4C4"/>
<path d="M138.642 37.7692H137.602V31.7146C137.602 30.5614 137.498 29.6964 137.186 29.2639C136.874 28.6873 136.354 28.3989 135.522 28.3989C134.586 28.3989 134.066 28.8314 133.754 29.6964C133.65 30.1289 133.546 30.8497 133.546 31.7146V37.7692H132.506V31.7146C132.506 30.7055 132.61 29.9847 132.714 29.4081C133.13 27.8223 134.066 27.1016 135.522 27.1016C137.082 27.1016 138.018 27.9665 138.33 29.6964C138.434 30.273 138.434 30.9938 138.434 31.7146V37.7692H138.642Z" fill="#C4C4C4"/>
<path d="M146.235 33.4445H145.195V31.7146C145.195 30.5614 145.091 29.6964 144.779 29.2639C144.467 28.6873 143.947 28.3989 143.115 28.3989C142.178 28.3989 141.658 28.8314 141.346 29.6964C141.242 30.1289 141.138 30.8497 141.138 31.7146V37.7692H140.098V31.7146C140.098 30.7055 140.202 29.9847 140.306 29.4081C140.722 27.8223 141.658 27.1016 143.115 27.1016C144.675 27.1016 145.611 27.9665 145.923 29.6964C146.027 30.273 146.027 30.9938 146.027 31.7146L146.235 33.4445Z" fill="#C4C4C4"/>
<path d="M155.907 28.8316L155.803 28.5433C155.699 28.3992 155.491 28.255 155.387 28.255C155.283 28.255 155.283 28.255 155.179 28.255C155.075 28.255 154.971 28.3992 154.763 28.5433C154.659 28.6875 154.659 28.6875 154.555 28.8316L151.643 33.5888L155.699 36.1837V38.6344H155.387V38.346C155.283 37.6252 154.867 37.1928 154.139 36.7603L150.187 34.3096L154.139 27.8225C154.451 27.2459 154.867 26.9575 155.283 26.9575C155.387 26.9575 155.595 26.9576 155.803 27.1017C155.907 27.1017 155.907 27.1017 156.011 27.2459L155.907 28.8316Z" fill="#C4C4C4"/>
<path d="M162.772 35.0304H161.732V34.0213C161.732 33.1563 161.628 32.4355 161.524 32.003C161.316 31.1381 160.692 30.7057 159.756 30.7057C159.028 30.7057 158.404 30.994 158.092 31.4265C157.884 31.7148 157.78 32.0031 157.78 32.4356C157.78 32.7239 157.78 33.0122 157.78 33.5888V37.7694H156.74V26.9575H157.78V30.129C157.884 29.8407 158.092 29.6966 158.612 29.5524C159.028 29.4083 159.34 29.4082 159.652 29.4082C161.108 29.4082 161.94 30.129 162.356 31.4265C162.46 31.7148 162.564 32.1472 162.564 32.5797C162.564 33.0122 162.668 33.5888 162.668 34.0213L162.772 35.0304Z" fill="#C4C4C4"/>
<path d="M171.093 28.3989H169.948V33.1561C169.948 34.1652 169.845 34.886 169.741 35.4626C169.324 37.0484 168.492 37.7691 166.932 37.7691C166.308 37.7691 165.788 37.625 165.268 37.3367C164.748 36.9042 164.332 36.4717 164.228 35.751L164.124 35.3185L164.02 34.7418C164.02 34.4535 163.916 34.021 163.916 33.3003V27.2456H164.956V33.3003C164.956 34.4535 165.06 35.3185 165.372 35.751C165.684 36.3276 166.204 36.6159 167.036 36.6159C167.972 36.6159 168.492 36.1834 168.804 35.3185C168.908 34.886 169.012 34.1652 169.012 33.3003V27.2456H171.093V28.3989Z" fill="#C4C4C4"/>
<path d="M171.613 26.9575H174.213V33.0122C174.213 33.733 174.213 34.3096 174.317 34.7421C174.525 35.8953 175.149 36.472 176.085 36.472C176.917 36.472 177.437 36.1836 177.749 35.607C177.957 35.1745 178.165 34.3096 178.165 33.1564V31.1381H179.205V33.1564C179.205 34.1655 179.101 35.0304 178.997 35.607C178.581 37.0486 177.749 37.7694 176.293 37.7694C174.837 37.7694 174.005 37.0486 173.589 35.7512C173.381 35.1746 173.277 34.1655 173.277 33.1564V28.3991H171.613V26.9575Z" fill="#C4C4C4"/>
<path d="M185.862 36.9042C185.654 37.1925 185.342 37.4808 184.822 37.625C184.406 37.7691 183.99 37.9133 183.573 37.9133C182.117 37.9133 181.285 37.1925 180.869 35.8951C180.661 35.3184 180.557 34.3094 180.557 33.3003V27.2456H181.597V33.3003C181.597 34.021 181.597 34.5977 181.701 35.0302C181.909 36.1834 182.533 36.7601 183.469 36.7601C184.302 36.7601 184.822 36.4717 185.134 35.8951C185.342 35.4626 185.55 34.5976 185.55 33.4444V27.3898H186.59V36.1834L187.526 37.4809L186.902 38.4899L185.862 36.9042Z" fill="#C4C4C4"/>
<path d="M193.246 31.7146C193.246 30.8497 193.142 30.1289 193.038 29.6964C192.83 28.8314 192.206 28.3989 191.27 28.3989C190.438 28.3989 189.918 28.6873 189.606 29.2639C189.398 29.6964 189.19 30.5614 189.19 31.7146V32.8679H188.15V31.7146C188.15 30.7055 188.254 29.9847 188.358 29.4081C188.774 27.8223 189.606 27.1016 191.166 27.1016C192.622 27.1016 193.454 27.8223 193.87 29.1197C193.974 29.408 194.078 29.8406 194.078 30.2731C194.078 30.8497 194.182 31.2822 194.182 31.7146V34.3095H195.014V35.751H194.182V37.9134H193.142L193.246 31.7146Z" fill="#C4C4C4"/>
<path d="M202.087 33.4445H201.047V31.7146C201.047 30.5614 200.943 29.6964 200.631 29.2639C200.319 28.6873 199.799 28.3989 198.967 28.3989C198.031 28.3989 197.511 28.8314 197.198 29.6964C197.094 30.1289 196.99 30.8497 196.99 31.7146V37.7692H195.95V31.7146C195.95 30.7055 196.054 29.9847 196.158 29.4081C196.574 27.8223 197.511 27.1016 198.967 27.1016C200.527 27.1016 201.463 27.9665 201.775 29.6964C201.879 30.273 201.879 30.9938 201.879 31.7146L202.087 33.4445Z" fill="#C4C4C4"/>
<path d="M208.847 36.9042C208.639 37.1925 208.327 37.4808 207.807 37.625C207.391 37.7691 206.975 37.9133 206.559 37.9133C205.103 37.9133 204.271 37.1925 203.855 35.8951C203.647 35.3184 203.543 34.3094 203.543 33.3003V27.2456H204.583V33.3003C204.583 34.021 204.583 34.5977 204.687 35.0302C204.895 36.1834 205.519 36.7601 206.455 36.7601C207.287 36.7601 207.807 36.4717 208.119 35.8951C208.327 35.4626 208.535 34.5976 208.535 33.4444V27.3898H209.575V36.1834L210.511 37.4809L209.887 38.3458L208.847 36.9042Z" fill="#C4C4C4"/>
<path d="M218 28.3989H216.856V33.1561C216.856 34.1652 216.752 34.886 216.648 35.4626C216.232 37.0484 215.4 37.7691 213.84 37.7691C213.216 37.7691 212.696 37.625 212.176 37.3367C211.656 36.9042 211.24 36.4717 211.136 35.751L211.031 35.3185L210.927 34.7418C210.927 34.4535 210.824 34.021 210.824 33.3003V27.2456H211.864V33.3003C211.864 34.4535 211.968 35.3185 212.28 35.751C212.592 36.3276 213.112 36.6159 213.944 36.6159C214.88 36.6159 215.4 36.1834 215.712 35.3185C215.816 34.886 215.92 34.1652 215.92 33.3003V27.2456H218V28.3989Z" fill="#C4C4C4"/>
<path d="M75.3015 63.5738V53.0503H80.814V54.3477H76.3416V57.5192H80.5019V58.8166H76.3416V62.4206H81.0219V63.7179L75.3015 63.5738Z" fill="#C4C4C4"/>
<path d="M82.3741 63.5738V53.0503H83.4141L87.3664 61.2673V53.0503H88.3025V63.5738H87.2624L83.3101 55.3568V63.5738H82.3741Z" fill="#C4C4C4"/>
<path d="M91.9427 63.5738V54.3477H89.4466V53.0503H95.479V54.3477H92.9828V63.5738H91.9427Z" fill="#C4C4C4"/>
<path d="M96.5191 63.5738V53.0503H102.031V54.3477H97.5592V57.5192H101.719V58.8166H97.5592V62.4206H102.24V63.7179L96.5191 63.5738Z" fill="#C4C4C4"/>
<path d="M103.592 63.5738V53.0503H106.92C107.544 53.0503 107.96 53.0503 108.272 53.1944C108.688 53.3386 109 53.7711 109.312 54.2035C109.52 54.636 109.624 55.2127 109.624 55.9335C109.624 57.5192 108.896 58.5283 107.44 58.8166C107.752 58.9608 107.96 59.249 108.064 59.3932C108.376 59.8257 108.688 60.2581 108.896 60.8348L110.248 63.7179H109L107.96 61.5556C107.752 61.1231 107.544 60.6906 107.44 60.4023C107.024 59.6815 106.712 59.2491 106.296 59.1049C106.192 59.1049 105.984 59.1049 105.776 59.1049H104.632V63.7179L103.592 63.5738ZM104.632 57.6634H106.816C107.648 57.6634 108.272 57.375 108.48 56.7984C108.584 56.51 108.688 56.2217 108.688 55.7892C108.688 54.636 108.168 54.0594 107.024 54.0594H104.632V57.6634Z" fill="#C4C4C4"/>
<path d="M111.288 63.5738V53.0503H114.2C114.72 53.0503 115.032 53.0503 115.344 53.1944C116.072 53.3386 116.593 53.9152 116.905 54.636C117.009 55.0685 117.113 55.5009 117.113 56.0776C117.113 58.2399 116.176 59.2491 114.304 59.2491H112.328V63.5738H111.288ZM112.224 58.0958H114.2C115.344 58.0958 115.969 57.5192 115.969 56.2218C115.969 55.7893 115.865 55.5009 115.76 55.0685C115.552 54.7801 115.344 54.4918 115.136 54.3477C114.928 54.3477 114.616 54.2035 114.2 54.2035H112.224V58.0958Z" fill="#C4C4C4"/>
<path d="M118.361 63.5738V53.0503H121.689C122.313 53.0503 122.729 53.0503 123.041 53.1944C123.457 53.3386 123.769 53.7711 124.081 54.2035C124.289 54.636 124.393 55.2127 124.393 55.9335C124.393 57.5192 123.665 58.5283 122.209 58.8166C122.521 58.9608 122.729 59.249 122.833 59.3932C123.145 59.8257 123.457 60.2581 123.665 60.8348L125.017 63.7179H123.769L122.729 61.5556C122.521 61.1231 122.313 60.6906 122.209 60.4023C121.793 59.6815 121.481 59.2491 121.065 59.1049C120.961 59.1049 120.753 59.1049 120.545 59.1049H119.401V63.7179L118.361 63.5738ZM119.297 57.6634H121.481C122.313 57.6634 122.937 57.375 123.145 56.7984C123.249 56.51 123.353 56.2217 123.353 55.7892C123.353 54.636 122.833 54.0594 121.689 54.0594H119.297V57.6634Z" fill="#C4C4C4"/>
<path d="M126.161 63.5738V53.0503H127.201V63.5738H126.161Z" fill="#C4C4C4"/>
<path d="M128.553 60.2582L129.49 60.114C129.594 61.1231 129.906 61.8439 130.53 62.2763C130.842 62.4205 131.258 62.5647 131.674 62.5647C132.506 62.5647 133.026 62.2764 133.338 61.6998C133.442 61.4115 133.546 61.1231 133.546 60.8348C133.546 60.114 133.234 59.6815 132.61 59.3932C132.402 59.249 131.882 59.1049 131.154 58.8166C130.53 58.6725 130.114 58.3841 129.802 58.2399C129.073 57.6633 128.761 56.9426 128.761 55.9335C128.761 55.3568 128.865 54.7801 129.073 54.3477C129.281 53.9152 129.594 53.6269 130.01 53.3386C130.426 53.0503 130.842 53.0503 131.362 53.0503C132.506 53.0503 133.338 53.4828 133.858 54.4919C134.066 54.9243 134.17 55.5009 134.274 56.0776L133.338 56.2218C133.234 54.9244 132.61 54.2035 131.466 54.2035C131.05 54.2035 130.634 54.3477 130.322 54.4919C129.906 54.7802 129.698 55.2126 129.698 55.7892C129.698 56.3659 129.906 56.7984 130.322 57.0867C130.53 57.2309 130.842 57.375 131.466 57.5192C132.298 57.8075 132.818 57.9516 133.13 58.2399C133.962 58.8166 134.378 59.6815 134.378 60.8348C134.378 61.4114 134.274 61.9881 133.962 62.4206C133.754 62.853 133.442 63.2855 133.026 63.5738C132.61 63.8621 132.09 64.0063 131.57 64.0063C130.218 64.0063 129.282 63.4296 128.761 62.2763C128.761 61.5556 128.553 60.979 128.553 60.2582Z" fill="#C4C4C4"/>
<path d="M135.938 63.5738V53.0503H141.45V54.3477H136.978V57.5192H141.138V58.8166H136.978V62.4206H141.658V63.7179L135.938 63.5738Z" fill="#C4C4C4"/>
<path d="M146.131 63.5738V53.0503H147.171V63.5738H146.131Z" fill="#C4C4C4"/>
<path d="M148.939 63.5738V53.0503H149.979L153.931 61.2673V53.0503H154.867V63.5738H153.827L149.875 55.3568V63.5738H148.939Z" fill="#C4C4C4"/>
<path d="M161.94 59.9698L162.98 60.2581C162.772 61.4114 162.46 62.2763 161.836 62.8529C161.316 63.4296 160.588 63.8621 159.756 63.8621C158.196 63.8621 157.156 62.9971 156.635 61.123C156.323 60.2581 156.22 59.249 156.22 58.2399C156.22 55.9333 156.844 54.3476 157.988 53.4827C158.508 53.0502 159.132 52.906 159.86 52.906C160.588 52.906 161.212 53.1943 161.732 53.6268C162.252 54.2034 162.668 54.9243 162.772 55.9334L161.732 56.2217C161.42 54.7801 160.692 54.0593 159.756 54.0593C159.236 54.0593 158.716 54.2034 158.3 54.6359C157.884 55.0684 157.572 55.5009 157.468 56.2217C157.26 56.9425 157.26 57.5191 157.26 58.2399C157.26 60.1139 157.676 61.4114 158.404 62.1321C158.82 62.4205 159.236 62.5646 159.652 62.5646C161.004 62.5646 161.732 61.6997 161.94 59.9698Z" fill="#C4C4C4"/>
<path d="M169.22 53.0503H170.261V59.1049C170.261 60.114 170.157 60.8348 170.052 61.4114C169.636 62.9972 168.804 63.7179 167.244 63.7179C165.788 63.7179 164.956 62.9972 164.54 61.6998C164.332 61.1231 164.228 60.114 164.228 59.1049V53.0503H165.268V59.1049C165.268 59.8257 165.268 60.4023 165.372 60.8348C165.58 61.988 166.204 62.5647 167.14 62.5647C167.972 62.5647 168.492 62.2764 168.804 61.6998C169.012 61.2673 169.22 60.4023 169.22 59.2491V53.0503Z" fill="#C4C4C4"/>
<path d="M171.821 63.5738V53.0503H174.629C175.773 53.0503 176.501 53.4827 176.813 54.3477C177.021 54.7801 177.125 55.2126 177.125 55.7892C177.125 56.7983 176.813 57.5191 176.085 57.9516C176.501 58.0958 176.917 58.3841 177.125 58.8166C177.333 59.2491 177.541 59.8257 177.541 60.4023C177.541 61.4114 177.229 62.2764 176.709 62.7089C176.293 63.1414 175.565 63.4297 174.629 63.4297L171.821 63.5738ZM172.861 57.5192H174.525C174.941 57.5192 175.253 57.5192 175.461 57.375C175.981 57.2309 176.189 56.6542 176.189 55.9335C176.189 55.2127 175.981 54.636 175.461 54.4919C175.253 54.3477 174.837 54.3477 174.317 54.3477H172.757L172.861 57.5192ZM172.861 62.4206H174.733C175.045 62.4206 175.253 62.4206 175.461 62.4206C176.189 62.2764 176.605 61.6997 176.605 60.6906C176.605 59.8257 176.293 59.2491 175.773 59.1049C175.565 58.9608 175.149 58.9607 174.629 58.9607H172.861V62.4206Z" fill="#C4C4C4"/>
<path d="M178.061 63.5738L180.973 53.0503H182.013L185.134 63.5738H183.989L183.053 60.4023H179.933L179.101 63.5738H178.061ZM180.349 59.2491H182.949L182.117 56.3659C181.909 55.501 181.701 54.7802 181.597 54.2035C181.493 54.9243 181.389 55.6452 181.181 56.2218L180.349 59.2491Z" fill="#C4C4C4"/>
<path d="M187.11 63.5738V54.3477H184.614V53.0503H190.646V54.3477H188.15V63.5738H187.11Z" fill="#C4C4C4"/>
<path d="M191.166 58.5282C191.166 56.9425 191.478 55.5009 192.102 54.4918C192.726 53.4827 193.662 52.906 194.806 52.906C195.534 52.906 196.158 53.1943 196.678 53.6268C197.198 54.0593 197.718 54.7801 198.031 55.645C198.343 56.51 198.447 57.3749 198.447 58.5282C198.447 59.5373 198.343 60.4023 198.031 61.2672C197.718 62.1322 197.302 62.8529 196.678 63.2854C196.158 63.7179 195.534 64.0062 194.806 64.0062C194.078 64.0062 193.454 63.7179 192.934 63.2854C192.31 62.8529 191.894 62.1322 191.582 61.2672C191.374 60.2581 191.166 59.3931 191.166 58.5282ZM192.206 58.5282C192.206 59.6815 192.414 60.6906 192.83 61.4114C193.35 62.2763 193.974 62.5646 194.806 62.5646C195.638 62.5646 196.366 62.1322 196.782 61.2672C197.199 60.5464 197.406 59.5373 197.406 58.2399C197.406 56.51 196.99 55.2126 196.158 54.4918C195.742 54.2035 195.326 53.9151 194.806 53.9151C193.87 53.9151 193.246 54.3476 192.83 55.2126C192.414 56.2217 192.206 57.2308 192.206 58.5282Z" fill="#C4C4C4"/>
<path d="M199.799 63.5738V53.0503H203.127C203.751 53.0503 204.167 53.0503 204.479 53.1944C204.895 53.3386 205.207 53.7711 205.519 54.2035C205.727 54.636 205.831 55.2127 205.831 55.9335C205.831 57.5192 205.103 58.5283 203.647 58.8166C203.959 58.9608 204.167 59.249 204.271 59.3932C204.583 59.8257 204.895 60.2581 205.103 60.8348L206.455 63.7179H205.207L204.167 61.5556C203.959 61.1231 203.751 60.6906 203.647 60.4023C203.231 59.6815 202.919 59.2491 202.503 59.1049C202.399 59.1049 202.191 59.1049 201.983 59.1049H200.839V63.7179L199.799 63.5738ZM200.735 57.6634H202.919C203.751 57.6634 204.375 57.375 204.583 56.7984C204.687 56.51 204.791 56.2217 204.791 55.7892C204.791 54.636 204.271 54.0594 203.127 54.0594H200.735V57.6634Z" fill="#C4C4C4"/>
<path d="M78.3177 81.1607V70.6372H83.4141V71.9346H79.2538V75.2502H82.7901V76.5476H79.2538V81.3048H78.3177V81.1607Z" fill="#C4C4C4"/>
<path d="M84.4542 76.1154C84.4542 74.5296 84.7662 73.0881 85.3903 72.079C86.0143 71.0698 86.9504 70.4932 88.0945 70.4932C88.8225 70.4932 89.4466 70.7815 89.9666 71.214C90.4867 71.6464 91.0067 72.3673 91.3187 73.2322C91.6307 74.0971 91.7348 74.9621 91.7348 76.1154C91.7348 77.1245 91.6307 77.9894 91.3187 78.8543C91.0067 79.7193 90.5907 80.4401 89.9666 80.8726C89.4466 81.305 88.8225 81.5933 88.0945 81.5933C87.3664 81.5933 86.7423 81.305 86.2223 80.8726C85.5983 80.4401 85.1822 79.7193 84.8702 78.8543C84.5582 77.8452 84.4542 76.9803 84.4542 76.1154ZM85.4943 76.1154C85.4943 77.2686 85.7023 78.2777 86.1183 78.9985C86.6384 79.8635 87.2624 80.1518 88.0945 80.1518C88.9266 80.1518 89.6546 79.7193 90.0706 78.8543C90.4866 78.1335 90.6947 77.1244 90.6947 75.827C90.6947 74.0971 90.2786 72.7997 89.4466 72.079C89.0305 71.7906 88.6145 71.5023 88.0945 71.5023C87.1584 71.5023 86.5344 71.9348 86.1183 72.7997C85.7023 73.8088 85.4943 74.8179 85.4943 76.1154Z" fill="#C4C4C4"/>
<path d="M97.9752 70.6372H99.0153V76.6918C99.0153 77.7009 98.9113 78.4217 98.8073 78.9983C98.3912 80.5841 97.5592 81.3048 95.9991 81.3048C94.5429 81.3048 93.7109 80.5841 93.2949 79.2867C93.0869 78.71 92.9828 77.7009 92.9828 76.6918V70.6372H94.0229V76.6918C94.0229 77.4126 94.0229 77.9892 94.1269 78.4217C94.3349 79.5749 94.959 80.1516 95.8951 80.1516C96.7271 80.1516 97.2471 79.8633 97.5592 79.2867C97.7672 78.8542 97.9752 77.9892 97.9752 76.836V70.6372Z" fill="#C4C4C4"/>
<path d="M100.679 81.1607V70.6372H101.719L105.672 78.8541V70.6372H106.608V81.1607H105.568L101.615 72.9437V81.1607H100.679Z" fill="#C4C4C4"/>
<path d="M108.272 81.1607V70.6372H110.872C111.496 70.6372 111.912 70.6372 112.224 70.7813C113.16 71.0696 113.888 71.9346 114.2 73.3762C114.408 74.0969 114.512 74.9619 114.512 75.8269C114.512 77.1243 114.304 78.1334 113.992 78.9983C113.576 80.0075 112.952 80.7282 112.224 81.0165C111.912 81.1607 111.496 81.1607 110.976 81.1607H108.272ZM109.312 80.0075H110.976C111.808 80.0075 112.432 79.7192 112.848 79.2867C113.368 78.5659 113.576 77.4126 113.576 75.971C113.576 73.9528 113.16 72.7995 112.224 72.2229C111.912 72.0788 111.496 72.0788 110.976 72.0788H109.416L109.312 80.0075Z" fill="#C4C4C4"/>
<path d="M115.136 81.1607L118.049 70.6372H119.089L122.209 81.1607H121.065L120.129 77.9892H117.009L116.177 81.1607H115.136ZM117.321 76.836H119.921L119.089 73.9528C118.881 73.0879 118.673 72.3671 118.569 71.7905C118.465 72.5112 118.361 73.232 118.153 73.8086L117.321 76.836Z" fill="#C4C4C4"/>
<path d="M124.185 81.1607V71.9346H121.689V70.6372H127.721V71.9346H125.225V81.1607H124.185Z" fill="#C4C4C4"/>
<path d="M128.865 81.1607V70.6372H129.905V81.1607H128.865Z" fill="#C4C4C4"/>
<path d="M131.362 76.1154C131.362 74.5296 131.674 73.0881 132.298 72.079C132.922 71.0698 133.858 70.4932 135.002 70.4932C135.73 70.4932 136.354 70.7815 136.874 71.214C137.394 71.6464 137.914 72.3673 138.226 73.2322C138.538 74.0971 138.642 74.9621 138.642 76.1154C138.642 77.1245 138.538 77.9894 138.226 78.8543C137.914 79.7193 137.498 80.4401 136.874 80.8726C136.354 81.305 135.73 81.5933 135.002 81.5933C134.274 81.5933 133.65 81.305 133.13 80.8726C132.506 80.4401 132.09 79.7193 131.778 78.8543C131.466 77.8452 131.362 76.9803 131.362 76.1154ZM132.402 76.1154C132.402 77.2686 132.61 78.2777 133.026 78.9985C133.546 79.8635 134.17 80.1518 135.002 80.1518C135.834 80.1518 136.562 79.7193 136.978 78.8543C137.394 78.1335 137.602 77.1244 137.602 75.827C137.602 74.0971 137.186 72.7997 136.354 72.079C135.938 71.7906 135.522 71.5023 135.002 71.5023C134.066 71.5023 133.442 71.9348 133.026 72.7997C132.61 73.8088 132.402 74.8179 132.402 76.1154Z" fill="#C4C4C4"/>
<path d="M139.89 81.1607V70.6372H140.93L144.883 78.8541V70.6372H145.819V81.1607H144.779L140.826 72.9437V81.1607H139.89Z" fill="#C4C4C4"/>
<path d="M206.039 44.5447H73.7414V45.4097H206.039V44.5447Z" fill="#C4C4C4"/>
<path d="M29.4341 25.3718C29.4341 25.2277 29.4341 25.2277 29.4341 25.0835H28.2901C28.2901 25.0835 28.2901 25.0835 28.2901 25.2277C28.2901 29.2641 28.2901 33.1564 28.2901 37.1928C28.2901 37.9136 28.186 38.0577 27.666 38.0577C24.2337 38.0577 20.8015 38.0577 17.3693 38.0577C17.0573 38.0577 16.8492 38.0577 16.5372 38.0577V42.3824C16.7452 42.3824 17.0572 42.3824 17.2652 42.3824C20.2815 42.3824 23.4017 42.3824 26.4179 42.3824C27.0419 42.3824 27.146 42.6708 27.146 43.3916C27.146 46.9955 27.146 50.5995 27.146 54.2034C27.146 54.9242 27.0419 55.2125 26.4179 55.2125C23.4017 55.2125 20.2815 55.2125 17.2652 55.2125C17.0572 55.2125 16.8492 55.2125 16.5372 55.2125C16.5372 56.7983 16.5372 58.384 16.5372 59.9697C16.5372 60.1139 16.8492 60.4022 17.0572 60.4022C18.0973 60.4022 19.1374 60.4022 20.1774 60.4022C22.6736 60.4022 25.2739 60.4022 27.77 60.4022C28.2901 60.4022 28.498 60.6905 28.498 61.4113C28.498 65.1594 28.498 68.7634 28.498 72.5115C28.498 72.6556 28.498 72.9439 28.498 73.0881H29.4341C29.4341 72.9439 29.4341 72.6556 29.4341 72.5115C29.4341 56.7983 29.4341 41.085 29.4341 25.3718Z" fill="#C4C4C4"/>
<path d="M67.5009 56.2216C64.4847 56.2216 61.4685 56.2216 58.4523 56.2216C58.2443 56.2216 57.9323 56.2216 57.7242 56.2216V72.9439H68.125V55.7891C68.021 56.2215 67.8129 56.2216 67.5009 56.2216Z" fill="#C4C4C4"/>
<path d="M44.0992 72.9439C44.0992 56.9424 44.0992 41.085 44.0992 25.0835H43.0591C43.0591 31.7148 43.0591 38.2019 43.0591 44.8331C43.0591 53.9151 43.0591 62.8529 43.0591 71.9348C43.0591 72.2231 43.0591 72.6556 43.0591 72.9439H44.0992Z" fill="#C4C4C4"/>
<path d="M57.9323 38.0577C57.8283 38.0577 57.8283 38.0577 57.7242 38.2019V43.5357C57.9323 43.5357 58.2443 43.5357 58.4523 43.5357C61.4685 43.5357 64.3807 43.5357 67.3969 43.5357C67.5009 43.5357 67.6049 43.5357 67.709 43.5357L66.9809 37.9136C63.9647 38.0577 60.9485 38.0577 57.9323 38.0577Z" fill="#C4C4C4"/>
<path d="M68.021 46.1306V55.9333V72.9439H57.7243H44.0992H43.0591H29.4342H28.4981H8.32062L11.4408 95.0001L72.3893 80.4402L68.021 46.1306Z" fill="#C4C4C4"/>
<path d="M28.2901 25.0834H29.4342H43.0591H44.0992H65.4208L62.1966 0L0 14.2716L3.22421 36.7603V25.0834H28.2901Z" fill="#C4C4C4"/>
</svg>
