<svg width="218" height="95" viewBox="0 0 218 95" fill="none" xmlns="http://www.w3.org/2000/svg">
<path fill-rule="evenodd" clip-rule="evenodd" d="M99.937 31.5865L101.652 32.85L108.265 27.9766L106.551 26.7132L99.937 31.5865ZM99.937 20.7569L101.652 19.4934L108.265 24.3667L106.551 25.6302L99.937 20.7569ZM117.981 20.7569L116.267 19.4934L109.653 24.3667L111.368 25.6302L117.981 20.7569ZM117.981 31.5865L116.267 32.85L109.653 27.9766L111.368 26.7132L117.981 31.5865Z" fill="#C4C4C4"/>
<path fill-rule="evenodd" clip-rule="evenodd" d="M101.652 13.3565L99.937 14.62L106.551 19.4933L108.265 18.2299L101.652 13.3565ZM116.267 13.3565L117.981 14.62L111.368 19.4933L109.653 18.2299L116.267 13.3565ZM127.697 13.5972L125.983 12.3337L119.369 17.2071L121.084 18.4705L127.697 13.5972ZM126.391 20.7568L124.676 19.4933L118.063 24.3667L119.777 25.6301L126.391 20.7568ZM126.391 31.5864L124.676 32.8499L118.063 27.9766L119.777 26.7131L126.391 31.5864ZM127.697 38.746L125.983 40.0095L119.369 35.1361L121.084 33.8727L127.697 38.746ZM116.267 39.0468L117.981 37.7834L111.368 32.91L109.653 34.1735L116.267 39.0468ZM101.652 39.0468L99.937 37.7834L106.551 32.91L108.265 34.1735L101.652 39.0468ZM90.2209 38.746L91.9355 40.0095L98.549 35.1361L96.8344 33.8727L90.2209 38.746ZM91.5273 31.5864L93.2419 32.8499L99.8553 27.9766L98.1408 26.7131L91.5273 31.5864ZM91.5273 20.7568L93.2419 19.4933L99.8553 24.3667L98.1408 25.6301L91.5273 20.7568ZM90.2209 13.5972L91.9355 12.3337L98.549 17.2071L96.8344 18.4705L90.2209 13.5972Z" fill="#C4C4C4"/>
<path fill-rule="evenodd" clip-rule="evenodd" d="M101.652 7.15966L99.937 8.42312L106.551 13.2964L108.265 12.033L101.652 7.15966ZM116.267 7.15966L117.981 8.42312L111.368 13.2964L109.653 12.033L116.267 7.15966ZM127.697 7.46048L125.983 6.19702L119.369 11.0704L121.084 12.3338L127.697 7.46048ZM136.107 13.5973L129.494 18.4706L127.779 17.2071L134.392 12.3338L136.107 13.5973ZM134.801 20.7569L133.086 19.4934L126.473 24.3668L128.187 25.6302L134.801 20.7569ZM134.801 31.5865L133.086 32.85L126.473 27.9766L128.187 26.7132L134.801 31.5865ZM136.107 38.7461L134.392 40.0096L127.779 35.1362L129.494 33.8728L136.107 38.7461ZM127.697 44.8829L121.084 40.0096L119.369 41.273L125.983 46.1464L127.697 44.8829ZM116.267 45.1837L117.981 43.9203L111.368 39.0469L109.653 40.3104L116.267 45.1837ZM101.652 45.1837L99.937 43.9203L106.551 39.0469L108.265 40.3104L101.652 45.1837ZM90.2209 44.8829L91.9355 46.1464L98.549 41.273L96.8344 40.0096L90.2209 44.8829ZM81.8112 38.7461L88.4246 33.8728L90.1392 35.1362L83.5257 40.0096L81.8112 38.7461ZM83.1175 31.5865L84.8321 32.85L91.4457 27.9766L89.731 26.7132L83.1175 31.5865ZM83.1175 20.7569L84.8321 19.4934L91.4457 24.3668L89.731 25.6302L83.1175 20.7569ZM81.8112 13.5973L83.5257 12.3338L90.1392 17.2071L88.4246 18.4706L81.8112 13.5973ZM90.2209 7.46048L96.8344 12.3338L98.549 11.0704L91.9355 6.19702L90.2209 7.46048Z" fill="#C4C4C4"/>
<path fill-rule="evenodd" clip-rule="evenodd" d="M90.221 1.26346L91.9356 0L98.549 4.87334L96.8344 6.13679L90.221 1.26346ZM101.652 0.962638L99.937 2.22609L106.551 7.09943L108.265 5.83597L101.652 0.962638ZM116.267 0.962638L117.981 2.22609L111.368 7.09943L109.653 5.83597L116.267 0.962638ZM127.697 1.26346L125.983 0L119.369 4.87334L121.084 6.13679L127.697 1.26346ZM137.413 6.43762L135.699 5.17416L129.085 10.0475L130.8 11.311L137.413 6.43762ZM144.517 13.5972L142.802 12.3338L136.189 17.2071L137.903 18.4705L144.517 13.5972ZM143.129 20.7568L141.414 19.4934L134.801 24.3667L136.515 25.6301L143.129 20.7568ZM143.129 31.5865L141.414 32.8499L134.801 27.9766L136.515 26.7131L143.129 31.5865ZM144.517 38.746L142.802 40.0095L136.189 35.1362L137.903 33.8727L144.517 38.746ZM137.413 45.9056L135.699 47.1691L129.085 42.2958L130.8 41.0323L137.413 45.9056ZM127.697 51.0798L125.983 52.3433L119.369 47.4699L121.084 46.2065L127.697 51.0798ZM116.267 51.3806L117.981 50.1172L111.368 45.2438L109.653 46.5073L116.267 51.3806ZM101.652 51.3806L99.937 50.1172L106.551 45.2438L108.265 46.5073L101.652 51.3806ZM90.221 51.0798L91.9356 52.3433L98.549 47.4699L96.8344 46.2065L90.221 51.0798ZM80.5049 45.9056L82.2194 47.1691L88.8329 42.2958L87.1183 41.0323L80.5049 45.9056ZM73.4014 38.746L75.1161 40.0095L81.7296 35.1362L80.015 33.8727L73.4014 38.746ZM74.7895 31.5865L76.5041 32.8499L83.1176 27.9766L81.403 26.7131L74.7895 31.5865ZM74.7895 20.7568L76.5041 19.4934L83.1176 24.3667L81.403 25.6301L74.7895 20.7568ZM73.4014 13.5972L75.1161 12.3338L81.7296 17.2071L80.015 18.4705L73.4014 13.5972ZM80.5049 6.43762L82.2194 5.17416L88.8329 10.0475L87.1183 11.311L80.5049 6.43762Z" fill="#C4C4C4"/>
<path fill-rule="evenodd" clip-rule="evenodd" d="M63.6036 89.5851C60.6643 89.5851 57.97 88.7428 55.9288 87.2989V95H52.4995V81.4027V73.7017H55.9288V75.5668C57.8883 74.183 60.5826 73.2805 63.6036 73.2805C69.7272 73.2805 74.6261 76.8904 74.6261 81.4027C74.6261 85.9753 69.7272 89.5851 63.6036 89.5851ZM63.6036 87.1184C67.8493 87.1184 71.2785 84.5915 71.2785 81.4629C71.2785 78.3344 67.8493 75.8074 63.6036 75.8074C59.3579 75.8074 55.9288 78.3344 55.9288 81.4629C56.0104 84.5915 59.4396 87.1184 63.6036 87.1184Z" fill="#C4C4C4"/>
<path fill-rule="evenodd" clip-rule="evenodd" d="M95.9363 73.762H99.2838V81.5233V89.2845H95.9363V87.4194C93.9767 88.8032 91.2823 89.7056 88.2614 89.7056C82.1378 89.7056 77.2389 86.0958 77.2389 81.5834C77.2389 77.0711 82.1378 73.4612 88.2614 73.4612C91.2007 73.4612 93.8951 74.3035 95.9363 75.7474V73.762ZM88.343 75.8678C84.0973 75.8678 80.6681 78.3947 80.6681 81.5233C80.6681 84.6518 84.0973 87.1787 88.343 87.1787C92.5887 87.1787 96.0179 84.6518 96.0179 81.5233C95.9363 78.3947 92.5887 75.8678 88.343 75.8678Z" fill="#C4C4C4"/>
<path fill-rule="evenodd" clip-rule="evenodd" d="M11.6755 73.7619H8.328V81.5231V89.2843H11.6755V81.5231C11.6755 78.3945 15.1048 75.8676 19.3505 75.8676C23.5962 75.8676 27.0254 78.3945 27.0254 81.5231V89.2843H30.4546V81.5231C30.4546 78.3945 33.8838 75.8676 38.1295 75.8676C42.3752 75.8676 45.8044 78.3945 45.8044 81.5231V89.2843H49.2336V81.5231C49.2336 77.0108 44.3347 73.4009 38.2111 73.4009C34.292 73.4009 30.8628 74.905 28.9032 77.1912C26.9437 74.905 23.5146 73.4009 19.5955 73.4009C16.6561 73.4009 13.9617 74.2432 11.9205 75.6871V73.7619H11.6755Z" fill="#C4C4C4"/>
<path fill-rule="evenodd" clip-rule="evenodd" d="M121.655 87.3591C119.696 88.7429 117.001 89.6453 113.98 89.6453C107.857 89.6453 102.958 86.0355 102.958 81.5231C102.958 77.0108 107.857 73.4009 113.98 73.4009C116.92 73.4009 119.614 74.2432 121.655 75.6871L119.288 77.4921C117.9 76.5294 116.022 75.9278 113.98 75.9278C109.735 75.9278 106.306 78.4547 106.306 81.5833C106.306 84.7118 109.735 87.2387 113.98 87.2387C116.022 87.2387 117.9 86.6371 119.288 85.6745L121.655 87.3591Z" fill="#C4C4C4"/>
<path fill-rule="evenodd" clip-rule="evenodd" d="M127.697 68.6479H131.127V73.7619H134.474V76.2287H131.127V89.2243H127.697V76.2287H124.35V73.7619H127.697V68.6479ZM134.474 73.7619H137.903V76.2287H134.474V73.7619Z" fill="#C4C4C4"/>
<path fill-rule="evenodd" clip-rule="evenodd" d="M154.233 68.6479L167.542 89.2243H163.786L159.622 82.7265H144.598L140.434 89.2243H136.679L149.987 68.6479H150.559H153.743H154.233ZM157.989 80.1996L152.11 71.0545L146.231 80.1996H157.989Z" fill="#C4C4C4"/>
<path fill-rule="evenodd" clip-rule="evenodd" d="M180.524 73.7619H177.094V81.5231V89.2843H180.524V81.5231C180.524 78.3945 183.953 75.8676 188.198 75.8676C192.444 75.8676 195.873 78.3945 195.873 81.5231V89.2843H199.221V81.5231C199.221 78.3945 202.65 75.8676 206.896 75.8676C211.141 75.8676 214.571 78.3945 214.571 81.5231V89.2843H218V81.5231C218 77.0108 213.101 73.4009 206.977 73.4009C203.058 73.4009 199.629 74.905 197.67 77.1912C195.71 74.905 192.281 73.4009 188.362 73.4009C185.422 73.4009 182.728 74.2432 180.687 75.6871V73.7619H180.524Z" fill="#C4C4C4"/>
<path fill-rule="evenodd" clip-rule="evenodd" d="M170.154 73.7619H173.584V89.2242H170.154V73.7619ZM171.869 67.8657C173.175 67.8657 174.155 68.6479 174.155 69.5503C174.155 70.513 173.094 71.2349 171.869 71.2349C170.563 71.2349 169.583 70.4528 169.583 69.5503C169.583 68.6479 170.563 67.8657 171.869 67.8657Z" fill="#C4C4C4"/>
<path d="M3.42917 68.6479H0V89.2243H3.42917V68.6479Z" fill="#C4C4C4"/>
</svg>
