<svg width="218" height="95" viewBox="0 0 218 95" fill="none" xmlns="http://www.w3.org/2000/svg">
<path d="M127.944 0.141124C127.944 0.423442 127.944 0.564601 127.944 0.846919C127.944 5.364 127.944 9.73993 127.944 14.257C127.944 14.5393 127.944 14.6805 127.944 14.9628C133.894 14.9628 139.647 14.9628 145.598 14.9628C145.598 18.4918 145.598 21.8797 145.598 25.2675C139.647 25.2675 133.894 25.2675 127.944 25.2675C127.944 25.4086 127.944 25.5498 127.944 25.6909C127.944 33.8781 127.944 42.2065 127.944 50.3937C127.944 51.2407 128.34 52.0876 128.935 52.9346C129.729 53.9227 131.117 54.3462 132.704 54.3462C134.093 54.3462 135.283 54.0639 136.275 53.6404C137.068 53.3581 137.663 53.0758 138.655 53.2169C139.25 53.2169 139.845 53.3581 140.242 53.6404C140.639 53.9227 140.837 54.205 141.234 54.4873C143.416 56.887 145.598 59.1455 147.78 61.5452C147.78 61.5452 147.78 61.6864 147.978 61.6864C147.78 61.8276 147.581 61.9687 147.383 62.1099C144.209 63.6627 140.639 64.7919 136.672 65.3565C132.704 66.0623 128.737 66.3447 124.571 66.0623C120.009 65.78 115.843 64.792 112.471 62.6746C109.298 60.8395 107.512 58.2986 106.719 55.4754C106.322 54.0638 106.124 52.6523 106.124 51.0995C106.124 42.7712 106.124 34.3016 106.124 25.9733C106.124 25.691 106.124 25.5497 106.124 25.1263C105.727 25.1263 105.529 25.1263 105.33 25.1263C103.545 25.1263 101.76 25.1263 99.9745 25.1263C99.3794 25.1263 98.9827 25.1263 98.3877 24.9851C96.8008 24.7028 95.8089 23.7147 95.6105 22.5854C95.6105 22.0208 95.6105 21.5973 95.6105 21.0327C95.6105 19.6211 95.6105 18.3507 95.6105 16.9391C95.6105 16.7979 95.6105 16.5156 95.6105 16.2333C99.5778 15.6686 103.347 15.2452 107.314 14.6806C107.711 13.6924 107.909 12.7043 108.306 11.7162C109.298 8.61067 110.488 5.50518 111.48 2.54084C112.075 1.12925 113.265 0.282283 115.248 0.141124C115.248 0.141124 115.447 0.141159 115.447 0C119.811 0.141159 123.976 0.141124 127.944 0.141124Z" fill="#C4C4C4"/>
<path d="M217.405 57.5929C215.62 59.0045 213.636 60.416 211.256 61.5453C206.693 63.8039 201.536 65.2154 196.18 65.7801C193.601 66.0624 191.023 66.2036 188.444 66.3447C180.113 66.4859 172.575 64.792 166.029 61.1219C161.863 58.7222 158.69 55.4755 156.706 51.9465C155.318 49.5468 154.326 47.006 153.929 44.324C153.532 42.3478 153.532 40.5127 153.731 38.5364C153.929 34.7251 155.119 31.055 157.5 27.5261C161.467 21.5974 168.013 17.6449 176.939 15.5276C179.914 14.8218 182.89 14.3983 186.064 14.2571C188.444 14.1159 190.824 14.116 193.205 14.116C202.329 14.3983 210.264 16.798 216.81 21.1739C217.008 21.3151 217.008 21.3151 217.207 21.4562C217.008 21.5974 216.81 21.7385 216.611 21.8797C215.025 23.2913 213.438 24.844 211.851 26.2556C211.256 26.6791 210.859 27.1026 210.264 27.5261C209.272 28.2319 208.082 28.5141 206.892 28.373C205.9 28.373 204.908 28.2319 203.916 27.8084C202.924 27.3849 201.933 26.9614 200.941 26.5379C199.156 25.8321 197.172 25.2675 195.188 25.1263C192.213 24.844 189.237 24.844 186.46 25.5498C183.485 26.2556 181.303 27.6673 179.716 29.5023C178.526 30.9139 177.732 32.6078 177.336 34.3017C176.344 38.113 176.344 41.9243 177.534 45.7356C178.129 47.853 179.319 49.9703 181.501 51.6642C183.683 53.3581 186.262 54.4874 189.634 54.7697C192.015 55.052 194.395 54.9108 196.775 54.4874C198.56 54.2051 200.346 53.4993 201.734 52.7935C202.726 52.3701 203.52 51.8054 204.511 51.3819C206.098 50.535 207.883 50.535 209.867 50.8173C210.661 50.9584 211.256 51.3819 211.851 51.8054C213.834 53.4993 216.016 55.3344 218 57.0283C217.207 57.3106 217.405 57.4517 217.405 57.5929C217.405 57.4517 217.405 57.4517 217.405 57.5929Z" fill="#C4C4C4"/>
<path d="M0 36.8423C0 36.7011 0.198374 36.56 0.198374 36.4188C0.595099 35.2896 1.38851 34.3015 2.57868 33.4545C3.96722 32.3253 5.55415 31.4783 7.14105 30.6314C11.1083 28.6551 15.2739 27.1023 19.8362 26.2554C20.6297 26.1142 21.2248 25.9731 22.0182 25.9731C22.2166 26.3966 22.2166 64.6506 22.0182 65.3564C21.8198 65.3564 21.6215 65.3564 21.4231 65.3564C14.4804 65.3564 7.53775 65.3564 0.793437 65.3564C0.595074 65.3564 0.198362 65.3564 0 65.2153C0 55.8988 0 46.4411 0 36.8423Z" fill="#C4C4C4"/>
<path d="M89.4614 20.6091C89.263 20.7502 89.263 20.8914 89.0646 21.0326C87.4777 22.5854 86.0892 24.2792 84.5023 25.832C84.304 25.9731 84.3039 26.1143 84.1056 26.1143C83.1138 27.2436 81.5268 27.667 79.7416 27.5259C78.7498 27.5259 77.758 27.2436 76.9645 27.1024C74.7825 26.5378 72.799 25.832 70.617 25.4085C67.6415 24.7027 64.6661 24.5615 61.6907 24.8438C60.3021 24.985 59.1119 25.2673 57.9217 25.832C56.1365 26.6789 55.5414 28.2317 55.9381 29.6433C56.1365 30.3491 56.7316 30.7725 57.5251 31.196C58.5169 31.7606 59.707 32.3252 61.0956 32.6076C63.4759 33.1722 65.8563 33.7368 68.2366 34.3015C71.8071 35.1484 75.3776 35.9954 78.9482 37.1247C81.7252 38.1128 84.304 39.242 86.2876 41.0771C88.4696 42.9122 89.6597 45.0295 89.8581 47.4292C90.0564 50.1113 89.6597 52.7933 88.2712 55.3342C86.2876 58.722 82.9154 61.2628 78.3531 62.9567C75.1793 64.2271 71.6087 64.933 68.0382 65.4976C65.0628 65.9211 62.2857 66.0622 59.3103 66.0622C51.3758 65.9211 43.8381 64.6506 36.8954 61.8275C35.7052 61.404 34.7134 60.8394 33.7216 60.2747C33.5232 60.1336 33.3249 59.9924 32.9282 59.8513C33.1265 59.7101 33.1265 59.5689 33.3248 59.2866C34.7134 57.7339 36.3003 56.0399 37.6888 54.4872C37.8872 54.2049 38.2839 53.9226 38.4823 53.6403C39.6725 52.6522 41.2593 52.0876 43.0446 52.0876C44.6315 52.0876 46.02 52.3699 47.2102 52.7933C48.7971 53.358 50.1857 53.9225 51.7726 54.4872C54.748 55.4753 57.7234 55.8988 61.0956 55.7576C62.6825 55.7576 64.071 55.6165 65.6579 55.193C67.6415 54.6283 69.0301 53.6403 69.2284 52.0876C69.4268 50.9583 69.03 49.829 67.8399 48.982C66.848 48.2762 65.4595 47.8527 64.2694 47.4292C61.889 46.7234 59.5087 46.3 57.1283 45.7354C53.3594 44.8885 49.5905 44.0414 46.02 42.771C41.656 41.2183 38.2839 38.8186 36.4987 35.4307C35.9036 34.3015 35.5068 33.0311 35.3085 31.7606C34.9117 28.7963 35.5068 25.832 37.4905 23.0088C39.4741 20.3268 42.2511 18.3506 46.02 16.7978C49.3922 15.3862 53.1611 14.5393 57.1283 14.1158C60.3021 13.8335 63.4759 13.6923 66.6497 13.8335C73.9891 14.1158 80.7334 15.5274 86.8826 18.6329C87.6761 19.4798 88.4696 20.0444 89.4614 20.6091Z" fill="#C4C4C4"/>
<path d="M0.396667 26.9609C0.793392 25.9728 1.3885 24.9848 1.78523 23.8555C2.9754 21.3146 4.36392 18.7738 5.5541 16.0917C6.14918 14.8213 7.53772 14.1155 9.52134 13.9744C9.91806 13.9744 10.5132 13.9744 10.9099 13.9744C14.2821 13.9744 17.8525 13.9744 21.2247 13.9744C21.4231 13.9744 21.8198 13.9744 22.2165 13.9744C22.2165 15.8094 22.2165 17.6444 22.2165 19.4795C21.2247 19.6207 20.2329 19.7618 19.2411 19.903C13.6869 20.6088 8.33119 22.1615 3.96722 24.7024C2.97541 25.267 1.9836 25.9728 0.99179 26.5375C0.793428 26.6786 0.595042 26.8198 0.595042 26.9609C0.595042 27.1021 0.396667 26.9609 0.396667 26.9609Z" fill="#C4C4C4"/>
<path d="M86.2875 94.8589C85.6924 94.8589 85.0973 94.8589 84.7006 94.8589C84.3039 94.8589 84.1055 94.5766 83.9072 94.4354C82.717 93.165 81.5268 91.8946 80.3367 90.6241C79.3448 89.4949 78.1547 88.3655 77.1629 87.2363C76.9645 87.0951 76.7662 86.954 76.5678 86.8128C76.5678 87.3775 76.5678 87.8009 76.5678 88.3655C76.5678 88.9302 76.5678 89.3537 76.5678 89.9183C76.5678 90.483 76.5678 91.0476 76.5678 91.6123C76.5678 92.1769 76.5678 92.6003 76.5678 93.165C76.5678 93.7296 76.5678 94.1531 76.5678 94.8589C76.1711 94.8589 75.9727 94.8589 75.576 94.8589C75.3776 94.8589 74.9808 94.8589 74.7825 94.8589C74.5841 94.4354 74.5842 85.8247 74.5842 84.4131C75.1793 84.2719 75.7743 84.2719 76.3694 84.4131C76.5678 84.4131 76.7661 84.6954 76.9645 84.8366C79.1465 87.0951 81.1301 89.3537 83.3121 91.6123C83.5105 91.8946 83.9072 92.1769 84.1055 92.4592C84.3039 91.8945 84.1055 91.3299 84.1055 90.7652C84.1055 90.2006 84.1055 89.7772 84.1055 89.2125C84.1055 88.6479 84.1055 88.0832 84.1055 87.5186C84.1055 86.954 84.1055 86.5305 84.1055 85.9659C84.1055 85.4013 84.1055 84.9778 84.1055 84.272C84.5023 84.272 84.7006 84.272 85.0973 84.272C85.2957 84.272 85.6924 84.272 86.0891 84.272C86.2875 87.8009 86.2875 91.3299 86.2875 94.8589Z" fill="#C4C4C4"/>
<path d="M190.031 84.4131C190.031 84.2719 190.031 84.2719 190.031 84.4131C192.014 84.2719 192.014 84.272 192.808 85.2601C194.792 87.3775 196.974 89.636 198.957 91.7534C199.156 91.8945 199.354 92.0357 199.552 92.1768C199.552 89.4948 199.552 86.954 199.552 84.272C200.147 84.272 200.742 84.272 201.536 84.272C201.536 87.8009 201.536 91.1887 201.536 94.7177C200.941 94.7177 200.346 94.7177 199.949 94.7177C199.751 94.7177 199.552 94.5766 199.354 94.4354C198.957 94.012 198.56 93.5884 198.164 93.3061C196.18 91.3299 194.395 89.2125 192.411 87.2363C192.213 87.0951 192.014 86.954 191.816 86.8128C191.816 89.4948 191.816 92.0357 191.816 94.8589C191.221 94.8589 190.626 94.8589 190.031 94.8589C189.832 94.4354 189.832 85.2601 190.031 84.4131Z" fill="#C4C4C4"/>
<path d="M96.2056 94.8589C96.2056 91.3299 96.2056 87.8009 96.2056 84.272C96.404 84.272 96.6023 84.272 96.8007 84.272C98.5859 84.272 100.371 84.272 102.355 84.272C105.529 84.272 107.512 85.4012 108.107 87.5186C108.702 89.0714 108.504 90.6241 107.711 92.1768C106.917 93.7296 105.33 94.5765 102.95 94.7177C100.768 94.8588 98.586 94.8589 96.2056 94.8589ZM98.1892 93.4473C98.3876 93.4473 98.3876 93.4473 98.5859 93.4473C99.7761 93.4473 100.966 93.4473 102.156 93.4473C103.942 93.4473 105.132 92.7415 105.727 91.471C106.322 90.3418 106.322 89.0713 105.925 87.9421C105.925 87.6598 105.727 87.3775 105.529 87.0951C104.934 86.2482 104.14 85.5424 102.553 85.5424C101.363 85.5424 100.371 85.5424 99.1811 85.4012C98.7843 85.4012 98.3876 85.4012 97.9909 85.4012C98.1892 88.2244 98.1892 90.9064 98.1892 93.4473Z" fill="#C4C4C4"/>
<path d="M30.5477 89.495C30.5477 88.7892 30.7461 87.9422 31.1428 87.2364C32.333 84.9779 35.3084 83.7074 38.4822 84.1309C42.2511 84.4132 44.2347 86.3895 44.6315 88.9303C44.8298 90.2008 44.6315 91.33 43.6396 92.4593C42.0527 94.5767 38.2838 95.2825 36.3002 94.859C32.333 94.2944 30.7461 92.0358 30.5477 89.9185C30.5477 89.7773 30.5477 89.6361 30.5477 89.495ZM32.5314 89.495C32.7297 90.0596 32.7297 90.6242 32.7297 91.0477C33.1265 92.6005 34.9117 93.5886 36.8953 93.7298C39.6724 93.8709 41.2593 92.8828 41.8544 91.7535C42.6478 90.2008 42.6478 88.648 41.656 87.0953C40.8626 85.8248 38.879 85.1191 36.8953 85.2602C34.9117 85.4014 33.3248 86.2483 32.7297 87.6599C32.7297 88.3657 32.5314 88.9304 32.5314 89.495Z" fill="#C4C4C4"/>
<path d="M166.823 89.4946C166.823 88.7888 167.021 88.083 167.219 87.236C168.211 84.9775 171.385 83.7071 174.757 83.9894C178.328 84.2717 180.51 86.2479 180.906 88.7888C181.105 89.9181 180.906 91.0473 180.113 92.1766C178.724 94.1528 175.551 95.1409 172.575 94.7174C168.409 94.2939 166.823 91.7531 166.823 89.4946ZM168.806 89.4946C169.005 90.0592 169.005 90.6238 169.203 91.0473C169.6 92.4589 171.187 93.5882 173.17 93.7294C175.551 93.8705 177.336 93.3059 178.328 92.0354C179.518 90.3415 179.319 88.6476 178.129 87.0949C177.137 85.8245 175.551 85.2598 173.369 85.401C171.385 85.5421 169.996 86.2479 169.401 87.6595C169.005 88.2241 169.005 88.93 168.806 89.4946Z" fill="#C4C4C4"/>
<path d="M125.762 91.6123C123.58 91.6123 121.596 91.6123 119.612 91.6123C119.017 92.6004 118.621 93.7296 118.025 94.7177C117.232 94.7177 116.637 94.7177 115.843 94.7177C117.629 91.1887 119.612 87.8009 121.398 84.272C121.794 84.272 122.191 84.272 122.588 84.272C122.985 84.272 123.183 84.272 123.58 84.272C125.563 87.8009 127.547 91.1887 129.53 94.7177C128.737 94.7177 128.142 94.7177 127.348 94.7177C126.952 93.7296 126.357 92.7415 125.762 91.6123ZM124.968 90.4829C124.175 88.789 123.381 87.2363 122.588 85.6836C121.794 87.2363 121.001 88.9302 120.207 90.4829C121.794 90.4829 123.381 90.4829 124.968 90.4829Z" fill="#C4C4C4"/>
<path d="M63.0791 84.272C63.6742 84.272 64.2693 84.272 65.0627 84.272C65.0627 84.4131 65.0627 84.5543 65.0627 84.6954C65.0627 86.6717 65.0627 88.6479 65.0627 90.6241C65.0627 91.1888 64.8644 91.8945 64.666 92.4592C64.2693 93.4473 63.4758 94.1531 62.0873 94.5766C60.1037 95.1412 58.1201 95.1412 56.1364 94.5766C54.9463 94.1531 54.1528 93.5885 53.7561 92.7415C53.5578 92.318 53.3594 92.0357 53.3594 91.6123C53.3594 89.2126 53.3594 86.8128 53.3594 84.4131C53.9545 84.4131 54.5495 84.4131 55.1446 84.4131C55.1446 84.5543 55.1446 84.8366 55.1446 84.9778C55.1446 86.8128 55.1446 88.5067 55.1446 90.3418C55.1446 90.7653 55.1446 91.3299 55.343 91.7534C55.5414 92.8826 56.3348 93.4473 57.9217 93.7296C58.7151 93.8708 59.707 93.8707 60.5004 93.5884C61.4922 93.4473 62.2857 92.8826 62.484 92.1768C62.6824 91.6122 62.6824 91.0476 62.8807 90.3418C62.8807 88.5067 62.8807 86.8128 62.8807 84.9778C63.0791 84.8366 63.0791 84.5543 63.0791 84.272Z" fill="#C4C4C4"/>
<path d="M22.0182 84.272C22.0182 84.6954 22.0182 85.1189 22.0182 85.5424C19.4395 85.5424 16.8608 85.5424 14.0837 85.5424C14.0837 86.6716 14.0837 87.6598 14.0837 88.7891C16.2657 88.7891 18.4477 88.7891 20.8281 88.7891C20.8281 89.2126 20.8281 89.636 20.8281 90.0595C18.6461 90.2006 16.4641 90.0595 14.0837 90.0595C14.0837 91.6122 14.0837 93.165 14.0837 94.8589C13.4887 94.8589 12.8936 94.8589 12.1001 94.8589C12.1001 91.3299 12.1001 87.9421 12.1001 84.4131C15.4723 84.2719 18.6461 84.272 22.0182 84.272Z" fill="#C4C4C4"/>
<path d="M146.59 84.272C146.59 84.6954 146.59 84.9777 146.59 85.5424C145.003 85.5424 143.416 85.5424 141.829 85.5424C141.829 88.6478 141.829 91.7533 141.829 94.7177C141.234 94.7177 140.639 94.7177 139.845 94.7177C139.845 91.6122 139.845 88.6478 139.845 85.5424C138.258 85.5424 136.672 85.5424 135.085 85.5424C135.085 85.1189 135.085 84.6954 135.085 84.4131C135.68 84.2719 145.003 84.272 146.59 84.272Z" fill="#C4C4C4"/>
<path d="M157.5 84.272C157.5 87.8009 157.5 91.1887 157.5 94.7177C156.904 94.7177 156.309 94.7177 155.714 94.7177C155.714 91.1887 155.714 87.8009 155.714 84.272C156.309 84.272 156.904 84.272 157.5 84.272Z" fill="#C4C4C4"/>
</svg>
