<svg width="218" height="95" viewBox="0 0 218 95" fill="none" xmlns="http://www.w3.org/2000/svg">
<path d="M102.904 26.3184C102.904 26.4591 102.813 26.7406 102.722 26.8814C102.631 27.0221 102.54 27.1629 102.358 27.1629C102.176 27.1629 101.994 27.0221 101.903 26.7406L100.72 22.3776H94.1694L92.9866 26.7406C92.8956 27.0221 92.8046 27.1629 92.5316 27.1629C92.3497 27.1629 92.2588 27.0221 92.1678 26.8814C92.0768 26.7406 92.0767 26.5998 92.0767 26.3184C92.0767 26.1776 92.0768 26.0369 92.1678 26.0369L97.0809 8.16285C97.1719 7.88137 97.3539 7.59985 97.5358 7.59985C97.7178 7.59985 97.8998 7.74063 97.9907 8.16285L102.904 26.0369C102.904 26.0369 102.904 26.1776 102.904 26.3184ZM100.447 20.8295L97.5358 9.99246L94.6243 20.8295H100.447Z" fill="#C4C4C4"/>
<path d="M109.546 14.074C109.546 14.2147 109.546 14.2147 109.546 14.2147C109.546 14.3554 109.455 14.4962 109.364 14.6369C109.273 14.7776 109.182 14.7777 109.091 14.7777C109 14.7777 108.909 14.7777 108.727 14.7777C108.545 14.7777 108.454 14.7777 108.363 14.7777C107.817 14.7777 107.362 14.9184 106.907 15.3406C106.452 15.6221 106.179 16.185 105.907 16.748C105.634 17.311 105.543 18.0147 105.543 18.8591V26.4592C105.543 26.7406 105.543 26.8813 105.452 27.0221C105.361 27.1628 105.27 27.3036 105.088 27.3036C104.906 27.3036 104.815 27.1628 104.724 27.0221C104.633 26.8813 104.542 26.7406 104.542 26.4592V14.2147C104.542 13.9332 104.633 13.7924 104.724 13.6517C104.815 13.511 104.906 13.511 105.088 13.511C105.27 13.511 105.361 13.511 105.452 13.6517C105.543 13.7924 105.543 13.9332 105.543 14.2147V15.7628C105.816 15.0591 106.27 14.3554 106.725 13.9332C107.18 13.511 107.726 13.2295 108.272 13.2295C109.182 13.2295 109.546 13.511 109.546 14.074Z" fill="#C4C4C4"/>
<path d="M122.648 13.9332C123.194 14.4962 123.558 15.0591 123.831 16.0443C124.103 16.8888 124.285 18.0147 124.285 19.1406V26.3184C124.285 26.5998 124.285 26.7406 124.194 26.8814C124.103 27.0221 124.012 27.1629 123.831 27.1629C123.649 27.1629 123.558 27.0221 123.467 26.8814C123.376 26.7406 123.285 26.5998 123.285 26.3184V19.1406C123.285 17.874 123.103 16.748 122.648 16.0443C122.193 15.1999 121.647 14.7777 120.919 14.7777C120.191 14.7777 119.554 15.1999 119.099 15.9036C118.644 16.6073 118.371 17.7332 118.462 18.9999V19.1406V26.3184C118.462 26.5998 118.462 26.7406 118.371 26.8814C118.28 27.0221 118.189 27.1629 118.007 27.1629C117.825 27.1629 117.735 27.0221 117.644 26.8814C117.553 26.7406 117.462 26.5998 117.462 26.3184V19.1406C117.462 17.874 117.28 16.748 116.825 16.0443C116.37 15.1999 115.824 14.7777 115.096 14.7777C114.368 14.7777 113.731 15.1999 113.276 15.9036C112.821 16.6073 112.548 17.5925 112.548 18.7184V26.3184C112.548 26.5998 112.548 26.7406 112.457 26.8814C112.366 27.0221 112.275 27.1629 112.093 27.1629C111.911 27.1629 111.821 27.0221 111.73 26.8814C111.639 26.7406 111.548 26.5998 111.548 26.3184V14.2147C111.548 13.9332 111.639 13.7924 111.73 13.6517C111.821 13.511 111.911 13.511 112.093 13.511C112.275 13.511 112.366 13.511 112.457 13.6517C112.548 13.7924 112.548 13.9332 112.548 14.2147V15.1999C112.821 14.6369 113.185 14.074 113.64 13.7925C114.095 13.511 114.55 13.2295 115.096 13.2295C115.733 13.2295 116.279 13.511 116.734 13.9332C117.189 14.3554 117.644 15.0592 117.916 15.9036C118.189 15.0592 118.644 14.3554 119.099 13.9332C119.645 13.511 120.191 13.2295 120.828 13.2295C121.647 13.2295 122.193 13.511 122.648 13.9332Z" fill="#C4C4C4"/>
<path d="M132.838 14.0741C133.475 14.637 133.93 15.4814 134.294 16.4666C134.658 17.4518 134.84 18.5777 134.84 19.9851C134.84 20.2666 134.84 20.4074 134.749 20.5481C134.658 20.6888 134.567 20.6888 134.385 20.6888H127.652C127.652 21.674 127.834 22.5185 128.107 23.3629C128.38 24.0666 128.835 24.7703 129.29 25.1925C129.836 25.6147 130.381 25.8962 131.018 25.8962C131.473 25.8962 131.837 25.7555 132.292 25.6147C132.747 25.3332 133.02 25.0518 133.293 24.7703C133.384 24.6296 133.475 24.6296 133.657 24.6296C133.748 24.6296 133.839 24.6296 133.93 24.7703C134.021 24.9111 134.112 25.0518 134.112 25.3333C134.112 25.4741 134.021 25.6148 133.93 25.7555C133.566 26.1777 133.111 26.5999 132.565 27.0221C132.019 27.3036 131.473 27.4444 131.018 27.4444C130.2 27.4444 129.381 27.1629 128.744 26.5999C128.107 26.037 127.561 25.1925 127.197 24.0666C126.833 22.9407 126.651 21.8148 126.651 20.5481C126.651 19.1407 126.833 18.0148 127.197 16.8889C127.561 15.7629 128.016 15.0592 128.653 14.3555C129.29 13.7925 130.018 13.5111 130.836 13.5111C131.473 13.2296 132.201 13.5111 132.838 14.0741ZM128.562 15.9037C128.016 16.7481 127.652 17.874 127.561 19.2814H133.839C133.748 17.874 133.475 16.7481 132.838 15.9037C132.292 15.0592 131.564 14.637 130.654 14.637C129.836 14.637 129.108 15.0592 128.562 15.9037Z" fill="#C4C4C4"/>
<path d="M143.028 13.9332C143.665 14.4962 144.12 15.1999 144.484 16.1851C144.848 17.1703 145.03 18.2962 145.03 19.5628V26.3184C145.03 26.5998 144.939 26.7406 144.848 26.8814C144.757 27.0221 144.666 27.1629 144.484 27.1629C144.302 27.1629 144.211 27.0221 144.12 26.8814C144.029 26.7406 143.938 26.5998 143.938 26.3184V19.5628C143.938 18.0147 143.665 16.748 143.119 15.9036C142.574 15.0592 141.755 14.6369 140.845 14.6369C140.299 14.6369 139.753 14.7777 139.298 15.1999C138.843 15.4814 138.479 16.0443 138.206 16.6073C137.933 17.1703 137.842 17.8739 137.842 18.5776V26.1777C137.842 26.4591 137.842 26.5999 137.751 26.7407C137.66 26.8814 137.569 27.0221 137.387 27.0221C137.205 27.0221 137.114 26.8814 137.023 26.7407C136.932 26.5999 136.841 26.4591 136.841 26.1777V14.2147C136.841 13.9332 136.932 13.7924 137.023 13.6517C137.114 13.511 137.205 13.511 137.387 13.511C137.569 13.511 137.66 13.511 137.751 13.6517C137.842 13.7924 137.842 13.9332 137.842 14.2147V15.4814C138.206 14.7777 138.661 14.2147 139.207 13.7925C139.753 13.3703 140.299 13.2295 140.936 13.2295C141.664 13.2295 142.391 13.511 143.028 13.9332Z" fill="#C4C4C4"/>
<path d="M149.033 8.4441C149.215 8.58484 149.215 8.86628 149.215 9.28851C149.215 9.56999 149.124 9.85143 149.033 10.1329C148.851 10.4144 148.669 10.4144 148.487 10.4144C148.305 10.4144 148.124 10.2737 147.942 10.1329C147.76 9.85143 147.76 9.56999 147.76 9.28851C147.76 8.86628 147.851 8.58484 147.942 8.4441C148.124 8.30336 148.305 8.1626 148.487 8.1626C148.76 8.1626 148.851 8.30336 149.033 8.4441ZM148.124 13.6514C148.215 13.5107 148.305 13.5107 148.487 13.5107C148.669 13.5107 148.76 13.5107 148.851 13.6514C148.942 13.7922 148.942 13.933 148.942 14.2144V26.3181C148.942 26.5996 148.942 26.7404 148.851 26.8811C148.76 27.0218 148.669 27.1626 148.487 27.1626C148.305 27.1626 148.215 27.0218 148.124 26.8811C148.033 26.7404 147.942 26.5996 147.942 26.3181V14.2144C148.033 13.933 148.033 13.7922 148.124 13.6514Z" fill="#C4C4C4"/>
<path d="M158.587 14.2146C159.315 14.7775 159.77 15.6219 160.225 16.7479C160.588 17.8738 160.77 18.9997 160.77 20.2664V26.3182C160.77 26.5997 160.77 26.7405 160.679 26.8812C160.588 27.022 160.497 27.1627 160.316 27.1627C160.134 27.1627 160.043 27.022 159.952 26.8812C159.861 26.7405 159.77 26.5997 159.77 26.3182V24.3479C159.406 25.1924 158.951 25.8961 158.314 26.459C157.677 27.022 157.04 27.1627 156.221 27.1627C155.402 27.1627 154.583 26.8812 153.947 26.3182C153.219 25.7553 152.673 24.9108 152.309 23.7849C151.945 22.659 151.763 21.5331 151.763 20.2664C151.763 18.9997 151.945 17.7331 152.309 16.7479C152.673 15.6219 153.219 14.7775 153.947 14.2146C154.674 13.6516 155.402 13.3701 156.221 13.3701C157.131 13.2294 157.859 13.5109 158.587 14.2146ZM158.041 25.0516C158.587 24.6294 159.042 23.9257 159.315 23.0812C159.588 22.2368 159.77 21.2516 159.77 20.2664C159.77 19.2812 159.588 18.296 159.315 17.4516C159.042 16.6071 158.587 15.9035 158.041 15.4813C157.495 15.059 156.858 14.7776 156.221 14.7776C155.584 14.7776 154.947 15.059 154.401 15.4813C153.856 15.9035 153.401 16.6071 153.128 17.4516C152.855 18.296 152.673 19.2812 152.673 20.2664C152.673 21.2516 152.855 22.2368 153.128 23.0812C153.401 23.9257 153.856 24.6294 154.401 25.0516C154.947 25.4738 155.584 25.7553 156.221 25.7553C156.949 25.7553 157.495 25.6146 158.041 25.0516Z" fill="#C4C4C4"/>
<path d="M102.631 38.985C102.722 38.8443 102.813 38.7036 102.995 38.7036C103.086 38.7036 103.268 38.8443 103.359 38.985C103.45 39.1258 103.541 39.2665 103.541 39.548V57.5628C103.541 57.8443 103.45 57.9851 103.359 58.1258C103.268 58.2666 103.177 58.4073 102.995 58.4073C102.813 58.4073 102.722 58.2666 102.631 58.1258L94.4425 41.6591V57.7036C94.4425 57.9851 94.3514 58.1258 94.2604 58.2665C94.1695 58.4073 94.0784 58.548 93.8965 58.548C93.7145 58.548 93.6236 58.4073 93.5326 58.2665C93.4416 58.1258 93.3506 57.9851 93.3506 57.7036V39.548C93.3506 39.2665 93.4416 39.1258 93.5326 38.985C93.6236 38.8443 93.7145 38.7036 93.8965 38.7036C94.0784 38.7036 94.1695 38.8443 94.2604 38.985L102.449 55.4517V39.548C102.449 39.2665 102.54 39.1258 102.631 38.985Z" fill="#C4C4C4"/>
<path d="M112.821 45.3183C113.549 45.8813 114.004 46.7258 114.459 47.8517C114.823 48.9776 115.005 50.1035 115.005 51.3702V57.422C115.005 57.7035 115.005 57.8442 114.914 57.985C114.823 58.1257 114.732 58.2665 114.55 58.2665C114.368 58.2665 114.277 58.1257 114.186 57.985C114.095 57.8442 114.004 57.7035 114.004 57.422V55.4516C113.64 56.2961 113.185 56.9998 112.548 57.5627C111.911 58.1257 111.275 58.2665 110.456 58.2665C109.637 58.2665 108.818 57.985 108.181 57.422C107.453 56.8591 106.907 56.0147 106.543 54.8887C106.179 53.7628 105.997 52.6369 105.997 51.3702C105.997 50.1035 106.179 48.8369 106.543 47.8517C106.907 46.7258 107.453 46.022 108.181 45.3183C108.909 44.7553 109.637 44.4739 110.456 44.4739C111.366 44.4739 112.093 44.7553 112.821 45.3183ZM112.366 56.2961C112.912 55.8739 113.367 55.1702 113.64 54.3257C113.913 53.4813 114.095 52.4961 114.095 51.5109C114.095 50.5257 113.913 49.5405 113.64 48.6961C113.367 47.8517 112.912 47.1479 112.366 46.7257C111.821 46.3035 111.184 46.022 110.547 46.022C109.91 46.022 109.273 46.3035 108.727 46.7257C108.181 47.1479 107.726 47.8517 107.453 48.6961C107.18 49.5405 106.998 50.5257 106.998 51.5109C106.998 52.4961 107.18 53.4813 107.453 54.3257C107.726 55.1702 108.181 55.8739 108.727 56.2961C109.273 56.7184 109.91 56.9998 110.547 56.9998C111.184 56.9998 111.821 56.7184 112.366 56.2961Z" fill="#C4C4C4"/>
<path d="M121.829 56.8592C121.92 56.9999 122.011 57.1407 122.011 57.4222C122.011 57.7037 121.92 57.8443 121.829 57.9851C121.738 58.1258 121.647 58.2666 121.465 58.2666H121.101C120.464 58.2666 120.009 58.1259 119.554 57.7037C119.099 57.2815 118.735 56.7185 118.462 56.0148C118.189 55.3111 118.099 54.4666 118.099 53.6222V46.5851H116.825C116.734 46.5851 116.552 46.5852 116.552 46.4444C116.461 46.3037 116.461 46.1629 116.461 46.0221C116.461 45.8814 116.461 45.5999 116.552 45.5999C116.643 45.4592 116.734 45.4592 116.825 45.4592H118.099V40.9555C118.099 40.674 118.19 40.5332 118.281 40.3925C118.372 40.2518 118.463 40.1111 118.644 40.1111C118.826 40.1111 118.917 40.2518 119.008 40.3925C119.099 40.5332 119.19 40.674 119.19 40.9555V45.037H121.283C121.374 45.037 121.556 45.037 121.556 45.1777C121.647 45.3185 121.647 45.4592 121.647 45.5999C121.647 45.7407 121.647 46.0221 121.556 46.0221C121.465 46.1629 121.374 46.1629 121.283 46.1629H119.19V53.2C119.19 54.1851 119.372 54.8889 119.736 55.5926C120.1 56.1555 120.646 56.437 121.192 56.437H121.556C121.556 56.7185 121.738 56.7184 121.829 56.8592Z" fill="#C4C4C4"/>
<path d="M125.286 39.6889C125.468 39.8296 125.468 40.1112 125.468 40.5334C125.468 40.8149 125.377 41.0963 125.286 41.3778C125.104 41.6593 124.922 41.6593 124.74 41.6593C124.558 41.6593 124.376 41.5185 124.194 41.3778C124.013 41.0963 124.013 40.8149 124.013 40.5334C124.013 40.1112 124.104 39.8296 124.194 39.6889C124.376 39.5481 124.558 39.4075 124.74 39.4075C124.922 39.4075 125.104 39.5481 125.286 39.6889ZM124.376 44.7556C124.467 44.6149 124.558 44.6148 124.74 44.6148C124.922 44.6148 125.013 44.6149 125.104 44.7556C125.195 44.8963 125.195 45.037 125.195 45.3185V57.4223C125.195 57.7038 125.195 57.8444 125.104 57.9852C125.013 58.1259 124.922 58.2667 124.74 58.2667C124.558 58.2667 124.467 58.1259 124.376 57.9852C124.285 57.8444 124.194 57.7038 124.194 57.4223V45.3185C124.285 45.037 124.285 44.8963 124.376 44.7556Z" fill="#C4C4C4"/>
<path d="M134.749 45.3183C135.477 45.8813 135.932 46.7258 136.387 47.8517C136.75 48.9776 136.932 50.1035 136.932 51.3702C136.932 52.6369 136.75 53.9035 136.387 54.8887C136.023 56.0147 135.477 56.8591 134.749 57.422C134.021 57.985 133.293 58.2665 132.474 58.2665C131.655 58.2665 130.836 57.985 130.2 57.422C129.472 56.8591 128.926 56.0147 128.562 54.8887C128.198 53.7628 128.016 52.6369 128.016 51.3702C128.016 50.1035 128.198 48.8369 128.562 47.8517C128.926 46.7258 129.472 46.022 130.2 45.3183C130.927 44.7553 131.655 44.4739 132.474 44.4739C133.293 44.4739 134.112 44.7553 134.749 45.3183ZM130.654 46.585C130.109 47.0072 129.654 47.7109 129.381 48.5554C129.108 49.3998 128.926 50.385 128.926 51.3702C128.926 52.3554 129.108 53.3406 129.381 54.185C129.654 55.0295 130.109 55.7331 130.654 56.1553C131.2 56.5776 131.837 56.859 132.474 56.859C133.111 56.859 133.748 56.5776 134.294 56.1553C134.84 55.7331 135.295 55.0295 135.568 54.185C135.841 53.3406 136.023 52.3554 136.023 51.3702C136.023 50.385 135.841 49.3998 135.568 48.5554C135.295 47.7109 134.84 47.0072 134.294 46.585C133.748 46.1628 133.111 45.8813 132.474 45.8813C131.837 45.8813 131.2 46.022 130.654 46.585Z" fill="#C4C4C4"/>
<path d="M145.576 45.1777C146.213 45.7406 146.668 46.4443 147.032 47.4295C147.396 48.4147 147.578 49.5406 147.578 50.8073V57.5628C147.578 57.8443 147.487 57.9851 147.396 58.1258C147.305 58.2666 147.214 58.4073 147.032 58.4073C146.85 58.4073 146.759 58.2666 146.668 58.1258C146.577 57.9851 146.486 57.8443 146.486 57.5628V50.8073C146.486 49.2591 146.213 47.9925 145.667 47.1481C145.121 46.3036 144.302 45.8814 143.392 45.8814C142.846 45.8814 142.301 46.0221 141.846 46.4444C141.391 46.7258 141.027 47.2888 140.754 47.8518C140.481 48.4147 140.39 49.1184 140.39 49.8221V57.4221C140.39 57.7036 140.39 57.8443 140.299 57.985C140.208 58.1258 140.117 58.2665 139.935 58.2665C139.753 58.2665 139.662 58.1258 139.571 57.985C139.48 57.8443 139.389 57.7036 139.389 57.4221V45.3184C139.389 45.0369 139.48 44.8962 139.571 44.7555C139.662 44.6147 139.753 44.6147 139.935 44.6147C140.117 44.6147 140.208 44.6147 140.299 44.7555C140.39 44.8962 140.39 45.0369 140.39 45.3184V46.5851C140.754 45.8814 141.209 45.3184 141.755 44.8962C142.301 44.4739 142.846 44.3333 143.483 44.3333C144.211 44.474 144.939 44.6147 145.576 45.1777Z" fill="#C4C4C4"/>
<path d="M156.585 45.3183C157.313 45.8813 157.768 46.7258 158.223 47.8517C158.587 48.9776 158.769 50.1035 158.769 51.3702V57.422C158.769 57.7035 158.769 57.8442 158.678 57.985C158.587 58.1257 158.496 58.2665 158.314 58.2665C158.132 58.2665 158.041 58.1257 157.95 57.985C157.859 57.8442 157.768 57.7035 157.768 57.422V55.4516C157.404 56.2961 156.949 56.9998 156.312 57.5627C155.675 58.1257 155.038 58.2665 154.22 58.2665C153.401 58.2665 152.582 57.985 151.945 57.422C151.217 56.8591 150.671 56.0147 150.307 54.8887C149.943 53.7628 149.761 52.6369 149.761 51.3702C149.761 50.1035 149.943 48.8369 150.307 47.8517C150.671 46.7258 151.217 46.022 151.945 45.3183C152.673 44.7553 153.401 44.4739 154.22 44.4739C155.129 44.4739 155.948 44.7553 156.585 45.3183ZM156.13 56.2961C156.676 55.8739 157.131 55.1702 157.404 54.3257C157.677 53.4813 157.859 52.4961 157.859 51.5109C157.859 50.5257 157.677 49.5405 157.404 48.6961C157.131 47.8517 156.676 47.1479 156.13 46.7257C155.584 46.3035 154.947 46.022 154.311 46.022C153.674 46.022 153.037 46.3035 152.491 46.7257C151.945 47.1479 151.49 47.8517 151.217 48.6961C150.944 49.5405 150.762 50.5257 150.762 51.5109C150.762 52.4961 150.944 53.4813 151.217 54.3257C151.49 55.1702 151.945 55.8739 152.491 56.2961C153.037 56.7184 153.674 56.9998 154.311 56.9998C154.947 56.9998 155.584 56.7184 156.13 56.2961Z" fill="#C4C4C4"/>
<path d="M161.043 38.9849C161.134 38.8442 161.225 38.8442 161.407 38.8442C161.589 38.8442 161.68 38.8442 161.771 38.9849C161.862 39.1257 161.862 39.2665 161.862 39.5479V54.185C161.862 54.8887 161.953 55.5924 162.135 56.0146C162.317 56.4368 162.59 56.7183 162.954 56.7183H163.318C163.409 56.7183 163.5 56.7183 163.591 56.859C163.682 56.9998 163.682 57.1406 163.682 57.422C163.682 57.7035 163.682 57.8442 163.591 57.9849C163.5 58.1257 163.409 58.2664 163.227 58.2664H162.863C162.226 58.2664 161.771 57.8442 161.316 57.1405C160.952 56.4368 160.77 55.4517 160.77 54.185V39.5479C160.861 39.2665 160.952 39.1257 161.043 38.9849Z" fill="#C4C4C4"/>
<path d="M176.238 39.4073C176.875 39.9703 177.421 40.674 177.694 41.5184C177.694 41.6592 177.785 41.7999 177.785 41.9406C177.785 42.0814 177.785 42.2221 177.694 42.3628C177.603 42.5036 177.603 42.5036 177.512 42.6443C177.512 42.6443 177.421 42.6443 177.33 42.6443C177.148 42.6443 176.966 42.5036 176.875 42.2221C176.238 40.8147 175.328 40.111 174.145 40.111C173.235 40.111 172.598 40.3924 172.053 41.0961C171.598 41.6591 171.325 42.6443 171.325 43.7702C171.325 44.7554 171.598 45.4591 172.053 46.1628C172.507 46.7258 173.326 47.2888 174.327 47.5703C175.692 47.8517 176.693 48.5554 177.33 49.5406C177.967 50.5258 178.24 51.6517 178.24 53.1999C178.24 54.3258 178.058 55.311 177.785 56.1554C177.421 56.9998 176.966 57.7036 176.42 58.1258C175.783 58.548 175.146 58.8295 174.327 58.8295C173.326 58.8295 172.416 58.548 171.689 57.8443C170.961 57.1406 170.415 56.2961 170.051 55.1702C170.051 55.0295 169.96 55.0295 169.96 54.8888C169.96 54.748 170.051 54.4665 170.142 54.3258C170.233 54.185 170.324 54.1851 170.506 54.1851C170.688 54.1851 170.87 54.3258 170.961 54.6073C171.234 55.4517 171.689 56.0146 172.235 56.5776C172.78 56.9998 173.508 57.2813 174.327 57.2813C175.237 57.2813 175.965 56.8591 176.511 56.1554C177.057 55.4517 177.33 54.4665 177.33 53.0591C177.33 51.9332 177.057 50.948 176.511 50.2443C175.965 49.5406 175.237 48.9776 174.236 48.8369C173.053 48.5554 172.144 47.9924 171.416 47.0073C170.688 46.0221 170.415 44.8962 170.415 43.6295C170.415 42.6443 170.597 41.7998 170.87 41.0961C171.143 40.3924 171.598 39.8295 172.235 39.4073C172.78 38.9851 173.508 38.8443 174.236 38.8443C174.873 38.5628 175.601 38.8443 176.238 39.4073Z" fill="#C4C4C4"/>
<path d="M187.52 39.9705C188.521 40.8149 189.249 41.9408 189.795 43.489C190.341 44.8964 190.614 46.5853 190.614 48.5557C190.614 50.3853 190.341 52.0742 189.795 53.6223C189.249 55.1705 188.521 56.2964 187.52 57.1408C186.519 57.9853 185.518 58.4075 184.245 58.4075H181.333C181.151 58.4075 181.06 58.2668 180.969 58.126C180.878 57.9853 180.787 57.8445 180.787 57.563V39.5482C180.787 39.2668 180.878 39.126 180.969 38.9852C181.06 38.8445 181.151 38.8445 181.333 38.8445H184.245C185.427 38.7038 186.519 39.126 187.52 39.9705ZM186.974 55.7334C187.793 55.0297 188.43 54.0446 188.885 52.7779C189.34 51.5112 189.613 50.1038 189.613 48.4149C189.613 46.726 189.34 45.3186 188.885 44.052C188.43 42.7853 187.793 41.8001 186.974 41.0964C186.155 40.3927 185.245 39.9705 184.245 39.9705H181.788V56.7186H184.245C185.245 56.8594 186.155 56.5779 186.974 55.7334Z" fill="#C4C4C4"/>
<path d="M202.442 48.9776C202.533 49.1183 202.623 49.259 202.623 49.5405V55.8738C202.623 56.0146 202.623 56.1553 202.623 56.1553C202.623 56.2961 202.624 56.2961 202.533 56.4368C201.623 57.8442 200.258 58.5479 198.529 58.5479C197.437 58.5479 196.346 58.1257 195.345 57.1405C194.344 56.2961 193.616 55.0295 193.07 53.4813C192.524 51.9332 192.251 50.2443 192.251 48.5554C192.251 46.7258 192.524 45.1776 193.07 43.6295C193.616 42.0813 194.435 40.8146 195.345 39.9702C196.346 39.1257 197.346 38.5627 198.529 38.5627C200.076 38.5627 201.35 39.2665 202.533 40.8146C202.624 40.9554 202.715 41.0961 202.715 41.3776C202.715 41.5183 202.714 41.7998 202.623 41.9406C202.532 42.0813 202.442 42.2221 202.26 42.2221C202.169 42.2221 201.987 42.0813 201.896 41.9406C201.077 40.8146 199.985 40.2517 198.62 40.2517C197.71 40.2517 196.801 40.6739 195.982 41.3776C195.163 42.222 194.526 43.2072 193.98 44.4739C193.525 45.7405 193.252 47.1479 193.252 48.6961C193.252 50.2442 193.525 51.6517 193.98 52.9183C194.435 54.185 195.072 55.3109 195.891 56.0146C196.71 56.7183 197.619 57.1405 198.529 57.1405C199.712 57.1405 200.713 56.5776 201.623 55.5924V50.2442H198.893C198.711 50.2442 198.62 50.2442 198.529 50.1035C198.438 49.9628 198.347 49.822 198.347 49.5405C198.347 49.3998 198.438 49.259 198.529 49.1183C198.62 48.9776 198.711 48.9776 198.893 48.9776H202.078C202.169 48.6961 202.351 48.8369 202.442 48.9776Z" fill="#C4C4C4"/>
<path d="M93.6236 70.2293C93.8056 69.9479 93.9875 69.8071 94.2604 69.8071C94.5334 69.8071 94.7154 69.9479 94.8974 70.2293C95.0794 70.5108 95.1703 70.7923 95.1703 71.2145V88.1034C95.1703 88.5256 95.0794 88.8071 94.8974 89.0886C94.7154 89.3701 94.5334 89.5108 94.2604 89.5108C93.9875 89.5108 93.8056 89.3701 93.6236 89.0886C93.4416 88.8071 93.3506 88.5256 93.3506 88.1034V71.2145C93.4416 70.7923 93.5326 70.5108 93.6236 70.2293Z" fill="#C4C4C4"/>
<path d="M104.542 76.4222C105.088 76.9852 105.634 77.6888 105.907 78.674C106.271 79.6592 106.362 80.7851 106.362 82.1925V88.3852C106.362 88.8074 106.27 89.0888 106.089 89.2296C105.907 89.5111 105.725 89.6518 105.543 89.6518C105.27 89.6518 105.088 89.5111 104.997 89.2296C104.815 88.9481 104.724 88.6666 104.724 88.3852V82.1925C104.724 80.7851 104.451 79.7999 103.996 79.0962C103.541 78.3925 102.904 78.1111 102.176 78.1111C101.721 78.1111 101.357 78.2518 100.902 78.5333C100.538 78.8148 100.266 79.237 99.9926 79.6592C99.8106 80.0814 99.7196 80.6444 99.7196 81.3481V88.3852C99.7196 88.8074 99.6286 89.0888 99.5376 89.2296C99.3557 89.5111 99.1736 89.6518 98.9007 89.6518C98.6277 89.6518 98.4458 89.5111 98.3548 89.2296C98.1728 88.9481 98.0819 88.6666 98.0819 88.3852V77.2666C98.0819 76.8444 98.1728 76.5629 98.3548 76.2814C98.5368 75.9999 98.7187 76 98.9007 76C99.1736 76 99.3557 76.1407 99.5376 76.2814C99.7196 76.5629 99.7196 76.8444 99.7196 77.2666V77.5481C100.084 76.9851 100.447 76.5629 100.902 76.2814C101.357 75.9999 101.903 75.8592 102.449 75.8592C103.268 75.5777 103.996 75.8592 104.542 76.4222Z" fill="#C4C4C4"/>
<path d="M115.551 76.4222C116.097 76.9852 116.643 77.6888 116.916 78.674C117.28 79.6592 117.371 80.7851 117.371 82.1925V88.3852C117.371 88.8074 117.28 89.0888 117.098 89.2296C116.916 89.5111 116.734 89.6518 116.552 89.6518C116.279 89.6518 116.097 89.5111 116.006 89.2296C115.824 88.9481 115.733 88.6666 115.733 88.3852V82.1925C115.733 80.7851 115.46 79.7999 115.005 79.0962C114.55 78.3925 113.913 78.1111 113.185 78.1111C112.73 78.1111 112.366 78.2518 111.912 78.5333C111.548 78.8148 111.275 79.237 111.002 79.6592C110.82 80.0814 110.729 80.6444 110.729 81.3481V88.3852C110.729 88.8074 110.638 89.0888 110.547 89.2296C110.365 89.5111 110.183 89.6518 109.91 89.6518C109.637 89.6518 109.455 89.5111 109.364 89.2296C109.182 88.9481 109.091 88.6666 109.091 88.3852V77.2666C109.091 76.8444 109.182 76.5629 109.364 76.2814C109.546 75.9999 109.728 76 109.91 76C110.183 76 110.365 76.1407 110.547 76.2814C110.729 76.5629 110.729 76.8444 110.729 77.2666V77.5481C111.093 76.9851 111.457 76.5629 111.912 76.2814C112.366 75.9999 112.912 75.8592 113.458 75.8592C114.277 75.5777 114.914 75.8592 115.551 76.4222Z" fill="#C4C4C4"/>
<path d="M126.469 76.5627C127.106 77.1256 127.652 77.9701 128.016 78.9553C128.38 79.9405 128.562 81.2071 128.562 82.6145C128.562 83.8812 128.38 85.1478 128.016 86.133C127.652 87.1182 127.106 87.9627 126.469 88.5256C125.832 89.0886 125.013 89.3701 124.194 89.3701C123.376 89.3701 122.557 89.0886 121.92 88.5256C121.283 87.9627 120.737 87.1182 120.373 86.133C120.009 85.1478 119.827 83.8812 119.827 82.6145C119.827 81.2071 120.009 80.0812 120.373 78.9553C120.737 77.9701 121.283 77.1256 121.92 76.5627C122.557 75.9997 123.376 75.7183 124.194 75.7183C125.013 75.7183 125.741 75.9997 126.469 76.5627ZM122.648 78.5331C122.193 78.9553 121.829 79.5183 121.647 80.222C121.374 80.9257 121.283 81.7701 121.283 82.6145C121.283 83.459 121.374 84.3034 121.647 85.0071C121.92 85.7108 122.193 86.2738 122.648 86.696C123.103 87.1182 123.558 87.259 124.104 87.259C124.649 87.259 125.104 87.1182 125.559 86.696C126.014 86.2738 126.378 85.7108 126.56 85.0071C126.833 84.3034 126.924 83.459 126.924 82.6145C126.924 81.7701 126.833 80.9257 126.56 80.222C126.287 79.5183 126.014 78.9553 125.559 78.5331C125.104 78.1109 124.649 77.9701 124.104 77.9701C123.649 77.9701 123.103 78.1109 122.648 78.5331Z" fill="#C4C4C4"/>
<path d="M137.66 76.4221C137.751 76.5629 137.751 76.8443 137.751 76.985C137.751 77.1258 137.751 77.2666 137.66 77.4073L134.203 88.5258C134.021 89.0888 133.839 89.3703 133.475 89.3703C133.293 89.3703 133.111 89.3702 133.02 89.2295C132.929 89.0888 132.838 88.948 132.656 88.5258L129.199 77.4073C129.199 77.2666 129.108 77.1258 129.108 76.985C129.108 76.5628 129.29 76.1407 129.563 75.9999C129.654 75.8592 129.745 75.8591 129.927 75.8591C130.018 75.8591 130.199 75.8592 130.29 75.9999C130.381 76.1407 130.472 76.2814 130.563 76.4221L133.384 85.711L136.114 76.4221C136.205 76.2814 136.296 75.9999 136.387 75.9999C136.478 75.8592 136.66 75.8591 136.75 75.8591C136.932 75.8591 137.023 75.8592 137.114 75.9999C137.478 75.9999 137.569 76.1406 137.66 76.4221Z" fill="#C4C4C4"/>
<path d="M145.303 76.5627C145.94 77.1256 146.486 77.9701 146.941 79.096C147.305 80.2219 147.487 81.3478 147.487 82.6145V88.2441C147.487 88.6664 147.396 88.9479 147.214 89.0886C147.032 89.3701 146.85 89.5108 146.668 89.5108C146.395 89.5108 146.213 89.3701 146.122 89.0886C145.94 88.8072 145.849 88.5256 145.849 88.2441V87.259C145.485 87.9627 145.03 88.5256 144.484 88.9478C143.938 89.3701 143.392 89.5108 142.755 89.5108C141.937 89.5108 141.3 89.2294 140.663 88.6664C140.026 88.1035 139.571 87.259 139.207 86.133C138.843 85.0071 138.661 83.8812 138.661 82.6145C138.661 81.3478 138.843 80.0812 139.207 79.096C139.571 77.9701 140.117 77.2664 140.845 76.5627C141.573 75.9997 142.301 75.7183 143.119 75.7183C143.938 75.7183 144.666 75.9997 145.303 76.5627ZM144.575 86.696C145.03 86.2738 145.394 85.7108 145.576 85.0071C145.849 84.3034 145.94 83.459 145.94 82.6145C145.94 81.7701 145.849 80.9257 145.576 80.222C145.303 79.5183 145.03 78.9553 144.575 78.5331C144.12 78.1109 143.665 77.9701 143.119 77.9701C142.574 77.9701 142.118 78.1109 141.664 78.5331C141.209 78.9553 140.845 79.5183 140.663 80.222C140.39 80.9257 140.299 81.7701 140.299 82.6145C140.299 83.459 140.39 84.3034 140.663 85.0071C140.936 85.7108 141.3 86.2738 141.664 86.696C142.118 87.1182 142.574 87.259 143.119 87.259C143.665 87.259 144.12 87.1182 144.575 86.696Z" fill="#C4C4C4"/>
<path d="M154.22 87.2591C154.311 87.5406 154.402 87.822 154.402 88.1035C154.402 88.5257 154.311 88.8072 154.129 88.9479C153.947 89.2294 153.765 89.2294 153.401 89.2294H153.128C152.582 89.2294 152.127 88.9479 151.672 88.5257C151.217 88.1035 150.853 87.5405 150.671 86.8368C150.398 86.1331 150.307 85.2887 150.307 84.3035V78.1109H149.579C149.397 78.1109 149.215 77.9702 149.033 77.8294C148.852 77.6887 148.851 77.4072 148.851 77.1257C148.851 76.8442 148.942 76.5627 149.033 76.2812C149.215 76.1405 149.397 75.9998 149.579 75.9998H150.307V72.3405C150.307 71.9183 150.398 71.6368 150.489 71.4961C150.671 71.2146 150.853 71.2146 151.035 71.2146C151.308 71.2146 151.49 71.3554 151.581 71.4961C151.763 71.7776 151.763 72.059 151.763 72.3405V75.9998H153.128C153.31 75.9998 153.492 76.1405 153.674 76.2812C153.856 76.422 153.856 76.7035 153.856 77.1257C153.856 77.4072 153.765 77.6887 153.674 77.8294C153.583 77.9702 153.31 78.1109 153.128 78.1109H151.763V84.3035C151.763 85.0072 151.854 85.5702 152.127 85.9924C152.4 86.4146 152.673 86.6961 153.037 86.6961H153.583C153.947 86.9776 154.038 86.9776 154.22 87.2591Z" fill="#C4C4C4"/>
<path d="M158.132 70.7924C158.314 71.0738 158.405 71.4961 158.405 71.9183C158.405 72.3405 158.314 72.7627 158.132 73.0442C157.95 73.3257 157.677 73.4664 157.404 73.4664C157.131 73.4664 156.858 73.3257 156.676 73.0442C156.494 72.7627 156.403 72.3405 156.403 71.9183C156.403 71.4961 156.494 71.0738 156.676 70.7924C156.858 70.5109 157.131 70.3702 157.404 70.3702C157.677 70.2294 157.95 70.3701 158.132 70.7924ZM156.858 76.1405C157.04 75.859 157.222 75.859 157.404 75.859C157.677 75.859 157.859 75.9998 158.041 76.1405C158.223 76.422 158.223 76.7035 158.223 77.1257V88.2442C158.223 88.6664 158.132 88.9479 158.041 89.0887C157.859 89.3701 157.677 89.5109 157.404 89.5109C157.131 89.5109 156.949 89.3701 156.858 89.0887C156.676 88.8072 156.585 88.5257 156.585 88.2442V77.1257C156.585 76.7035 156.676 76.2812 156.858 76.1405Z" fill="#C4C4C4"/>
<path d="M167.594 76.5627C168.231 77.1256 168.777 77.9701 169.141 78.9553C169.505 79.9405 169.687 81.2071 169.687 82.6145C169.687 83.8812 169.505 85.1478 169.141 86.133C168.777 87.1182 168.231 87.9627 167.594 88.5256C166.957 89.0886 166.139 89.3701 165.32 89.3701C164.501 89.3701 163.682 89.0886 163.045 88.5256C162.408 87.9627 161.862 87.1182 161.498 86.133C161.134 85.1478 160.952 83.8812 160.952 82.6145C160.952 81.2071 161.134 80.0812 161.498 78.9553C161.862 77.9701 162.408 77.1256 163.045 76.5627C163.682 75.9997 164.501 75.7183 165.32 75.7183C166.139 75.7183 166.866 75.9997 167.594 76.5627ZM163.864 78.5331C163.409 78.9553 163.045 79.5183 162.863 80.222C162.59 80.9257 162.499 81.7701 162.499 82.6145C162.499 83.459 162.59 84.3034 162.863 85.0071C163.136 85.7108 163.409 86.2738 163.864 86.696C164.319 87.1182 164.774 87.259 165.32 87.259C165.866 87.259 166.321 87.1182 166.776 86.696C167.23 86.2738 167.594 85.7108 167.776 85.0071C168.049 84.3034 168.14 83.459 168.14 82.6145C168.14 81.7701 168.049 80.9257 167.776 80.222C167.503 79.5183 167.23 78.9553 166.776 78.5331C166.321 78.1109 165.866 77.9701 165.32 77.9701C164.774 77.9701 164.228 78.1109 163.864 78.5331Z" fill="#C4C4C4"/>
<path d="M178.604 76.4222C179.149 76.9852 179.695 77.6888 179.968 78.674C180.332 79.6592 180.423 80.7851 180.423 82.1925V88.3852C180.423 88.8074 180.332 89.0888 180.15 89.2296C179.968 89.5111 179.786 89.6518 179.604 89.6518C179.331 89.6518 179.149 89.5111 179.059 89.2296C178.877 88.9481 178.786 88.6666 178.786 88.3852V82.1925C178.786 80.7851 178.513 79.7999 178.058 79.0962C177.603 78.3925 176.966 78.1111 176.238 78.1111C175.783 78.1111 175.419 78.2518 174.964 78.5333C174.6 78.8148 174.327 79.237 174.054 79.6592C173.872 80.0814 173.781 80.6444 173.781 81.3481V88.3852C173.781 88.8074 173.69 89.0888 173.599 89.2296C173.417 89.5111 173.235 89.6518 172.962 89.6518C172.689 89.6518 172.508 89.5111 172.417 89.2296C172.235 88.9481 172.144 88.6666 172.144 88.3852V77.2666C172.144 76.8444 172.235 76.5629 172.417 76.2814C172.599 75.9999 172.78 76 172.962 76C173.235 76 173.417 76.1407 173.599 76.2814C173.781 76.5629 173.781 76.8444 173.781 77.2666V77.5481C174.145 76.9851 174.509 76.5629 174.964 76.2814C175.419 75.9999 175.965 75.8592 176.511 75.8592C177.33 75.5777 177.967 75.8592 178.604 76.4222Z" fill="#C4C4C4"/>
<path d="M196.164 87.2592C196.346 87.5407 196.437 87.8221 196.437 88.2443C196.437 88.6665 196.346 88.948 196.164 89.2295C195.982 89.511 195.8 89.6517 195.527 89.6517H188.885C188.612 89.6517 188.43 89.511 188.339 89.2295C188.157 88.948 188.066 88.6665 188.066 88.2443V71.3554C188.066 70.9332 188.157 70.6518 188.339 70.3703C188.521 70.0888 188.703 69.948 188.885 69.948C189.158 69.948 189.34 70.0888 189.522 70.3703C189.704 70.6518 189.795 70.9332 189.795 71.3554V86.9777H195.618C195.8 86.8369 195.982 86.9777 196.164 87.2592Z" fill="#C4C4C4"/>
<path d="M204.534 76.5627C205.171 77.1256 205.717 77.9701 206.172 79.096C206.536 80.2219 206.718 81.3478 206.718 82.6145V88.2441C206.718 88.6664 206.627 88.9479 206.445 89.0886C206.263 89.3701 206.081 89.5108 205.899 89.5108C205.626 89.5108 205.444 89.3701 205.353 89.0886C205.171 88.8072 205.08 88.5256 205.08 88.2441V87.259C204.716 87.9627 204.261 88.5256 203.715 88.9478C203.169 89.3701 202.624 89.5108 201.987 89.5108C201.168 89.5108 200.531 89.2294 199.894 88.6664C199.257 88.1035 198.802 87.259 198.438 86.133C198.074 85.0071 197.892 83.8812 197.892 82.6145C197.892 81.3478 198.074 80.0812 198.438 79.096C198.802 77.9701 199.348 77.2664 200.076 76.5627C200.804 75.9997 201.532 75.7183 202.351 75.7183C203.079 75.7183 203.806 75.9997 204.534 76.5627ZM203.715 86.696C204.17 86.2738 204.534 85.7108 204.716 85.0071C204.989 84.3034 205.08 83.459 205.08 82.6145C205.08 81.7701 204.989 80.9257 204.716 80.222C204.443 79.5183 204.17 78.9553 203.715 78.5331C203.26 78.1109 202.806 77.9701 202.26 77.9701C201.714 77.9701 201.259 78.1109 200.804 78.5331C200.349 78.9553 199.985 79.5183 199.803 80.222C199.53 80.9257 199.439 81.7701 199.439 82.6145C199.439 83.459 199.53 84.3034 199.803 85.0071C200.076 85.7108 200.44 86.2738 200.804 86.696C201.259 87.1182 201.714 87.259 202.26 87.259C202.806 87.259 203.26 87.1182 203.715 86.696Z" fill="#C4C4C4"/>
<path d="M209.993 69.948C210.266 69.948 210.448 70.0888 210.539 70.2295C210.721 70.511 210.812 70.7925 210.812 71.2147V77.9702C211.176 77.2665 211.631 76.7036 212.177 76.2813C212.723 75.8591 213.269 75.7184 213.906 75.7184C214.724 75.7184 215.361 75.9999 215.998 76.5628C216.635 77.1258 217.09 77.9702 217.454 79.0961C217.818 80.2221 218 81.348 218 82.6147C218 83.8813 217.818 85.148 217.454 86.1332C217.09 87.2591 216.544 87.9629 215.816 88.6666C215.088 89.2295 214.361 89.511 213.542 89.511C212.723 89.511 211.995 89.2295 211.267 88.6666C210.63 88.1036 210.084 87.2591 209.629 86.1332C209.265 85.0073 209.083 83.8813 209.083 82.6147V71.2147C209.083 70.7925 209.174 70.511 209.265 70.2295C209.538 70.0888 209.72 69.948 209.993 69.948ZM213.633 87.2592C214.179 87.2592 214.634 87.1184 215.088 86.6962C215.543 86.274 215.907 85.711 216.089 85.0073C216.362 84.3036 216.453 83.4591 216.453 82.6147C216.453 81.7702 216.362 80.9258 216.089 80.2221C215.816 79.5184 215.452 78.9555 215.088 78.5332C214.634 78.111 214.179 77.9702 213.633 77.9702C213.087 77.9702 212.632 78.111 212.177 78.5332C211.722 78.9555 211.358 79.5184 211.176 80.2221C210.903 80.9258 210.812 81.7702 210.812 82.6147C210.812 83.4591 210.903 84.3036 211.176 85.0073C211.449 85.711 211.722 86.274 212.177 86.6962C212.541 87.1184 213.087 87.2592 213.633 87.2592Z" fill="#C4C4C4"/>
<path d="M19.7437 0.140706C19.0158 0.422188 18.197 0.562911 17.3781 0.562911C17.2871 0.562911 17.1962 0.562911 17.1962 0.562911C14.6486 1.26662 12.192 2.67406 10.0084 4.64443C10.0084 4.64443 10.0083 4.78513 10.0993 4.78513C10.0993 4.78513 10.0993 4.78513 10.1903 4.78513C10.4632 4.50365 10.8272 4.08143 11.2822 4.08143C11.6461 4.08143 12.6469 4.36293 12.6469 7.17774C12.6469 9.99256 11.7371 10.2741 11.2822 10.2741C10.8272 10.2741 10.3723 9.99257 10.1903 9.57035H10.0993C10.0993 9.57035 10.0084 9.85178 10.0084 10.1333C10.0084 11.6814 10.1903 13.2296 10.4633 14.4963C11.4641 13.9333 12.5559 13.6518 13.6478 13.6518C14.0117 13.6518 14.5577 13.9333 14.8306 14.637C14.9216 14.9185 14.9216 15.2 14.9216 15.4815C14.9216 15.763 14.8305 16.0444 14.7395 16.1852C14.6486 16.3259 14.5576 16.6074 14.5576 16.8889C14.5576 17.0296 14.5576 17.1704 14.5576 17.3111C14.6486 17.5926 15.1035 17.874 15.6494 17.874C16.2863 17.874 16.6503 17.7333 16.7413 17.3111C16.7413 17.3111 16.7413 17.311 16.7413 17.1703C16.7413 16.8888 16.6502 16.4667 16.5592 16.1852C16.3773 15.763 16.2863 15.3407 16.3773 14.9185C16.3773 14.7777 16.3773 14.7777 16.4683 14.637C16.6502 13.9333 17.1962 13.6518 17.5602 13.6518C18.652 13.6518 19.7438 13.9333 20.7446 14.4963C21.1086 13.0889 21.1996 11.6814 21.1996 9.99256C21.1996 9.71108 21.1085 9.42956 21.1085 9.42956C21.1085 9.42956 21.1085 9.42956 21.0175 9.42956C20.7446 9.71104 20.3807 10.1333 19.9257 10.1333C19.5618 10.1333 19.1979 9.85182 18.9249 9.28885C18.652 8.72589 18.561 8.02217 18.561 6.89624C18.561 4.08143 19.4708 3.79993 19.9257 3.79993C20.3807 3.79993 20.8356 4.08141 21.0175 4.50363C21.1085 4.50363 21.1085 4.64443 21.1085 4.64443C21.1085 4.64443 21.1996 4.36291 21.1996 4.08143C21.1996 2.67402 21.0176 1.26667 20.7446 0C20.2897 0 20.0167 -3.43626e-05 19.7437 0.140706Z" fill="#C4C4C4"/>
<path d="M4.73122 11.9629C5.73206 11.9629 6.36904 12.3851 6.642 13.2295C6.82397 13.6517 6.73296 14.2147 6.73296 14.6369C6.64197 15.0591 6.45998 15.4813 6.369 15.7628C6.369 15.7628 6.55099 15.9036 6.73296 15.9036C7.73379 15.9036 8.73458 15.6221 9.64443 15.1999C9.28049 13.6518 9.09855 11.9629 9.09855 10.274C9.09855 9.42954 9.46246 8.44438 10.0994 8.44438C10.2813 8.44438 10.5543 8.5851 10.7363 8.86658C10.8273 9.00732 11.1002 9.14808 11.2822 9.14808C11.6461 9.14808 11.7371 8.16283 11.7371 7.31838C11.7371 6.3332 11.6461 5.91101 11.5551 5.77027C11.5551 5.77027 11.5551 5.7703 11.4641 5.62956C11.4641 5.62956 11.3732 5.62951 11.3732 5.48877H11.2822C11.1002 5.48877 10.8273 5.77027 10.7363 5.77027C10.3724 6.19249 10.0084 6.19246 9.64443 5.91097C9.55345 5.77023 9.46253 5.62951 9.37155 5.48877C7.64283 7.3184 6.00503 9.42956 4.64026 11.9629C4.64026 11.9629 4.64024 11.9629 4.73122 11.9629Z" fill="#C4C4C4"/>
<path d="M21.8364 22.237C21.6545 22.237 21.3815 22.5185 21.2905 22.5185C21.1086 22.8 20.9265 22.9407 20.6536 22.9407C20.3806 22.9407 20.1077 22.6592 19.9258 22.237C19.8348 21.9555 19.7437 21.5333 19.7437 21.1111C19.7437 19.4222 19.9258 17.7333 20.2897 16.1851C19.3799 15.6222 18.379 15.4814 17.3781 15.4814C17.1962 15.4814 17.1052 15.6222 17.0142 15.6222C17.1961 16.0444 17.5601 16.8888 17.3781 17.874C17.3781 18.0147 17.3782 18.1555 17.2872 18.2963C17.0142 19.1407 16.3774 19.5629 15.3765 19.5629C14.3757 19.5629 13.7388 19.1407 13.4659 18.2963C13.2839 17.874 13.3748 17.3111 13.3748 16.8889C13.4658 16.4666 13.6478 16.0443 13.7387 15.7629C13.7387 15.7629 13.5567 15.6222 13.3748 15.6222C12.3739 15.6222 11.3732 15.9036 10.4633 16.3259C10.8272 17.874 11.0092 19.5629 11.0092 21.2518C11.0092 22.0962 10.6453 23.0814 10.0084 23.0814C9.82641 23.0814 9.5535 22.9407 9.37153 22.6592C9.28054 22.5184 9.0075 22.3777 8.82553 22.3777C8.46159 22.3777 8.37061 23.3629 8.37061 24.2073C8.37061 25.1925 8.46166 25.6148 8.55264 25.7555C8.64363 25.8962 8.73455 26.037 8.82553 26.037C9.0075 26.037 9.28054 25.7555 9.37153 25.7555C9.46251 25.6148 9.55343 25.6147 9.64442 25.474C9.64442 25.474 9.6444 25.474 9.73538 25.474C9.73538 25.474 9.73547 25.474 9.82645 25.474C10.0994 25.3333 10.3723 25.474 10.6452 25.7555C10.9182 26.1777 11.0092 26.7407 11.0092 27.3036C11.0092 28.9925 10.8272 30.6814 10.4633 32.2295C11.3732 32.7925 12.3739 32.9332 13.3748 32.9332C13.5567 32.9332 13.7387 32.7925 13.7387 32.7925C13.7387 32.7925 13.7387 32.7925 13.7387 32.6517C13.4658 32.2295 13.1019 31.1036 13.4659 30.1184C13.7388 29.274 14.3757 28.8518 15.3765 28.8518C16.3774 28.8518 17.0142 29.274 17.2872 30.1184C17.5601 31.1036 17.1961 32.2295 17.0142 32.6517C17.0142 32.7925 16.9232 32.7925 16.9232 32.7925C16.9232 32.7925 17.1052 32.9332 17.2872 32.9332C18.288 32.9332 19.2888 32.6518 20.1987 32.2295C19.8347 30.6814 19.6528 28.9925 19.6528 27.3036C19.6528 26.4592 20.0167 25.474 20.6536 25.474C20.8355 25.474 21.1086 25.6147 21.2905 25.8962C21.3815 26.037 21.6545 26.1777 21.8364 26.1777C22.2004 26.1777 22.2914 25.1925 22.2914 24.3481C22.2914 23.7851 22.2914 23.2222 22.1094 22.9407L21.9274 22.6592C21.9274 22.237 21.9274 22.237 21.8364 22.237Z" fill="#C4C4C4"/>
<path d="M10.3723 27.0221C10.3723 26.7406 10.2814 26.5999 10.2814 26.4592C10.2814 26.4592 10.2813 26.4592 10.1903 26.4592C9.91733 26.7406 9.55343 27.1629 9.09851 27.1629C8.73457 27.1629 8.37065 26.8813 8.0977 26.3184C7.82474 25.7554 7.73373 25.0518 7.73373 23.9258C7.73373 22.9407 7.82474 22.0962 8.0977 21.5332C8.27967 21.111 8.64361 20.8295 9.00755 20.8295H9.09851C9.55343 20.8295 10.0083 21.111 10.1903 21.5332H10.2814C10.2814 21.5332 10.3723 21.2517 10.3723 20.9702C10.3723 19.4221 10.1904 17.874 9.9174 16.6073C8.91656 17.1703 7.82474 17.4517 6.73292 17.4517C6.36898 17.4517 5.82301 17.1702 5.64104 16.4665C5.55005 16.185 5.55005 15.9036 5.64104 15.4814C5.64104 15.3407 5.73209 15.0591 5.82307 14.9184C5.91406 14.7777 6.005 14.4962 6.005 14.2147C6.005 14.074 6.005 13.9332 6.005 13.7925C5.91401 13.511 5.45913 13.2295 4.91322 13.2295C4.27633 13.2295 3.91232 13.3703 3.82134 13.7925C3.82134 13.7925 3.82134 13.7925 3.82134 13.9332C3.82134 14.2147 3.91239 14.6369 4.00337 14.9184C4.18534 15.3406 4.27628 15.7629 4.1853 16.1851C4.1853 16.3258 4.18532 16.3258 4.09434 16.4665C3.91237 17.1702 3.3665 17.4517 3.00256 17.4517C2.82059 17.4517 2.54757 17.4517 2.3656 17.4517C2.00166 18.7184 1.63774 19.9851 1.36479 21.2517C1.72873 21.674 2.00164 22.3777 2.00164 24.0665C2.00164 26.8814 1.09179 27.1629 0.636861 27.1629C0.545876 27.1629 0.545921 27.1629 0.454936 27.1629C0.363951 28.2888 0.27301 29.4147 0.27301 30.6814C0.27301 30.9629 0.27301 31.1036 0.27301 31.3851C1.09188 30.9629 2.00172 30.8221 3.00256 30.8221C3.3665 30.8221 3.91237 31.1036 4.09434 31.8073C4.27631 32.2295 4.18536 32.7925 3.91241 33.2147C3.73044 33.4962 3.63939 34.0591 3.73037 34.3406C3.82136 34.6221 4.27635 34.9036 4.82226 34.9036C5.45915 34.9036 5.82305 34.7628 5.91403 34.3406C6.00502 34.0591 5.82309 33.4962 5.73211 33.2147C5.45915 32.7925 5.45909 32.2295 5.55007 31.8073C5.73204 31.1036 6.27802 30.8221 6.64196 30.8221C7.73378 30.8221 8.8256 31.1036 9.82643 31.6666C10.2814 30.1184 10.3723 28.5702 10.3723 27.0221Z" fill="#C4C4C4"/>
<path d="M3.54845 15.6222L3.09352 14.9185V14.4963C2.82057 15.0593 2.54757 15.763 2.3656 16.4667L2.91149 16.6074L3.54845 15.6222Z" fill="#C4C4C4"/>
<path d="M31.3898 5.62974L31.6628 5.20745C31.3899 4.92597 31.1169 4.64452 30.753 4.36304V4.64454L31.3898 5.62974Z" fill="#124983"/>
<path d="M31.2079 37.4369C31.2079 37.7184 31.2988 37.8592 31.2988 37.9999C31.2988 37.9999 31.2988 37.9999 31.3898 37.9999C31.6628 37.7185 32.0267 37.2962 32.4816 37.2962C32.8455 37.2962 33.8464 37.5777 33.8464 40.3925C33.8464 43.2073 32.9365 43.4888 32.4816 43.4888C32.0267 43.4888 31.5718 43.2073 31.3898 42.7851H31.2988C31.2988 42.7851 31.2079 43.0666 31.2079 43.3481C31.2079 44.8962 31.3899 46.4443 31.6628 47.711C32.6636 47.148 33.7555 46.8666 34.8473 46.8666C35.2112 46.8666 35.7571 47.1481 36.03 47.8518C36.121 48.1333 36.121 48.4147 36.121 48.6962C36.121 48.9777 36.03 49.2592 35.9391 49.3999C35.8481 49.5407 35.7571 49.8221 35.7571 50.1036C35.7571 50.2444 35.7571 50.3851 35.7571 50.5258C35.8481 50.8073 36.303 51.0888 36.8489 51.0888C36.9399 51.0888 37.0308 51.0888 37.0308 51.0888C37.2128 50.5259 37.4858 49.9629 37.6678 49.3999C37.4858 48.9777 37.4858 48.5555 37.4858 48.274C37.4858 48.1333 37.4858 48.1332 37.5768 47.9925C37.7588 47.4295 38.1227 47.1481 38.4867 47.1481C39.0326 45.5999 39.4875 43.7703 39.8515 41.9407C39.7605 41.5184 39.7604 41.0962 39.7604 40.5333C39.7604 38.7036 40.1243 37.8591 40.5793 37.5777C40.7612 36.311 40.8522 34.9036 40.9432 33.4962C40.2154 33.7777 39.4875 33.9184 38.7596 33.9184C38.3956 33.9184 37.8498 33.6369 37.5768 32.9332C37.3949 32.511 37.4858 31.948 37.7588 31.5258C37.9407 31.2443 38.0317 30.6814 37.9407 30.3999C37.8497 30.1184 37.3948 29.8369 36.8489 29.8369C36.212 29.8369 35.8481 29.9777 35.7571 30.3999C35.6662 30.6814 35.8481 31.2443 35.9391 31.5258C36.212 31.948 36.212 32.511 36.121 32.9332C35.939 33.6369 35.3932 33.9184 35.0292 33.9184C33.9374 33.9184 32.8456 33.637 31.8447 33.074C31.3898 34.4814 31.2079 35.8888 31.2079 37.4369Z" fill="#C4C4C4"/>
<path d="M19.6527 42.3632C19.8347 42.3632 20.1076 42.0817 20.1986 42.0817C20.3806 41.8002 20.5626 41.6595 20.8356 41.6595C21.4724 41.6595 21.8364 42.6446 21.8364 43.4891C21.8364 45.178 21.6544 46.8669 21.2905 48.415C22.2003 48.978 23.2011 49.1187 24.202 49.1187C24.3839 49.1187 24.4749 48.978 24.5659 48.978C24.3839 48.5558 24.02 47.7113 24.202 46.7261C24.202 46.5854 24.2019 46.4446 24.2929 46.3039C24.5659 45.4595 25.2029 45.0373 26.2037 45.0373C27.2045 45.0373 27.8414 45.4595 28.1144 46.3039C28.2963 46.7261 28.2053 47.2891 28.2053 47.7113C28.1143 48.1335 27.9323 48.5557 27.8414 48.8372C27.8414 48.8372 28.0233 48.978 28.2053 48.978C29.2062 48.978 30.2069 48.6965 31.1168 48.2743C30.7528 46.7262 30.5709 45.0373 30.5709 43.3484C30.5709 42.5039 30.9348 41.5188 31.5717 41.5188C31.7537 41.5188 32.0267 41.6595 32.2087 41.941C32.2997 42.0817 32.5726 42.2225 32.7546 42.2225C33.1185 42.2225 33.2095 41.2372 33.2095 40.3928C33.2095 39.4076 33.1185 38.9854 33.0276 38.8447C33.0276 38.8447 33.0275 38.8447 32.9365 38.7039C32.9365 38.7039 32.8455 38.7039 32.8455 38.5632H32.7546C32.5726 38.5632 32.2997 38.8447 32.2087 38.8447C31.8447 39.2669 31.4807 39.2668 31.1168 38.9854C31.0258 38.8446 30.9349 38.7039 30.8439 38.5632C30.7529 38.2817 30.6619 37.8595 30.6619 37.4372C30.6619 35.7484 30.8439 34.0595 31.2079 32.5113C30.298 31.9484 29.2971 31.8076 28.2963 31.8076C28.1143 31.8076 27.9323 31.9483 27.9323 31.9483C27.9323 31.9483 27.9323 31.9484 27.9323 32.0891C28.2053 32.5113 28.5693 33.6372 28.2053 34.6224C27.9324 35.4669 27.2955 35.8891 26.2947 35.8891C25.2938 35.8891 24.6569 35.4669 24.384 34.6224C24.111 33.6372 24.4749 32.5113 24.6569 32.0891C24.6569 31.9484 24.7478 31.9483 24.7478 31.9483C24.7478 31.9483 24.566 31.8076 24.384 31.8076C23.3832 31.8076 22.3823 32.0891 21.4724 32.5113C21.8363 34.0595 22.0183 35.7484 22.0183 37.4372C22.0183 38.2817 21.6544 39.2669 21.0175 39.2669C20.8355 39.2669 20.5626 39.1261 20.3806 38.8447C20.2896 38.7039 20.0167 38.5632 19.8347 38.5632C19.4708 38.5632 19.3798 39.5483 19.3798 40.3928C19.1069 41.378 19.1978 42.3632 19.6527 42.3632Z" fill="#C4C4C4"/>
<path d="M31.6628 59.9557C31.6628 59.6742 31.5718 59.5334 31.5718 59.3927C31.5718 59.3927 31.5718 59.3927 31.4808 59.3927C31.2078 59.6741 30.8439 60.0964 30.389 60.0964C30.0251 60.0964 29.6612 59.8149 29.3882 59.252C29.1153 58.689 29.0243 57.9853 29.0243 56.8593C29.0243 55.8742 29.1153 55.0297 29.3882 54.4667C29.5702 54.0445 29.9341 53.763 30.2981 53.763H30.389C30.8439 53.763 31.2988 54.0445 31.4808 54.4667H31.5718C31.5718 54.4667 31.6628 54.1853 31.6628 53.9038C31.6628 52.3557 31.4809 50.8075 31.2079 49.5408C30.2071 50.1038 29.1153 50.3853 28.0234 50.3853C27.6595 50.3853 27.1135 50.1038 26.9316 49.4001C26.8406 49.1186 26.8406 48.8371 26.9316 48.4149C26.9316 48.2742 27.0226 47.9927 27.1136 47.852C27.2046 47.7113 27.2955 47.4298 27.2955 47.1483C27.2955 47.0075 27.2955 46.8667 27.2955 46.726C27.2045 46.4445 26.7496 46.1631 26.2037 46.1631C25.5668 46.1631 25.2028 46.3038 25.1119 46.726C25.1119 46.726 25.1119 46.726 25.1119 46.8668C25.1119 47.1483 25.2029 47.5705 25.2939 47.852C25.4759 48.2742 25.5668 48.6964 25.4758 49.1186C25.4758 49.2593 25.4758 49.2594 25.3849 49.4001C25.2029 50.1038 24.6569 50.3853 24.293 50.3853C23.2011 50.3853 22.1093 50.1038 21.1085 49.5408C20.8355 50.9482 20.6536 52.3556 20.6536 54.0445C20.6536 54.326 20.7446 54.6075 20.7446 54.6075C20.7446 54.6075 20.7446 54.6075 20.8356 54.6075C21.1086 54.326 21.4725 53.9038 21.9274 53.9038C22.2913 53.9038 23.2922 54.1853 23.2922 57.0001C23.2922 59.815 22.3823 60.0964 21.9274 60.0964C21.4725 60.0964 21.0176 59.8149 20.8356 59.3927C20.7446 59.3927 20.7446 59.252 20.7446 59.252C20.7446 59.252 20.6536 59.5335 20.6536 59.815C20.6536 61.3631 20.8355 62.9112 21.1085 64.3186C22.1093 63.7556 23.2011 63.4742 24.293 63.4742C24.6569 63.4742 25.2029 63.7557 25.3849 64.4594C25.5668 64.8816 25.4758 65.4446 25.2028 65.8668C25.0208 66.1483 24.9299 66.7112 25.0209 66.9927C25.1119 67.2742 25.5668 67.5557 26.1127 67.5557C26.7496 67.5557 27.1136 67.4149 27.2046 66.9927C27.2955 66.7112 27.1135 66.1483 27.0225 65.8668C26.7496 65.4446 26.7496 64.8816 26.8406 64.4594C27.0226 63.7557 27.5684 63.4742 27.9324 63.4742C29.0242 63.4742 30.116 63.7556 31.1168 64.3186C31.4808 63.0519 31.6628 61.5038 31.6628 59.9557Z" fill="#C4C4C4"/>
<path d="M35.4842 54.6072C35.8481 53.9035 36.121 53.1997 36.485 52.3553C35.6661 52.2145 35.1202 51.9331 34.9383 51.0887C34.7563 50.6664 34.8473 50.1035 34.8473 49.6813C34.9383 49.259 35.1202 48.8368 35.2112 48.5553C35.2112 48.5553 35.0293 48.4146 34.8473 48.4146C33.8465 48.4146 32.8456 48.696 31.9357 49.1183C32.2997 50.6664 32.4816 52.3553 32.4816 54.0442C32.4816 54.8886 32.1177 55.8738 31.4808 55.8738C31.2988 55.8738 31.0259 55.7331 30.844 55.4516C30.753 55.3108 30.48 55.1701 30.2981 55.1701C29.9341 55.1701 29.8431 56.1553 29.8431 56.9998C29.8431 57.985 29.9341 58.4072 30.0251 58.5479C30.1161 58.6886 30.2071 58.8294 30.2981 58.8294C30.48 58.8294 30.753 58.5479 30.844 58.5479C30.9349 58.4072 31.0259 58.4071 31.1168 58.2664C31.1168 58.2664 31.1169 58.2664 31.2079 58.2664C31.2079 58.2664 31.2079 58.2664 31.2989 58.2664C31.5718 58.1257 31.8448 58.2664 32.1178 58.5479C32.3907 58.9701 32.4816 59.5331 32.4816 60.096C32.4816 60.659 32.4816 61.0812 32.3907 61.5034C33.3915 59.2516 34.3923 56.9998 35.4842 54.6072Z" fill="#C4C4C4"/>
<path d="M0 32.3705C0 32.9334 -2.22145e-05 33.4964 0.0909628 34.2001C0.181948 35.1852 0.272977 36.0297 0.363962 37.0149C0.818887 41.0964 1.63773 44.6149 2.72955 47.5704C2.63856 47.289 2.63856 46.8667 2.72955 46.5852C2.72955 46.4445 2.72953 46.3038 2.82051 46.163C3.09347 45.3186 3.73034 44.8963 4.73117 44.8963C5.73201 44.8963 6.36899 45.3186 6.64195 46.163C6.82392 46.5852 6.73291 47.1482 6.73291 47.5704C6.64193 47.9927 6.45993 48.4149 6.36895 48.6963C6.36895 48.6963 6.55094 48.837 6.73291 48.837C7.73375 48.837 8.73454 48.5556 9.64439 48.1333C9.28045 46.5852 9.0985 44.8963 9.0985 43.2074C9.0985 42.363 9.46242 41.3778 10.0993 41.3778C10.2813 41.3778 10.5543 41.5185 10.7363 41.8C10.8273 41.9408 11.1002 42.0815 11.2822 42.0815C11.6461 42.0815 11.7371 41.0963 11.7371 40.2519C11.7371 39.2667 11.646 38.8445 11.555 38.7038C11.555 38.7038 11.5551 38.7037 11.4641 38.563C11.4641 38.563 11.3731 38.563 11.3731 38.4223H11.2822C11.1002 38.4223 10.8273 38.7038 10.7363 38.7038C10.3723 39.126 10.0083 39.126 9.64439 38.8445C9.5534 38.7038 9.46248 38.563 9.3715 38.4223C9.28051 38.1408 9.18946 37.7186 9.18946 37.2964C9.18946 35.6075 9.37141 33.9186 9.73535 32.3705C8.8255 31.8075 7.82471 31.6667 6.82387 31.6667C6.6419 31.6667 6.45991 31.8075 6.45991 31.8075C6.45991 31.8075 6.45991 31.8074 6.45991 31.9482C6.73287 32.3704 7.09685 33.4964 6.73291 34.4816C6.45996 35.326 5.82308 35.7482 4.82225 35.7482C3.82141 35.7482 3.18443 35.326 2.91148 34.4816C2.63852 33.4964 3.0025 32.3704 3.18447 31.9482C3.18447 31.8074 3.27544 31.8075 3.27544 31.8075C3.27544 31.8075 3.09345 31.6667 2.91148 31.6667C1.72867 31.8075 0.90985 31.9482 0 32.3705Z" fill="#C4C4C4"/>
<path d="M9.73535 37.4369C9.73535 37.7183 9.82643 37.8591 9.82643 37.9999C9.82643 37.9999 9.8264 37.9999 9.91739 37.9999C10.1903 37.7184 10.5542 37.2962 11.0092 37.2962C11.3731 37.2962 12.3739 37.5776 12.3739 40.3924C12.3739 43.2072 11.4641 43.4887 11.0092 43.4887C10.5542 43.4887 10.0994 43.2072 9.91739 42.785H9.82643C9.82643 42.785 9.73535 43.0665 9.73535 43.348C9.73535 44.8961 9.91732 46.4443 10.1903 47.7109C11.1911 47.148 12.2829 46.8665 13.3748 46.8665C13.7387 46.8665 14.2846 47.148 14.5576 47.8517C14.6486 48.1332 14.6486 48.4146 14.6486 48.6961C14.6486 48.9776 14.5576 49.2591 14.4666 49.3998C14.3757 49.5406 14.2846 49.8221 14.2846 50.1035C14.2846 50.2443 14.2846 50.385 14.2846 50.5257C14.3756 50.8072 14.8306 51.0887 15.3765 51.0887C16.0134 51.0887 16.3773 50.948 16.4683 50.5257C16.4683 50.5257 16.4683 50.5258 16.4683 50.385C16.4683 50.1035 16.3773 49.6813 16.2863 49.3998C16.1044 48.9776 16.0133 48.5554 16.1043 48.1331C16.1043 47.9924 16.1044 47.9925 16.1954 47.8517C16.3773 47.148 16.9232 46.8665 17.2871 46.8665C18.379 46.8665 19.4708 47.148 20.4716 47.7109C20.8356 46.3035 20.9265 44.8961 20.9265 43.2072C20.9265 42.9257 20.8356 42.6443 20.8356 42.6443C20.8356 42.6443 20.8356 42.6443 20.7446 42.6443C20.4717 42.9258 20.1077 43.348 19.6527 43.348C19.2888 43.348 18.9249 43.0665 18.6519 42.5035C18.379 41.9405 18.288 41.2369 18.288 40.111C18.288 37.2962 19.1978 37.0147 19.6527 37.0147C20.1077 37.0147 20.5627 37.2961 20.7446 37.7184C20.8356 37.7184 20.8356 37.8591 20.8356 37.8591C20.8356 37.8591 20.9265 37.5776 20.9265 37.2962C20.9265 35.748 20.7446 34.1998 20.4716 32.7924C19.4708 33.3554 18.379 33.6368 17.2871 33.6368C16.9232 33.6368 16.3773 33.3554 16.1043 32.6516C15.9223 32.2294 16.0134 31.6665 16.2863 31.2442C16.4683 30.9628 16.5592 30.3998 16.4683 30.1183C16.3773 29.8368 15.9224 29.5554 15.3765 29.5554C14.7396 29.5554 14.3756 29.6961 14.2846 30.1183C14.1936 30.3998 14.3757 30.9628 14.4666 31.2442C14.7396 31.6665 14.7395 32.2294 14.6486 32.6516C14.4666 33.3554 13.9207 33.6368 13.5568 33.6368C12.465 33.6368 11.3731 33.3554 10.3723 32.7924C9.91739 34.4813 9.73535 35.8887 9.73535 37.4369Z" fill="#C4C4C4"/>
<path d="M21.7454 55.311C21.5635 55.311 21.2905 55.5925 21.1995 55.5925C21.0176 55.8739 20.8355 56.0147 20.5626 56.0147C20.2896 56.0147 20.0167 55.7332 19.8348 55.311C19.7438 55.0295 19.6527 54.6073 19.6527 54.1851C19.6527 52.4962 19.8347 50.8073 20.1986 49.2591C19.2888 48.6962 18.288 48.5554 17.2871 48.5554C17.1052 48.5554 17.0142 48.6961 16.9232 48.6961C17.1051 49.1183 17.4691 49.9628 17.2871 50.9479C17.2871 51.0887 17.2872 51.2295 17.1962 51.3702C16.9232 52.2147 16.2863 52.6369 15.2855 52.6369C14.2847 52.6369 13.6477 52.2147 13.3747 51.3702C13.1928 50.948 13.2838 50.385 13.2838 49.9628C13.3748 49.5406 13.5568 49.1183 13.6477 48.8368C13.6477 48.8368 13.4657 48.6961 13.2838 48.6961C12.2829 48.6961 11.2822 48.9776 10.3723 49.3998C10.7362 50.948 10.9182 52.6369 10.9182 54.3258C10.9182 55.1702 10.5543 56.1554 9.91738 56.1554C9.73541 56.1554 9.46238 56.0146 9.28041 55.7332C9.18943 55.5924 8.9165 55.4517 8.73453 55.4517C8.37059 55.4517 8.2796 56.4368 8.2796 57.2813C8.2796 58.2665 8.37065 58.6887 8.46164 58.8295C8.55262 58.9702 8.64354 59.111 8.73453 59.111C8.9165 59.111 9.18943 58.8295 9.28041 58.8295C9.3714 58.6887 9.46243 58.6887 9.55341 58.548C9.55341 58.548 9.55339 58.548 9.64438 58.548C9.64438 58.548 9.64435 58.548 9.73534 58.548C10.0083 58.4072 10.2813 58.548 10.5542 58.8295C10.8272 59.2517 10.9182 59.8146 10.9182 60.3776C10.9182 62.0665 10.7362 63.7554 10.3723 65.3035C11.2822 65.8665 12.2829 66.0072 13.2838 66.0072C13.4657 66.0072 13.6477 65.8665 13.6477 65.8665C13.6477 65.8665 13.6477 65.8665 13.6477 65.7257C13.3748 65.3035 13.0108 64.1776 13.3747 63.1924C13.6477 62.348 14.2847 61.9258 15.2855 61.9258C16.2863 61.9258 16.9232 62.348 17.1962 63.1924C17.4691 64.1776 17.1051 65.3035 16.9232 65.7257C16.9232 65.8665 16.8322 65.8665 16.8322 65.8665C16.8322 65.8665 17.0142 66.0072 17.1962 66.0072C18.197 66.0072 19.1978 65.7257 20.1077 65.3035C19.7437 63.7554 19.5618 62.0665 19.5618 60.3776C19.5618 59.5331 19.9257 58.548 20.5626 58.548C20.7445 58.548 21.0176 58.6887 21.1995 58.9702C21.2905 59.1109 21.5635 59.2517 21.7454 59.2517C22.1094 59.2517 22.2003 58.2665 22.2003 57.4221C22.2003 56.8591 22.2003 56.2961 22.0183 56.0147L21.8364 55.7332C21.8364 55.3109 21.8364 55.311 21.7454 55.311Z" fill="#C4C4C4"/>
<path d="M10.1902 60.0963C10.1902 59.8148 10.0993 59.6741 10.0993 59.5334C10.0993 59.5334 10.0993 59.5334 10.0083 59.5334C9.73534 59.8149 9.37144 60.2371 8.91652 60.2371C8.55258 60.2371 8.18855 59.9555 7.91559 59.3926C7.64264 58.8296 7.55174 58.126 7.55174 57.0001C7.55174 56.0149 7.64264 55.1704 7.91559 54.6074C8.09756 54.1852 8.4615 53.9037 8.82544 53.9037H8.91652C9.37144 53.9037 9.82632 54.1852 10.0083 54.6074H10.0993C10.0993 54.6074 10.1902 54.3259 10.1902 54.0445C10.1902 52.4963 10.0082 50.9482 9.73529 49.6815C8.73446 50.2445 7.64264 50.5259 6.55082 50.5259C6.18688 50.5259 5.64101 50.2444 5.45904 49.5407C5.36806 49.2592 5.36806 48.9778 5.45904 48.5556C5.45904 48.4149 5.54998 48.1334 5.64097 47.9926C5.73195 47.8519 5.823 47.5704 5.823 47.2889C5.823 47.1482 5.823 47.0074 5.823 46.8667C5.73202 46.5852 5.27703 46.3037 4.73112 46.3037C4.09422 46.3037 3.73033 46.4445 3.63934 46.8667C3.63934 46.8667 3.63934 46.8667 3.63934 47.0074C3.63934 47.2889 3.73028 47.7111 3.82127 47.9926C4.00324 48.4148 4.09429 48.8371 4.00331 49.2593C4.00331 49.4001 4.00333 49.4 3.91234 49.5407C3.82136 49.6815 3.73033 49.8223 3.63934 49.963C4.27624 51.5112 4.91311 53.0592 5.55001 54.4667C7.09675 57.8444 8.64352 60.9407 9.55337 64.3185C9.64435 64.3185 9.64431 64.3186 9.73529 64.4593C10.0082 63.1926 10.1902 61.7852 10.1902 60.0963Z" fill="#C4C4C4"/>
<path d="M19.6528 9.00752C19.8348 9.00752 20.1077 8.72602 20.1987 8.72602C20.3806 8.44454 20.5627 8.30382 20.8356 8.30382C21.4725 8.30382 21.8364 9.28898 21.8364 10.1334C21.8364 11.8223 21.6545 13.5112 21.2906 15.0594C22.2004 15.6223 23.2012 15.7631 24.202 15.7631C24.384 15.7631 24.475 15.6224 24.566 15.6224C24.384 15.2001 24.0201 14.3557 24.202 13.3705C24.202 13.2298 24.202 13.089 24.293 12.9482C24.566 12.1038 25.2029 11.6816 26.2038 11.6816C27.2046 11.6816 27.8415 12.1038 28.1144 12.9482C28.2964 13.3705 28.2054 13.9334 28.2054 14.3557C28.1144 14.7779 27.9324 15.2002 27.8414 15.4816C27.8414 15.4816 28.0234 15.6224 28.2054 15.6224C29.2062 15.6224 30.207 15.3409 31.1169 14.9186C30.7529 13.3705 30.571 11.6816 30.571 9.99272C30.571 9.14828 30.9349 8.16311 31.5718 8.16311C31.7538 8.16311 32.0268 8.30383 32.2088 8.58531C32.2997 8.72606 32.5727 8.86681 32.7546 8.86681C33.1186 8.86681 33.2096 7.88164 33.2096 7.0372C33.2096 6.75572 33.2096 6.47424 33.2096 6.3335C32.9366 6.05202 32.6636 5.77048 32.3907 5.489C32.2997 5.489 32.2088 5.62979 32.2088 5.62979C31.8448 6.05202 31.4808 6.05198 31.1169 5.7705C31.0259 5.62976 30.935 5.48904 30.844 5.34829C30.753 5.06681 30.6619 4.64461 30.6619 4.22239C30.6619 4.08164 30.6619 4.08163 30.6619 3.94089C29.7521 3.23718 28.8423 2.53344 27.8414 1.97048C27.4775 2.25196 27.0226 2.53348 26.3857 2.53348C25.3849 2.53348 24.748 2.11122 24.475 1.26678C24.384 0.985296 24.3841 0.844556 24.3841 0.563074C23.4742 0.281593 22.6553 0.140869 21.7455 0.140869C22.0184 1.40754 22.1094 2.81498 22.1094 4.22239C22.1094 5.06683 21.7454 6.052 21.1085 6.052C20.9266 6.052 20.6536 5.91127 20.4717 5.62979C20.3807 5.48905 20.1078 5.34829 19.9258 5.34829C19.5618 5.34829 19.4709 6.33346 19.4709 7.17791C19.1069 8.02235 19.1979 9.00752 19.6528 9.00752Z" fill="#C4C4C4"/>
<path d="M32.4816 10.4147C32.0267 10.4147 31.5718 10.1332 31.3898 9.71096H31.2988C31.2988 9.71096 31.2079 9.99248 31.2079 10.274C31.2079 11.8221 31.3899 13.3702 31.6628 14.6369C32.6636 14.0739 33.7555 13.7925 34.8473 13.7925C35.2112 13.7925 35.7571 14.074 36.03 14.7777C36.121 15.0592 36.121 15.3406 36.121 15.6221C36.121 15.9036 36.03 16.1851 35.9391 16.3258C35.8481 16.4665 35.7571 16.748 35.7571 17.0295C35.7571 17.1702 35.7571 17.311 35.7571 17.4517C35.8481 17.7332 36.303 18.0147 36.8489 18.0147C37.4858 18.0147 37.8497 17.8739 37.9407 17.4517C37.9407 17.4517 37.9407 17.4517 37.9407 17.311C37.9407 17.0295 37.8497 16.6073 37.7588 16.3258C37.5768 15.9036 37.4858 15.4813 37.5768 15.0591C37.5768 14.9184 37.5768 14.9184 37.6678 14.7777C37.7588 14.6369 37.7587 14.4961 37.8497 14.3554C36.7579 11.8221 35.3931 9.57022 33.8464 7.59985C33.7554 10.1332 32.8455 10.4147 32.4816 10.4147Z" fill="#C4C4C4"/>
<path d="M38.7596 17.0297C38.7596 17.3112 38.8506 17.5927 38.7596 17.8741C38.7596 18.0149 38.7596 18.1557 38.6686 18.2964C38.3957 19.1409 37.7588 19.563 36.758 19.563C35.7572 19.563 35.1203 19.1409 34.8473 18.2964C34.6654 17.8742 34.7562 17.3112 34.7562 16.889C34.8472 16.4668 35.0292 16.0445 35.1202 15.763C35.1202 15.763 34.9382 15.6223 34.7562 15.6223C33.7554 15.6223 32.7546 15.9038 31.8448 16.326C32.2087 17.8742 32.3907 19.5631 32.3907 21.2519C32.3907 22.0964 32.0267 23.0816 31.3898 23.0816C31.2079 23.0816 30.935 22.9408 30.753 22.6594C30.662 22.5186 30.389 22.3779 30.207 22.3779C29.8431 22.3779 29.7521 23.363 29.7521 24.2075C29.7521 25.1927 29.8431 25.6149 29.9341 25.7557C30.0251 25.8964 30.116 26.0372 30.207 26.0372C30.389 26.0372 30.662 25.7557 30.753 25.7557C30.844 25.6149 30.9349 25.6149 31.0259 25.4742C31.0259 25.4742 31.0259 25.4742 31.1168 25.4742C31.1168 25.4742 31.1169 25.4742 31.2079 25.4742C31.4809 25.3334 31.7537 25.4742 32.0267 25.7557C32.2997 26.1779 32.3907 26.7408 32.3907 27.3038C32.3907 28.9927 32.2087 30.6816 31.8448 32.2297C32.7546 32.7927 33.7554 32.9334 34.7562 32.9334C34.9382 32.9334 35.1202 32.7927 35.1202 32.7927C35.1202 32.7927 35.1202 32.7927 35.1202 32.6519C34.8473 32.2297 34.4834 31.1038 34.8473 30.1186C35.1203 29.2741 35.7572 28.852 36.758 28.852C37.7588 28.852 38.3957 29.2741 38.6686 30.1186C38.9416 31.1038 38.5776 32.2297 38.3956 32.6519C38.3956 32.7927 38.3047 32.7927 38.3047 32.7927C38.3047 32.7927 38.4867 32.9334 38.6686 32.9334C39.3965 32.9334 40.2154 32.7927 40.9433 32.5112C40.9433 31.9482 40.9433 31.3853 40.9433 30.8223C40.9433 25.6149 40.1244 20.9705 38.7596 17.0297Z" fill="#C4C4C4"/>
<path d="M31.6628 26.8814C31.6628 26.6 31.5718 26.4592 31.5718 26.3184C31.5718 26.3184 31.5718 26.3184 31.4808 26.3184C31.2078 26.5999 30.8439 27.0221 30.389 27.0221C30.0251 27.0221 29.6612 26.7407 29.3882 26.1777C29.1153 25.6148 29.0243 24.9111 29.0243 23.7851C29.0243 22.7999 29.1153 21.9555 29.3882 21.3925C29.5702 20.9703 29.9341 20.6888 30.2981 20.6888H30.389C30.8439 20.6888 31.2988 20.9703 31.4808 21.3925H31.5718C31.5718 21.3925 31.6628 21.1111 31.6628 20.8296C31.6628 19.2815 31.4809 17.7333 31.2079 16.4666C30.2071 17.0296 29.1153 17.3111 28.0234 17.3111C27.6595 17.3111 27.1135 17.0296 26.9316 16.3259C26.8406 16.0444 26.8406 15.7629 26.9316 15.3407C26.9316 15.1999 27.0226 14.9185 27.1136 14.7778C27.2046 14.637 27.2955 14.3556 27.2955 14.0741C27.2955 13.9333 27.2955 13.7925 27.2955 13.6518C27.2045 13.3703 26.7496 13.0889 26.2037 13.0889C25.5668 13.0889 25.2028 13.2296 25.1119 13.6518C25.1119 13.6518 25.1119 13.6518 25.1119 13.7926C25.1119 14.0741 25.2029 14.4963 25.2939 14.7778C25.4759 15.2 25.5668 15.6222 25.4758 16.0444C25.4758 16.1851 25.4758 16.1851 25.3849 16.3259C25.2029 17.0296 24.6569 17.3111 24.293 17.3111C23.2011 17.3111 22.1093 17.0296 21.1085 16.4666C20.8355 17.874 20.6536 19.2814 20.6536 20.9703C20.6536 21.2518 20.7446 21.5333 20.7446 21.5333C20.7446 21.5333 20.7446 21.5333 20.8356 21.5333C21.1086 21.2518 21.4725 20.8296 21.9274 20.8296C22.2913 20.8296 23.2922 21.1111 23.2922 23.9259C23.2922 26.7407 22.3823 27.0221 21.9274 27.0221C21.4725 27.0221 21.0176 26.7407 20.8356 26.3184C20.7446 26.3184 20.7446 26.1777 20.7446 26.1777C20.7446 26.1777 20.6536 26.4593 20.6536 26.7407C20.6536 28.2889 20.8355 29.837 21.1085 31.2444C22.1093 30.6814 23.2011 30.4 24.293 30.4C24.6569 30.4 25.2029 30.6815 25.3849 31.3852C25.5668 31.8074 25.4758 32.3703 25.2028 32.7926C25.0208 33.0741 24.9299 33.637 25.0209 33.9185C25.1119 34.2 25.5668 34.4815 26.1127 34.4815C26.7496 34.4815 27.1136 34.3407 27.2046 33.9185C27.2955 33.637 27.1135 33.0741 27.0225 32.7926C26.7496 32.3703 26.7496 31.8074 26.8406 31.3852C27.0226 30.6815 27.5684 30.4 27.9324 30.4C29.0242 30.4 30.116 30.6814 31.1168 31.2444C31.4808 29.9777 31.6628 28.4296 31.6628 26.8814Z" fill="#C4C4C4"/>
<path d="M19.7437 75.4371C19.9257 75.4371 20.1987 75.1556 20.2897 75.1556C20.4717 74.8742 20.6536 74.7334 20.9266 74.7334C21.5635 74.7334 21.9274 75.7186 21.9274 76.5631C21.9274 78.2519 21.7454 79.9408 21.3815 81.489C22.2914 82.0519 23.2921 82.1927 24.293 82.1927C24.475 82.1927 24.566 82.052 24.6569 82.052C24.475 81.6298 24.111 80.7853 24.293 79.8001C24.293 79.6593 24.2931 79.5186 24.3841 79.3779C24.657 78.5334 25.2939 78.1113 26.2947 78.1113C27.2956 78.1113 27.9324 78.5334 28.2054 79.3779C28.3874 79.8001 28.2963 80.3631 28.2963 80.7853C28.2054 81.2075 28.0234 81.6297 27.9324 81.9112C27.9324 81.9112 28.1144 82.052 28.2963 82.052C29.1152 82.052 29.8431 81.9113 30.6619 81.6298V72.2001C30.6619 71.7779 30.6619 71.3557 30.6619 70.7927C30.6619 70.652 30.6619 70.5112 30.6619 70.5112C30.6619 68.8223 30.844 67.1334 31.2079 65.5853C30.2981 65.0223 29.2972 64.8816 28.2963 64.8816C28.1144 64.8816 27.9324 65.0223 27.9324 65.0223C27.9324 65.0223 27.9324 65.0223 27.9324 65.1631C28.2053 65.5853 28.5693 66.7112 28.2054 67.6964C27.9324 68.5409 27.2956 68.9631 26.2947 68.9631C25.2939 68.9631 24.657 68.5409 24.3841 67.6964C24.1111 66.7112 24.475 65.5853 24.6569 65.1631C24.6569 65.0223 24.7479 65.0223 24.7479 65.0223C24.7479 65.0223 24.566 64.8816 24.3841 64.8816C23.3832 64.8816 22.3823 65.1631 21.4725 65.5853C21.8364 67.1334 22.0184 68.8223 22.0184 70.5112C22.0184 71.3557 21.6544 72.3408 21.0175 72.3408C20.8356 72.3408 20.5627 72.2001 20.3807 71.9186C20.2897 71.7779 20.0168 71.6371 19.8348 71.6371C19.4709 71.6371 19.3799 72.6223 19.3799 73.4667C19.1979 74.4519 19.2888 75.4371 19.7437 75.4371Z" fill="#C4C4C4"/>
<path d="M29.2062 91.9036C29.1152 91.4814 29.0242 90.9184 29.0242 90.2147C29.0242 89.2296 29.1153 88.3851 29.3882 87.8221C29.5702 87.3999 29.9341 87.1184 30.2981 87.1184V83.1777C29.5702 83.4592 28.7513 83.5999 28.0234 83.5999C27.6595 83.5999 27.1135 83.3184 26.9316 82.6147C26.8406 82.3332 26.8406 82.0518 26.9316 81.6296C26.9316 81.4888 27.0226 81.2073 27.1136 81.0666C27.2046 80.9259 27.2955 80.6444 27.2955 80.3629C27.2955 80.2221 27.2955 80.0814 27.2955 79.9407C27.2045 79.6592 26.7496 79.3777 26.2037 79.3777C25.5668 79.3777 25.2028 79.5185 25.1119 79.9407C25.1119 79.9407 25.1119 79.9406 25.1119 80.0814C25.1119 80.3629 25.2029 80.7851 25.2939 81.0666C25.4759 81.4888 25.5668 81.9111 25.4758 82.3333C25.4758 82.474 25.4758 82.474 25.3849 82.6147C25.2029 83.3184 24.6569 83.5999 24.293 83.5999C23.2011 83.5999 22.1093 83.3185 21.1085 82.7555C20.8355 84.1629 20.6536 85.5703 20.6536 87.2592C20.6536 87.5407 20.7446 87.8221 20.7446 87.8221C20.7446 87.8221 20.7446 87.8221 20.8356 87.8221C21.1086 87.5406 21.4725 87.1184 21.9274 87.1184C22.2913 87.1184 23.2922 87.3999 23.2922 90.2147C23.2922 93.0296 22.3823 93.3111 21.9274 93.3111C21.4725 93.3111 21.0176 93.0296 20.8356 92.6073C20.7446 92.6073 20.7446 92.4666 20.7446 92.4666C20.7446 92.4666 20.6536 92.7481 20.6536 93.0296C20.6536 93.311 20.6536 93.5925 20.6536 93.7333H26.3857C27.3865 93.874 28.4783 93.1703 29.2062 91.9036Z" fill="#C4C4C4"/>
<path d="M21.1996 91.6221C21.2906 91.7629 21.5635 91.9036 21.7455 91.9036C22.1094 91.9036 22.2004 90.9185 22.2004 90.074C22.2004 89.2296 22.1094 88.2443 21.7455 88.2443C21.5635 88.2443 21.2906 88.5258 21.1996 88.5258C21.0176 88.8073 20.8356 88.948 20.5626 88.948C20.2897 88.948 20.0168 88.6665 19.8348 88.2443C19.7438 87.9628 19.6528 87.5406 19.6528 87.1184C19.6528 85.4295 19.8347 83.7406 20.1986 82.1925C19.2888 81.6295 18.288 81.4888 17.2872 81.4888C17.1052 81.4888 17.0142 81.6296 16.9232 81.6296C17.1052 82.0518 17.4691 82.8962 17.2872 83.8814C17.2872 84.0221 17.2872 84.1628 17.1962 84.3036C16.9233 85.148 16.2864 85.5703 15.2855 85.5703C14.2847 85.5703 13.6477 85.148 13.3748 84.3036C13.1928 83.8814 13.2838 83.3184 13.2838 82.8962C13.3748 82.474 13.5568 82.0517 13.6478 81.7703C13.6478 81.7703 13.4658 81.6296 13.2838 81.6296C12.283 81.6296 11.3731 81.911 10.5543 82.3333V82.8962C10.8272 84.3036 11.0092 85.711 11.0092 87.2592C11.0092 87.8222 10.9182 88.3851 10.6452 88.6666C11.0092 91.7629 12.7379 94.0147 14.6486 94.0147H19.5618C19.5618 93.7332 19.5618 93.4517 19.5618 93.1702C19.5618 92.3258 19.9257 91.3406 20.5626 91.3406C20.8356 91.3406 21.0176 91.4814 21.1996 91.6221Z" fill="#C4C4C4"/>
<path d="M11.1912 70.5112C11.6461 70.5112 12.556 70.7927 12.556 73.6076C12.556 76.4224 11.6461 76.7039 11.1912 76.7039C11.1002 76.7039 10.9182 76.7038 10.8273 76.5631V80.7853C11.7371 80.3631 12.6469 80.0816 13.6478 80.0816C14.0117 80.0816 14.5577 80.3631 14.8306 81.0668C14.9216 81.3483 14.9216 81.6297 14.9216 81.9112C14.9216 82.1927 14.8305 82.4742 14.7395 82.6149C14.6486 82.7557 14.5576 83.0371 14.5576 83.3186C14.5576 83.4594 14.5576 83.6002 14.5576 83.7409C14.6486 84.0224 15.1035 84.3038 15.6494 84.3038C16.2863 84.3038 16.6503 84.1631 16.7413 83.7409C16.7413 83.7409 16.7413 83.7409 16.7413 83.6001C16.7413 83.3186 16.6502 82.8964 16.5592 82.6149C16.3773 82.1927 16.2863 81.7705 16.3773 81.3483C16.3773 81.2076 16.3773 81.2075 16.4683 81.0668C16.6503 80.3631 17.1962 80.0816 17.5602 80.0816C18.652 80.0816 19.7438 80.3631 20.7446 80.9261C21.1086 79.5187 21.1996 78.1113 21.1996 76.4224C21.1996 76.1409 21.1085 75.8594 21.1085 75.8594C21.1085 75.8594 21.1085 75.8594 21.0175 75.8594C20.7446 76.1409 20.3807 76.5631 19.9258 76.5631C19.5618 76.5631 19.1979 76.2816 18.9249 75.7187C18.652 75.1557 18.561 74.452 18.561 73.3261C18.561 70.5112 19.4708 70.2297 19.9258 70.2297C20.3807 70.2297 20.8356 70.5112 21.0175 70.9335C21.1085 70.9335 21.1085 71.0742 21.1085 71.0742C21.1085 71.0742 21.1996 70.7927 21.1996 70.5112C21.1996 68.9631 21.0176 67.4149 20.7446 66.0075C19.7438 66.5705 18.652 66.852 17.5602 66.852C17.1962 66.852 16.6503 66.5705 16.3773 65.8668C16.1954 65.4446 16.2863 64.8816 16.5592 64.4594C16.7412 64.1779 16.8323 63.615 16.7413 63.3335C16.6503 63.052 16.1953 62.7705 15.6494 62.7705C15.0125 62.7705 14.6486 62.9113 14.5576 63.3335C14.4666 63.615 14.6486 64.1779 14.7395 64.4594C15.0125 64.8816 15.0126 65.4446 14.9216 65.8668C14.7396 66.5705 14.1936 66.852 13.8297 66.852C12.7379 66.852 11.6461 66.5705 10.6452 66.0075C10.5542 66.1483 10.5543 66.4297 10.5543 66.7112C10.8272 67.9779 10.9182 69.2446 11.0092 70.5112C10.8272 70.652 11.0093 70.5112 11.1912 70.5112Z" fill="#C4C4C4"/>
<path d="M66.9649 2.53345V95.0001" stroke="#C4C4C4" stroke-width="2" stroke-miterlimit="10"/>
</svg>
