<svg width="218" height="95" viewBox="0 0 218 95" fill="none" xmlns="http://www.w3.org/2000/svg">
<path d="M198.188 82.6424C198.188 82.6424 198.909 82.1275 200.025 80.1966C201.14 78.2657 201.271 75.8199 202.255 73.3741C203.37 70.6709 205.667 66.4229 205.667 66.4229C205.667 66.4229 204.945 72.2156 204.289 74.9188C203.305 78.9094 202.255 80.0679 202.255 80.0679C202.255 80.0679 202.78 80.8402 203.502 80.1966C204.223 79.553 205.011 78.7807 206.126 79.0381C207.241 79.2956 208.619 79.2956 209.931 77.7508C211.308 76.2061 212.555 74.6614 212.555 74.6614C212.555 74.6614 211.702 79.8104 208.291 82.7711C206.06 84.5733 203.502 84.5733 202.649 83.6722C201.862 82.7712 200.878 82.385 200.156 82.7711C199.434 83.1573 198.188 82.6424 198.188 82.6424Z" fill="#C4C4C4"/>
<path d="M209.275 55.095C209.275 55.095 209.275 60.1153 209.472 61.7888C209.603 63.5909 209.472 65.6505 209.078 67.324C208.684 68.9974 208.094 71.4432 208.553 71.8294C209.012 72.3443 209.143 70.4134 210.128 68.9974C211.112 67.5814 212.883 65.908 213.801 64.7495C215.376 62.9473 216.557 59.4717 216.557 59.4717C216.557 59.4717 215.901 67.324 212.555 71.8294C210.324 74.7901 205.995 75.5625 205.995 75.5625C205.995 75.5625 206.454 74.7901 206.716 72.7305C206.979 70.6709 207.044 66.2942 207.503 63.4622C207.831 60.7589 209.275 55.095 209.275 55.095Z" fill="#C4C4C4"/>
<path d="M211.046 43.7671C211.046 43.7671 212.293 49.946 212.489 51.7482C212.621 53.5503 212.424 58.6993 212.424 58.6993C212.424 58.6993 213.473 56.8972 214.457 53.6791C215.245 51.2332 216.426 50.3321 217.082 48.4012C217.738 46.4703 218 45.5693 218 45.5693C218 45.5693 217.344 51.1045 216.622 54.3227C215.442 59.7292 210.784 65.3931 210.784 65.3931C210.784 65.3931 211.046 63.8484 211.177 60.759C211.308 57.6696 210.915 54.0652 210.784 51.7482C210.587 49.4311 211.046 43.7671 211.046 43.7671Z" fill="#C4C4C4"/>
<path d="M210.981 31.0228C210.981 31.0228 211.374 31.9239 212.096 34.241C212.883 36.5581 213.867 39.1326 213.933 40.5486C213.998 41.9646 214.326 43.7668 214.589 43.6381C214.851 43.5094 214.851 41.9646 215.179 39.5188C215.573 37.073 216.622 34.6272 216.819 32.825C216.95 31.409 217.278 29.2207 217.278 29.2207C217.278 29.2207 217.869 35.5283 217.147 40.5486C216.426 45.6977 214.917 48.1435 214.654 48.7872C214.392 49.4308 213.933 50.3318 213.933 50.3318C213.933 50.3318 214.195 50.8467 213.473 47.6286C212.752 44.4104 212.227 42.4795 211.571 40.1625C211.112 38.2316 210.981 31.0228 210.981 31.0228Z" fill="#C4C4C4"/>
<path d="M209.34 20.4675C209.34 20.4675 211.112 22.5271 211.899 24.2005C212.817 26.1314 213.801 29.7358 214.129 29.607C214.457 29.4783 214.129 26.3888 214.195 25.2303C214.261 24.0718 214.523 18.6653 214.392 17.2493C214.261 15.8333 214.064 13.7737 214.064 13.7737C214.064 13.7737 216.097 19.5664 216.032 23.6856C215.966 27.8049 216.097 28.7059 215.113 31.9241C214.589 33.5975 214.326 35.9147 214.326 35.9147C214.326 35.9147 214.064 34.7561 213.342 33.0827C212.686 31.4092 211.177 28.5772 210.652 26.0027C210.128 23.4282 209.34 20.4675 209.34 20.4675Z" fill="#C4C4C4"/>
<path d="M206.716 10.2979C206.716 10.2979 207.241 11.199 208.028 12.3575C208.816 13.5161 209.865 14.2885 210.456 15.3183C211.046 16.4768 211.702 17.7641 212.03 17.3779C212.293 17.1204 211.964 16.0906 211.505 13.6448C211.046 11.199 211.046 8.8819 210.718 7.85209C210.39 6.82227 209.996 4.7627 209.996 4.7627C209.996 4.7627 212.227 8.10957 212.621 10.9416C213.014 13.7735 212.949 22.5269 212.949 22.5269C212.949 22.5269 212.555 21.3684 211.768 20.3386C210.98 19.18 209.078 16.4768 208.422 15.447C207.175 13.6448 206.716 10.2979 206.716 10.2979Z" fill="#C4C4C4"/>
<path d="M204.879 1.02979C204.879 1.02979 206.651 1.93089 207.831 3.86179C208.947 5.79268 209.865 11.0704 209.865 11.0704C209.865 11.0704 207.963 9.26827 207.241 7.85228C206.454 6.30756 204.879 1.02979 204.879 1.02979Z" fill="#C4C4C4"/>
<path d="M170.438 85.4741C170.438 85.4741 172.471 87.5337 174.046 87.2762C175.62 87.0188 177.129 85.989 179.688 84.7017C182.312 83.4144 184.28 83.0283 185.461 83.5432C186.642 83.9294 188.675 84.4442 188.675 84.4442C188.675 84.4442 191.365 83.6719 193.399 83.4144C194.448 83.2857 195.826 83.9294 197.401 84.8305C198.909 85.7315 201.665 87.5337 203.174 87.5337C205.404 87.5337 207.11 85.8603 207.11 85.8603C207.11 85.8603 206.913 89.0784 201.468 90.1082C198.253 90.7518 196.941 90.237 195.498 88.4348C194.055 86.6326 192.546 85.2166 191.824 85.0878C191.103 84.9591 190.053 85.2166 190.053 85.2166C190.053 85.2166 192.021 86.6326 192.94 88.0486C193.924 89.5933 196.416 93.5838 196.416 93.5838L195.826 94.9998C195.826 94.9998 194.842 92.2966 193.268 89.9795C191.693 87.7912 189.463 85.4741 188.61 85.4741C187.757 85.4741 185.067 87.9199 183.361 91.0093C181.721 94.0988 181.525 94.8711 181.525 94.8711L180.869 93.5838C180.869 93.5838 182.115 91.138 183.821 88.9496C185.526 86.7613 187.298 85.0878 187.298 85.0878C187.298 85.0878 187.232 84.7017 186.182 84.9592C185.133 85.0879 184.345 85.3453 182.574 87.5337C180.803 89.722 180.147 90.2369 178.638 90.4944C177.129 90.8806 174.177 90.2369 172.406 88.821C170.831 87.2762 170.438 85.4741 170.438 85.4741Z" fill="#C4C4C4"/>
<path d="M164.992 74.1463C164.992 74.1463 166.633 76.7209 167.42 77.4933C169.125 79.4242 170.634 78.5231 171.684 78.7805C172.799 79.038 173.718 79.5528 174.046 79.939C174.374 80.1965 175.358 80.454 175.423 80.0678C175.555 79.6816 174.571 78.9092 173.783 76.3347C172.734 72.6016 172.078 66.5515 172.078 66.5515C172.078 66.5515 173.718 68.7399 175.161 72.6017C176.604 76.4635 176.407 78.2656 177.457 79.939C178.507 81.7412 179.556 82.6423 179.556 82.6423C179.556 82.6423 178.244 82.3848 177.26 82.5136C176.276 82.6423 174.636 83.9296 173.193 83.9296C171.75 83.9296 168.994 83.6721 166.764 78.6518C165.189 75.3049 164.992 74.1463 164.992 74.1463Z" fill="#C4C4C4"/>
<path d="M160.925 59.8578C160.925 59.8578 161.909 62.4324 163.287 64.6207C164.664 66.8091 166.829 68.2251 167.551 69.7698C168.273 71.4432 168.601 72.7305 168.994 72.3443C169.388 71.9581 168.732 70.5421 168.469 68.4825C168.207 66.2942 167.945 60.6302 168.207 58.4419C168.338 57.2833 168.273 55.6099 168.273 55.6099C168.273 55.6099 168.929 57.7982 169.716 61.1451C170.438 64.2345 170.372 69.6411 170.7 71.9581C171.028 74.404 171.684 76.0773 171.684 76.0773C171.684 76.0773 169.519 75.8199 168.404 75.0475C167.289 74.2752 164.271 72.0868 163.156 68.3537C161.975 64.6207 160.925 59.8578 160.925 59.8578Z" fill="#C4C4C4"/>
<path d="M159.547 45.5691C159.547 45.5691 160.007 47.7574 160.663 49.0447C161.384 50.3319 161.778 50.9756 162.631 52.9065C163.221 54.1937 164.599 59.3428 164.992 59.2141C165.32 59.0854 164.796 56.5108 164.927 53.8076C165.189 49.4309 166.567 44.1531 166.567 44.1531C166.567 44.1531 166.895 49.5596 166.829 52.7778C166.764 55.9959 166.173 59.6003 166.37 61.5312C166.567 63.3333 166.698 65.6504 166.698 65.6504C166.698 65.6504 164.533 62.8185 163.024 60.1152C161.515 57.4119 160.138 51.4905 159.875 49.6883C159.679 48.0149 159.547 45.5691 159.547 45.5691Z" fill="#C4C4C4"/>
<path d="M160.138 29.4783C160.138 29.4783 159.875 37.4593 160.4 41.0637C161.187 46.9851 163.484 50.7182 163.484 50.7182C163.484 50.7182 163.68 48.6585 164.205 46.5989C164.73 44.5393 165.517 42.4796 165.845 40.8062C166.436 37.4593 166.632 31.6666 166.632 31.6666C166.632 31.6666 166.108 33.3401 165.583 34.6273C165.058 35.9146 164.468 37.588 164.008 39.7764C163.549 41.9647 163.484 44.0243 162.959 44.1531C162.237 44.2818 162.827 42.2221 162.237 39.3902C161.647 36.5582 160.728 33.7262 160.663 32.3102C160.466 30.8942 160.138 29.4783 160.138 29.4783Z" fill="#C4C4C4"/>
<path d="M163.352 14.0312C163.352 14.0312 161.712 18.4079 161.516 22.2697C161.253 26.2602 161.45 29.4784 162.237 32.053C162.762 33.8551 162.959 36.4296 162.959 36.4296C162.959 36.4296 163.221 35.0136 163.877 33.5976C164.533 32.1816 165.714 30.1221 166.567 27.2901C167.42 24.5868 168.141 20.8537 168.141 20.8537C168.141 20.8537 166.829 22.2697 166.108 23.6857C164.271 27.0326 163.352 30.1221 163.352 30.1221C163.352 30.1221 162.828 29.221 163.024 27.9337C163.221 26.6464 163.287 24.5868 163.221 23.0421C163.156 21.4974 162.893 20.725 163.09 18.7941C163.09 17.1206 163.352 14.0312 163.352 14.0312Z" fill="#C4C4C4"/>
<path d="M167.748 5.14917C167.748 5.14917 165.583 7.7237 164.992 10.9419C164.533 13.3877 164.73 15.9622 164.533 18.5368C164.336 21.1113 164.599 22.9134 164.599 22.9134C164.599 22.9134 164.796 22.2698 165.517 20.725C166.305 19.0516 167.485 18.1506 168.338 16.992C170.175 14.5462 170.962 10.5557 170.962 10.5557C170.962 10.5557 169.913 12.4866 169.388 13.0015C168.863 13.5164 167.879 14.5462 167.157 15.576C166.633 16.3483 166.173 18.5368 166.173 18.5368C166.173 18.5368 165.517 17.2495 165.714 15.9622C165.977 14.5462 166.305 13.5164 166.436 12.1004C166.567 10.6844 166.764 8.75351 167.092 7.7237C167.354 6.56516 167.748 5.14917 167.748 5.14917Z" fill="#C4C4C4"/>
<path d="M169.322 4.89189C170.175 3.21845 172.668 1.41626 172.668 1.41626C172.668 1.41626 171.618 4.89188 170.438 7.20895C169.126 9.91221 167.42 11.457 167.42 11.457C167.42 11.457 167.813 7.72388 169.322 4.89189Z" fill="#C4C4C4"/>
<path d="M180.803 10.5554C183.099 10.5554 187.626 15.3183 187.626 21.7546C187.626 25.7452 186.051 28.4484 186.051 28.4484C186.051 28.4484 186.117 30.6368 185.986 31.4091C185.658 32.6964 185.395 32.3102 185.002 33.4687C184.608 34.6273 184.411 36.4294 182.771 36.4294C181.131 36.4294 181.131 35.3996 180.344 35.3996C179.556 35.3996 179.032 36.9444 179.032 36.9444V48.5298C179.032 48.5298 179.228 49.9457 180.672 51.6191C182.181 53.1639 183.296 54.1937 183.755 54.1937C184.214 54.1937 184.214 53.1639 184.805 53.1639C185.395 53.1639 187.626 53.1639 187.626 55.2235C187.626 57.2832 186.51 58.6991 182.377 58.6991C178.31 58.6991 176.998 58.0555 176.539 58.0555C176.08 58.0555 176.014 58.313 176.014 59.4715C176.014 60.7588 176.014 62.4322 176.014 62.4322C176.014 62.4322 176.67 64.6205 177.523 65.3929C178.376 66.294 178.835 66.6802 179.753 66.6802C180.672 66.6802 182.049 66.0365 183.165 65.1354C184.28 64.1056 185.395 63.5908 186.642 63.5908C187.954 63.5908 190.184 62.9471 190.184 60.3726C190.184 57.7981 189.659 56.8969 189.659 54.8373C189.659 52.7777 189.791 51.1043 189.331 50.0745C188.872 49.1734 186.642 45.9552 186.642 44.2818C186.642 42.4796 187.429 41.7072 187.56 40.8062C187.626 39.7763 187.56 39.2614 187.954 39.004C188.282 38.8752 188.544 38.4891 188.544 38.4891L188.675 36.8156C188.675 36.8156 189.135 36.4294 189.331 36.0433C189.528 35.6571 189.725 35.3996 189.725 35.3996C189.725 35.3996 189.528 34.1124 189.922 33.34C190.315 32.5677 190.775 32.6964 191.168 32.6964C191.562 32.6964 192.677 32.4389 192.677 32.4389C192.677 32.4389 193.005 31.1517 193.464 30.508C194.12 29.4782 195.957 28.9633 196.417 28.3197C196.876 27.5473 197.401 25.8738 198.581 25.8738C203.567 25.8738 206.979 34.756 206.979 39.5189C206.979 47.7574 204.223 57.7981 200.418 57.7981C197.401 57.7981 197.597 59.6002 197.597 61.5311C197.597 66.0365 199.828 66.9376 199.828 66.9376C199.828 66.9376 195.104 73.8889 189.594 73.8889C184.411 73.8889 179.228 70.1558 175.489 62.046C172.93 56.5108 170.962 49.1734 170.962 39.004C170.962 35.0134 170.962 34.3698 170.962 34.3698C170.962 34.3698 172.34 32.3102 173.127 31.4091C173.98 30.6368 175.817 28.4484 175.817 26.7749C175.817 25.1015 175.489 24.3291 175.489 20.7248C175.489 19.0513 175.686 15.9619 176.473 13.9023C177.523 11.9714 179.097 10.5554 180.803 10.5554Z" fill="#C4C4C4"/>
<path d="M188.938 0C177.916 0 168.994 17.5068 168.994 39.1329C168.994 60.759 177.916 78.2657 188.938 78.2657C199.959 78.2657 208.881 60.759 208.881 39.1329C208.881 17.5068 199.959 0 188.938 0ZM203.83 14.8036C204.879 17.2494 205.338 18.9228 205.338 18.9228C205.338 18.9228 204.617 20.3388 203.83 21.1112C203.042 21.8835 201.534 22.9133 201.534 22.9133C201.534 22.9133 201.009 19.5664 200.549 17.7642C200.09 15.9621 199.631 13.9025 199.631 13.9025C199.631 13.9025 200.09 13.2588 200.746 12.3577C201.402 11.4566 201.862 10.6843 201.862 10.6843C201.862 10.6843 202.977 12.7439 203.83 14.8036ZM197.269 4.7629C197.269 4.7629 198.647 5.92139 199.5 7.20865C200.418 8.49592 201.468 10.1694 201.468 10.1694C201.468 10.1694 201.337 10.6843 200.812 11.4567C200.287 12.2291 199.565 12.8727 199.565 12.8727C199.565 12.8727 198.909 11.0705 198.319 9.65449C197.728 8.2385 196.679 5.92139 196.679 5.92139C196.679 5.92139 196.941 5.40651 197.072 5.14906C197.204 4.76288 197.269 4.7629 197.269 4.7629ZM194.645 12.8727C194.448 11.0705 193.924 9.39702 193.924 9.39702C193.924 9.39702 194.776 8.62465 195.301 7.85229C195.826 7.20865 196.285 6.43633 196.285 6.43633C196.285 6.43633 197.204 8.23848 197.925 10.0407C198.581 11.7141 199.106 13.3876 199.106 13.3876C199.106 13.3876 198.253 14.1599 197.204 15.061C196.22 15.9621 194.908 16.3483 194.908 16.3483C194.908 16.3483 194.842 14.6748 194.645 12.8727ZM195.17 26.2602C195.17 26.2602 194.711 26.5177 193.136 26.6464C191.562 26.7751 190.184 26.6464 190.184 26.6464V18.0217C190.184 18.0217 191.365 18.1504 192.283 18.1504C193.136 18.1504 194.645 17.6356 194.645 17.6356C194.645 17.6356 194.711 19.0515 194.908 21.2399C195.104 23.2995 195.17 26.2602 195.17 26.2602ZM195.629 3.34686C196.154 3.60431 196.81 4.37673 196.81 4.37673L196.22 5.27776C196.22 5.27776 195.826 4.50543 195.432 3.8618C195.039 3.08944 194.186 2.57453 194.186 2.57453C194.186 2.57453 195.104 3.08941 195.629 3.34686ZM194.055 3.08947C195.039 4.11928 195.826 5.92139 195.826 5.92139C195.826 5.92139 195.432 6.4363 194.908 7.20865C194.383 7.98101 193.661 8.23853 193.661 8.23853C193.661 8.23853 193.202 6.05013 192.874 4.89159C192.546 3.73305 191.562 1.54473 191.562 1.54473C191.562 1.54473 193.071 2.05966 194.055 3.08947ZM190.119 1.28727C190.119 1.28727 191.234 0.772391 192.218 4.37673C192.743 6.30763 193.202 8.49592 193.202 8.49592C193.202 8.49592 192.415 9.01083 191.627 9.13955C190.84 9.26828 190.119 9.01086 190.119 9.01086V1.28727ZM190.119 10.1694C190.119 10.1694 190.84 10.2982 191.759 10.1694C192.611 10.0407 193.464 9.65449 193.464 9.65449C193.464 9.65449 193.792 10.2982 194.055 12.744C194.317 14.9323 194.448 16.6058 194.448 16.6058C194.448 16.6058 193.53 17.1207 192.218 17.2494C190.906 17.3781 190.184 17.1206 190.184 17.1206V10.1694H190.119ZM189.528 1.28727L189.594 9.13955C189.594 9.13955 188.741 9.2683 187.757 8.75339C186.838 8.23848 186.379 7.72359 186.379 7.72359C186.379 7.72359 186.904 5.79266 187.56 3.99049C189.003 0.128695 189.528 1.28727 189.528 1.28727ZM188.282 1.0298C188.282 1.0298 187.363 2.70324 186.97 4.24796C186.576 5.79268 185.985 7.33743 185.985 7.33743C185.985 7.33743 185.264 6.6938 184.805 6.05016C184.345 5.40653 184.083 4.89159 184.083 4.89159C184.083 4.89159 184.87 3.08941 186.313 2.05959C187.626 1.15851 188.282 1.0298 188.282 1.0298ZM184.542 2.05959C185.264 1.67341 185.854 1.67343 185.854 1.67343C185.854 1.67343 185.001 2.4458 184.542 3.21816C184.083 3.8618 183.689 4.37673 183.689 4.37673C183.689 4.37673 183.493 4.11928 183.361 3.7331C183.23 3.34692 183.23 2.96069 183.23 2.96069C183.23 2.96069 183.821 2.31705 184.542 2.05959ZM189.003 77.1072C179.228 77.1072 169.585 61.7887 169.585 39.2616C169.585 10.9418 182.705 3.21816 182.705 3.21816L183.493 4.63412C183.493 4.63412 182.771 5.53526 182.246 6.6938C181.656 7.85233 181.328 8.88216 181.328 8.88216L181.656 9.5258C181.656 9.5258 182.049 8.36721 182.509 7.46612C182.968 6.56504 183.624 5.53523 183.624 5.53523C183.624 5.53523 184.28 6.95125 184.739 7.33743C185.198 7.85233 185.789 8.36723 185.789 8.36723C185.789 8.36723 185.723 9.01083 185.526 9.78319C185.329 10.5555 185.198 11.5854 185.198 11.5854L185.592 12.1003C185.592 12.1003 185.854 10.5556 186.051 9.91196C186.182 9.26833 186.313 8.75339 186.313 8.75339C186.313 8.75339 187.298 9.52578 188.15 9.91196C189.003 10.2981 189.594 10.1694 189.594 10.1694V16.8631H188.347V18.0217H189.659V26.5176H188.544V27.4187H189.594V30.5082H190.119V27.5475C190.119 27.5475 190.775 27.5475 192.611 27.4187C194.383 27.29 195.564 26.9039 195.564 26.9039C195.564 26.9039 195.498 23.6857 195.367 21.3686C195.236 19.0515 194.973 17.2494 194.973 17.2494C194.973 17.2494 196.023 16.9919 197.138 16.0908C198.253 15.1897 199.237 14.2886 199.237 14.2886C199.237 14.2886 199.828 15.9621 200.287 18.4079C200.746 20.8537 201.205 23.2995 201.205 23.2995L200.418 23.9431L200.549 24.7155L201.468 24.2006L201.73 25.2304L202.058 24.973L201.796 23.9431C201.796 23.9431 202.846 23.2995 203.895 22.2697C204.945 21.1111 205.732 20.0813 205.732 20.0813C205.732 20.0813 208.356 27.9337 208.356 39.1329C208.356 56.2535 201.534 77.1072 189.003 77.1072Z" fill="#C4C4C4"/>
<path d="M19.2874 89.3364V80.5829L19.1562 80.3255C17.0569 87.4055 14.4984 91.0098 9.70933 91.0098C5.3139 91.0098 0 86.7618 0 72.3445V29.0923H4.98592V68.9975C4.98592 78.9095 7.4788 82.2564 10.759 82.2564C17.0569 82.2564 18.9594 71.0572 18.9594 62.3038V29.2211H23.9452V89.3364H19.2874Z" fill="#C4C4C4"/>
<path d="M55.7628 89.3361H50.777V52.3916C50.777 41.9647 49.2681 36.6869 44.4135 36.6869C41.5925 36.6869 36.5411 40.42 36.5411 56.6395V89.3361H31.5552V29.2208H36.2786V37.7167H36.4098C37.5251 34.4985 40.2805 27.5474 45.3975 27.5474C49.9898 27.5474 55.8285 31.2804 55.8285 48.5298V89.3361" fill="#C4C4C4"/>
<path d="M63.3073 18.2792V6.82251H68.2932V18.2792H63.3073ZM68.2932 89.3363H63.3073V29.221H68.2932V89.3363Z" fill="#C4C4C4"/>
<path d="M94.4032 49.431C93.7472 41.4499 91.5823 36.5583 87.3181 36.5583C81.0858 36.5583 79.1177 48.5299 79.1177 59.2142C79.1177 69.5123 80.3641 82.2563 87.2525 82.2563C90.5982 82.2563 93.5504 77.2359 94.4032 67.9676H99.2579C98.7331 77.4933 95.8465 91.0097 87.1213 91.0097C78.7241 91.0097 73.8038 78.2657 73.8038 60.8876C73.8038 42.2223 78.2648 27.4187 88.1053 27.4187C95.9121 27.4187 98.8643 38.8754 99.2579 49.431H94.4032Z" fill="#C4C4C4"/>
<path d="M129.567 70.4134C129.37 73.2454 128.058 81.7413 124.253 86.8904C122.875 88.6926 120.973 91.0097 116.184 91.0097C107.786 91.0097 102.866 78.2657 102.866 60.8876C102.866 42.2223 107.327 27.4187 117.168 27.4187C125.762 27.4187 129.96 41.1925 129.96 62.4323H108.18C108.18 74.9188 111.067 82.2563 116.84 82.2563C121.563 82.2563 124.384 74.9188 124.515 70.4134H129.567ZM124.778 54.4513C124.515 45.183 122.547 36.5583 116.446 36.5583C111.854 36.5583 108.18 45.183 108.18 54.4513H124.778Z" fill="#C4C4C4"/>
<path d="M142.162 37.5877V89.3358H137.177V37.5877H133.109V29.2205H137.177V18.9224C137.177 9.78281 139.998 5.66357 144.918 5.66357C145.639 5.66357 146.427 5.79224 147.214 5.92096V15.0606C146.558 14.9319 145.771 14.8031 145.18 14.8031C143.015 14.8031 142.228 16.9915 142.228 21.7544V29.2205H147.214V37.5877H142.162Z" fill="#C4C4C4"/>
</svg>
